<svg width="275" height="260" viewBox="0 0 275 260" fill="none" xmlns="http://www.w3.org/2000/svg">
<path d="M152.549 17.9273C85.7088 12.3375 27.6767 54.5999 22.8443 112.385C19.2289 155.615 46.4303 195.126 88.2189 214.688C80.8529 241.755 65.0762 243.476 65.0762 243.476C93.7247 250.105 109.631 235.151 117.046 224.373C122.912 225.623 128.914 226.559 135.059 227.073C201.899 232.663 259.931 190.401 264.764 132.616C269.596 74.8313 219.282 23.5081 152.549 17.9273Z" fill="#DBF6FE"/>
<path d="M142.552 10.2519C121.314 8.4758 99.6793 11.4432 79.795 19.4422C61.8156 26.7321 45.3353 38.1641 33.0046 53.1999C20.9166 67.9304 13.1221 85.8425 11.2119 104.789C9.1845 125.138 14.0838 145.74 24.5632 163.226C35.4106 181.503 51.6406 196.431 70.3337 206.57C72.7231 207.856 75.1215 209.033 77.6277 210.22C77.3584 209.546 76.9813 208.863 76.7119 208.189C74.4547 215.708 71.6584 223.182 66.1764 229.02C64.6216 230.736 62.6356 232.415 60.8025 233.565C60.0028 234.041 59.2031 234.517 58.4124 234.885C58.0709 235.073 57.7385 235.154 57.397 235.343C57.1724 235.433 56.2739 235.792 56.7231 235.612C56.0583 235.774 55.3844 236.043 54.7285 236.097C53.1922 236.294 52.868 238.872 54.4671 239.223C63.9447 241.427 73.908 241.717 83.2794 238.701C90.3056 236.466 96.6137 232.434 101.826 227.225C104.199 224.818 106.364 222.285 108.225 219.51C107.776 219.689 107.21 219.968 106.76 220.147C121.269 223.206 136.173 224.127 150.953 222.649C163.657 221.323 176.181 218.245 188.087 213.487C199.22 208.881 209.823 202.82 219.15 195.132C228.119 187.849 236.018 179.065 242.157 169.265C248.297 159.465 252.567 148.64 254.817 137.321C257.084 125.786 257.213 113.855 255.132 102.39C253.033 91.1417 248.949 80.2697 243.157 70.3405C237.167 60.1777 229.569 51.0745 220.785 43.1748C211.597 34.9157 201.195 28.1835 190.011 23.0144C178.1 17.4587 165.496 13.6906 152.524 11.7372C149.119 10.9097 145.786 10.5224 142.552 10.2519C140.504 10.0806 140.233 13.3148 142.282 13.4861C167.401 15.5868 191.844 24.4703 211.838 39.8211C229.793 53.5901 243.929 72.7934 250.023 94.6895C256.107 116.694 253.594 140.258 243.103 160.55C232.613 180.842 214.775 196.829 194.396 206.849C171.186 218.261 144.709 222.018 119.24 218.911C115.161 218.353 110.984 217.678 106.932 216.796C106.402 216.643 105.719 217.02 105.467 217.433C102.133 222.257 98.0798 226.586 93.2454 229.873C87.0181 234.237 79.6504 236.661 72.1035 237.333C66.5332 237.735 60.8284 237.15 55.3934 235.935C55.3032 237.013 55.2221 237.983 55.1319 239.062C57.3241 238.811 59.5795 237.805 61.4126 236.656C66.5524 233.612 70.6326 228.959 73.5539 223.884C76.2235 219.222 77.932 214.371 79.4428 209.286C79.7305 208.442 79.3624 207.651 78.527 207.256C59.7258 198.41 42.9384 184.955 31.0304 167.675C19.8051 151.321 13.4141 131.68 13.8781 111.852C14.3418 93.3266 20.627 75.2883 31.4393 60.2341C42.4853 44.9822 57.5912 33.1096 74.6454 25.1996C93.2901 16.4455 113.811 12.5165 134.178 13.0256C136.882 13.1431 139.586 13.2607 142.282 13.4861C144.33 13.6574 144.6 10.4232 142.552 10.2519Z" fill="#523823"/>
</svg>
