<svg width="476px" height="476px" viewBox="0 0 476 476" version="1.1" xmlns="http://www.w3.org/2000/svg" xmlns:xlink="http://www.w3.org/1999/xlink">
    <!-- Generator: Sketch 47.1 (45422) - http://www.bohemiancoding.com/sketch -->
    <desc>Created with Sketch.</desc>
    <defs></defs>
    <g id="Page-1" stroke="none" stroke-width="1" fill="none" fill-rule="evenodd">
        <g id="search" fill-rule="nonzero" fill="#02122D">
            <path d="M464.524,412.846 L366.595,314.921 C390.195,280.853 402.001,242.874 402.001,201.004 C402.001,173.786 396.717,147.755 386.149,122.917 C375.588,98.075 361.311,76.663 343.324,58.676 C325.337,40.689 303.928,26.412 279.091,15.85 C254.246,5.285 228.217,0.003 200.999,0.003 C173.783,0.003 147.752,5.285 122.914,15.85 C98.072,26.412 76.66,40.689 58.673,58.676 C40.684,76.663 26.409,98.079 15.846,122.917 C5.282,147.758 0,173.786 0,201.004 C0,228.22 5.282,254.242 15.846,279.087 C26.408,303.925 40.684,325.334 58.673,343.321 C76.66,361.314 98.076,375.585 122.914,386.153 C147.755,396.716 173.783,401.997 200.999,401.997 C242.878,401.997 280.851,390.19 314.921,366.592 L412.85,464.233 C419.702,471.464 428.256,475.082 438.543,475.082 C448.44,475.082 457.01,471.465 464.237,464.233 C471.467,457.003 475.085,448.437 475.085,438.54 C475.088,428.458 471.567,419.889 464.524,412.846 Z M291.363,291.358 C266.334,316.391 236.215,328.907 200.999,328.907 C165.789,328.907 135.67,316.388 110.639,291.358 C85.608,266.329 73.093,236.214 73.093,200.998 C73.093,165.788 85.611,135.664 110.639,110.638 C135.665,85.606 165.789,73.092 200.999,73.092 C236.211,73.092 266.33,85.611 291.363,110.638 C316.396,135.664 328.911,165.788 328.911,200.998 C328.911,236.214 316.392,266.329 291.363,291.358 Z" id="Shape"></path>
        </g>
    </g>
</svg>