<svg xmlns="http://www.w3.org/2000/svg" viewBox="0 0 64 64" aria-labelledby="title"
aria-describedby="desc" role="img" xmlns:xlink="http://www.w3.org/1999/xlink"
width="48" height="48">
  <title>24h Assistance</title>
  <desc>A solid styled icon from Orion Icon Library.</desc>
  <path data-name="layer2"
  d="M62 30h-2v-4a2 2 0 0 0-4 0v4h-5l4.8-11.2a2 2 0 1 0-3.7-1.6L45 34h11v4a2 2 0 0 0 4 0v-4h2a2 2 0 0 0 0-4z"
  fill="#8d8ea3"></path>
  <path data-name="layer2" d="M44 36h-7.7l5.9-6.9a8 8 0 0 0-11.5-11 2 2 0 0 0 2.7 3 4 4 0 0 1 6.7 3 3.9 3.9 0 0 1-.9 2.5L27.7 40H44a2 2 0 0 0 0-4z"
  fill="#8d8ea3"></path>
  <path data-name="layer1" d="M34 50H4V8h30v4.2l2-.2 2 .2V6a6 6 0 0 0-6-6H6a6 6 0 0 0-6 6v52a6 6 0 0 0 6 6h26a6 6 0 0 0 6-6V44h-4zm-12.9 9.1a3 3 0 0 1-2.1.9 3 3 0 0 1-2.1-5.1 3.1 3.1 0 0 1 4.2 0 3 3 0 0 1 0 4.2z"
  fill="#253858"></path>
</svg>