<svg xmlns="http://www.w3.org/2000/svg" viewBox="0 0 64 64" aria-labelledby="title"
aria-describedby="desc" role="img" xmlns:xlink="http://www.w3.org/1999/xlink"
width="48" height="48">
  <title>Happy Emoji</title>
  <desc>A solid styled icon from Orion Icon Library.</desc>
  <path data-name="layer1"
  d="M32 2a30 30 0 1 0 30 30A30 30 0 0 0 32 2zm10 19.9a6 6 0 0 1 6 6 2 2 0 1 1-4 0 2 2 0 1 0-4 0 2 2 0 1 1-4 0 6 6 0 0 1 6-6zm-20 0a6 6 0 0 1 6 6 2 2 0 1 1-4 0 2 2 0 1 0-4 0 2 2 0 1 1-4 0 6 6 0 0 1 6-6zm27.7 20a20.5 20.5 0 0 1-35.5-.3 2 2 0 0 1 3.5-2 16.5 16.5 0 0 0 28.5.2 2 2 0 1 1 3.4 2z"
  fill="#253858"></path>
</svg>