<svg xmlns="http://www.w3.org/2000/svg" viewBox="0 0 64 64" aria-labelledby="title"
aria-describedby="desc" role="img" xmlns:xlink="http://www.w3.org/1999/xlink"
width="48" height="48">
  <title>Healthcare</title>
  <desc>A solid styled icon from Orion Icon Library.</desc>
  <path data-name="layer2"
  d="M35.282 44.29a7.781 7.781 0 0 0 2.287-3.354A1.976 1.976 0 0 0 39 39a2.014 2.014 0 0 0-.961-1.734C37.835 33.192 35.886 30 31 30s-6.835 3.192-7.039 7.266A2.014 2.014 0 0 0 23 39a1.976 1.976 0 0 0 1.431 1.936 7.781 7.781 0 0 0 2.287 3.354A10.022 10.022 0 0 0 21 53.308V58h20v-4.692a10.022 10.022 0 0 0-5.718-9.018z"
  fill="#8d8ea3"></path>
  <path data-name="layer1" d="M53 31.366V29.3c.2-.094.385-.2.572-.311h.009c2.381.989 7.259.037 9.32-1.9a.1.1 0 0 0-.022-.159A9.542 9.542 0 0 1 58 19c0-3.922-1.923-8.805-7.654-8.994A9.193 9.193 0 0 0 41 19.055c-.014 4.795-1.877 6.813-3.8 7.842a.1.1 0 0 0 .018.176c2.8.972 4.712 2.4 9.784 2.429v1.868a17.334 17.334 0 0 0-7.237 3.681c.084.4.157.813.2 1.245A4.064 4.064 0 0 1 41 39a4.017 4.017 0 0 1-1.872 3.417 9.811 9.811 0 0 1-.795 1.422A12.056 12.056 0 0 1 43 53.308V58h21V44c0-6.117-5.286-11.269-11-12.634zM23.667 43.839a9.809 9.809 0 0 1-.795-1.422A4.017 4.017 0 0 1 21 39a4.064 4.064 0 0 1 1.033-2.7 11.329 11.329 0 0 1 .9-3.439A19.3 19.3 0 0 0 17 30.363v-1.312a8.822 8.822 0 0 0 4.038-4.4 17.308 17.308 0 0 0 .771-1.671c.064.006.126.019.192.019a1.994 1.994 0 0 0 .967-3.74c.826-3.617.927-7.734-.967-10.26-1.7-2.263-8.451-2.549-11 0-1 1-6-1-6 5a39.493 39.493 0 0 0 .336 5.122A2 2 0 0 0 6 23c.062 0 .121-.013.182-.018a5.674 5.674 0 0 0 .641 1.339l.015.017A8.92 8.92 0 0 0 11 29.043v1.322C5.286 31.731 0 36.883 0 43v15h19v-4.692a12.056 12.056 0 0 1 4.667-9.469z"
  fill="#253858"></path>
</svg>