<svg xmlns="http://www.w3.org/2000/svg" viewBox="0 0 64 64" aria-labelledby="title"
aria-describedby="desc" role="img" xmlns:xlink="http://www.w3.org/1999/xlink"
width="48" height="48">
  <title>Hot Dog</title>
  <desc>A solid styled icon from Orion Icon Library.</desc>
  <path data-name="layer2"
  d="M56.2 19.2A8.1 8.1 0 1 0 44.8 7.8l-37 37a8.1 8.1 0 1 0 11.4 11.4zM16.4 49c-.9-.2-1.3-.1-1.4 0s-.2.5.1 1.2a2 2 0 0 1-1.3 2.5h-.6a2 2 0 0 1-1.9-1.4 5.1 5.1 0 0 1 .9-5.2 5.3 5.3 0 0 1 5.3-1.1 2.1 2.1 0 0 0 1.4.1 2.1 2.1 0 0 0-.1-1.4c-.6-2.2-.1-4.2 1.2-5.4a5 5 0 0 1 5.2-.7c.6.2 1.1.2 1.2 0a.9.9 0 0 0 .1-.7l-.3-.6a5.2 5.2 0 0 1 1.1-5.3 5.1 5.1 0 0 1 5.1-.9c.7.2 1.2.1 1.3 0s.2-.5 0-1.3a5.1 5.1 0 0 1 .9-5.2 5.3 5.3 0 0 1 5.3-1.1 2.1 2.1 0 0 0 1.4.1 2.1 2.1 0 0 0-.1-1.4c-.6-2.2-.1-4.2 1.2-5.4a5 5 0 0 1 5.2-.7c.6.2 1.1.2 1.2 0s.2-.6 0-1.3a2 2 0 1 1 3.8-1.3 5.1 5.1 0 0 1-1 5.4 5 5 0 0 1-5.3.9c-.7-.2-1-.2-1.1-.1s-.2.6 0 1.5c.8 2.9-.3 4.5-1 5.2s-2.3 1.7-5.2 1c-.9-.2-1.3-.1-1.4 0s-.2.5.1 1.2a5.1 5.1 0 0 1-.9 5.3 5.1 5.1 0 0 1-5.3 1c-.7-.2-1.1-.1-1.2 0a1.1 1.1 0 0 0-.1.7l.2.4a5.1 5.1 0 0 1-1 5.4 5 5 0 0 1-5.3.9c-.7-.2-1-.2-1.1-.1s-.2.6 0 1.5c.8 2.9-.3 4.5-1 5.2s-2.7 1.9-5.6 1.1z"
  fill="#8d8ea3"></path>
  <path data-name="layer1" d="M61.3 18.9A12 12 0 0 1 59 22L22 59a12.1 12.1 0 0 1-3.2 2.3 10.1 10.1 0 0 0 12.7-1.2l28.6-28.5a10.1 10.1 0 0 0 1.2-12.7zM45.1 2.7a10.1 10.1 0 0 0-12.7 1.2L3.9 32.4a10.1 10.1 0 0 0-1.2 12.7A12 12 0 0 1 5 42L42 5a12.1 12.1 0 0 1 3.1-2.3z"
  fill="#253858"></path>
</svg>