<svg width="150px" height="30px" viewBox="0 0 150 30" version="1.1" xmlns="http://www.w3.org/2000/svg" xmlns:xlink="http://www.w3.org/1999/xlink">
    <!-- Generator: Sketch 47.1 (45422) - http://www.bohemiancoding.com/sketch -->
    <desc>Created with Sketch.</desc>
    <defs></defs>
    <g id="Page-1" stroke="none" stroke-width="1" fill="none" fill-rule="evenodd">
        <g id="Group" fill="#FFFFFF">
            <path d="M74.28,8.66 L70.66,15.1 L73,22 L69.18,22 L67.6,15.62 L66.9,22 L63.36,22 L65,8.66 L68.54,8.66 L67.74,14.62 L70.54,8.66 L74.28,8.66 Z M84.2,13.56 C84.2,14.84 84.04,16.14 83.68,17.38 C82.94,19.84 81.18,22.24 78.36,22.24 C77.02,22.24 75.74,21.56 74.98,20.46 C74.24,19.38 74.04,18.02 74.04,16.74 C74.04,15.48 74.22,14.2 74.62,13 C75.44,10.62 77.3,8.42 80.02,8.42 C82.92,8.42 84.2,10.98 84.2,13.56 Z M80.52,13.84 C80.52,13.2 80.5,11.78 79.58,11.78 C78.52,11.78 77.98,14.08 77.86,14.9 C77.76,15.48 77.72,16.08 77.72,16.68 C77.72,17.34 77.74,18.86 78.68,18.86 C79.78,18.86 80.28,16.48 80.4,15.64 C80.48,15.04 80.52,14.44 80.52,13.84 Z M95.68,8.66 L94.04,22 L90.66,22 L89.48,17.1 C89.26,16.18 89.06,15.26 88.92,14.32 C88.88,15.02 88.84,15.74 88.8,16.44 C88.68,18.3 88.4,20.14 88.18,22 L84.8,22 L86.44,8.66 L89.82,8.66 L91.02,13.34 C91.3,14.44 91.48,15.58 91.72,16.7 C91.72,15.02 91.7,13.34 91.92,11.66 L92.3,8.66 L95.68,8.66 Z M103.68,9.1 L103.18,13.18 C102.82,12.46 102.14,11.72 101.28,11.72 C100.8,11.72 100.22,12.08 100.22,12.6 C100.22,13.78 103.02,14.34 103.02,17.08 C103.02,19.82 101.02,22.24 98.18,22.24 C97.3,22.24 96.44,22.02 95.64,21.66 L96.16,17.48 C96.62,18.24 97.3,18.94 98.24,18.94 C98.82,18.94 99.4,18.58 99.4,17.94 C99.4,16.74 96.64,16.2 96.64,13.32 C96.64,10.86 98.66,8.42 101.2,8.42 C102.08,8.42 102.92,8.68 103.68,9.1 Z M112.12,8.66 L111.72,11.86 L109.76,11.86 L108.52,22 L104.98,22 L106.22,11.86 L104.26,11.86 L104.66,8.66 L112.12,8.66 Z M113.12,8.66 L116.74,8.66 C119.36,8.66 121.34,9.56 121.34,12.48 C121.34,14.3 120.58,15.74 118.86,16.46 L120.82,22 L116.98,22 C116.66,20.66 116.3,19.34 116,18 C115.88,17.48 115.78,16.98 115.66,16.46 C115.5,18.32 115.26,20.16 115.02,22 L111.48,22 L113.12,8.66 Z M115.9,14.84 L116.14,14.84 C117.12,14.84 117.8,13.86 117.8,12.94 C117.8,11.94 117.2,11.66 116.3,11.66 L115.9,14.84 Z M132.52,8.66 L128.98,8.66 L127.92,17.28 C127.84,17.96 127.72,18.86 126.84,18.86 C126.26,18.86 126.06,18.46 126.06,17.94 C126.06,17.72 126.08,17.5 126.1,17.28 L127.16,8.66 L123.62,8.66 L122.52,17.6 C122.48,17.92 122.46,18.24 122.46,18.56 C122.46,21.04 124.22,22.24 126.56,22.24 C127.74,22.24 128.74,21.92 129.66,21.2 C130.76,20.34 131.2,19.46 131.36,18.1 L132.52,8.66 Z M141.58,8.76 C140.92,8.48 140.54,8.42 139.82,8.42 C135.3,8.42 133.12,12.8 133.12,16.8 C133.12,19.7 134.58,22.24 137.76,22.24 C138.6,22.24 139.16,22.08 139.94,21.76 L140.62,17.9 C140.06,18.38 139.44,18.76 138.68,18.76 C137.2,18.76 136.78,17.48 136.78,16.22 C136.78,14.52 137.44,11.76 139.58,11.76 C140.28,11.76 140.68,12.06 141.12,12.56 L141.58,8.76 Z M149.86,8.66 L142.4,8.66 L142,11.86 L143.96,11.86 L142.72,22 L146.26,22 L147.5,11.86 L149.46,11.86 L149.86,8.66 Z" id="KONSTRUCT"></path>
            <g id="Group-2">
                <path d="M42.3494171,12.9170893 C47.0253483,15.9460992 52.7628803,20.7652249 60,30 L35.3984926,30 C34.3660282,28.7380632 33.2917389,27.7363754 32.1779744,26.9483991 C34.7175455,21.7267006 38.1861935,17.0051683 42.3494171,12.9170893 Z M2.95081967,22.0827358 L8.65357597,0.9375 L29.4664042,0.9375 L28.6844193,3.83683713 C25.9935267,4.93521466 23.3688959,6.17862681 20.8321445,7.57249545 C14.0405307,11.304991 7.80673898,16.1688471 2.95081967,22.0827358 L2.95081967,22.0827358 Z" id="Fill-3"></path>
                <path d="M0,30 C9.21581883,13.7127838 30.1237789,1.84854487 55.0819672,0 C42.1495352,6.55310072 32.163326,17.2151455 27.3446003,30 L0,30" id="Fill-4"></path>
            </g>
        </g>
    </g>
</svg>