<svg xmlns="http://www.w3.org/2000/svg" viewBox="0 0 64 64" aria-labelledby="title"
aria-describedby="desc" role="img" xmlns:xlink="http://www.w3.org/1999/xlink"
width="48" height="48">
  <title>Messaging App</title>
  <desc>A solid styled icon from Orion Icon Library.</desc>
  <path data-name="layer2"
  d="M37.4 54.3c-8.2-1.4-7.4-3.5-7.4-4.9v-2.5a13.9 13.9 0 0 0 4-10.1v-6.7C34 22.8 28.7 20 24 20s-10 2.8-10 10.1v6.7a13.8 13.8 0 0 0 4.1 10.1v2.5c0 1.4.7 3.5-7.4 4.9S2 60 2 62h44c0-2-1.3-6.4-8.6-7.7z"
  fill="#8d8ea3"></path>
  <path data-name="layer1" d="M43 2c-9.7 0-17.7 6.1-18.8 14 6.7.1 13.8 4.5 13.8 14.1v3.3a20.9 20.9 0 0 0 4 .6v8l9.8-9.8c6-2.7 10.2-8 10.2-14.2 0-8.8-8.5-16-19-16zm-6.6 17.4a2 2 0 0 1-2.8 0 2 2 0 0 1 0-2.8 2.1 2.1 0 0 1 2.8 0A2 2 0 0 1 37 18a2 2 0 0 1-.6 1.4zm8 0a2 2 0 1 1-2.8-2.8 2.1 2.1 0 0 1 2.8 0 2 2 0 0 1 0 2.8zm8 0a2 2 0 0 1-2.8 0A2 2 0 0 1 49 18a2 2 0 0 1 .6-1.4 2.1 2.1 0 0 1 2.8 0A2 2 0 0 1 53 18a2 2 0 0 1-.6 1.4z"
  fill="#253858"></path>
</svg>