<svg xmlns="http://www.w3.org/2000/svg" viewBox="0 0 64 64" aria-labelledby="title"
aria-describedby="desc" role="img" xmlns:xlink="http://www.w3.org/1999/xlink"
width="48" height="48">
  <title>Motorcycle Helmet</title>
  <desc>A solid styled icon from Orion Icon Library.</desc>
  <path data-name="layer2"
  d="M38 27.7v7c0 1.3.3 1.3.9 1.3h21.8a39.4 39.4 0 0 0-7.9-16.2l-9.9 2c-4 .7-4.9 4.6-4.9 5.9z"
  fill="#8d8ea3"></path>
  <path data-name="layer2" d="M61.9 44c-.1-1.3-.2-2.7-.4-4H38.9c-3 0-4.9-2-4.9-5.3v-7c0-3.2 2.2-8.7 8-9.9l7.3-1.4a27.2 27.2 0 0 0-18-6.4C8.3 10-1.4 28.9 3.1 44z"
  fill="#8d8ea3"></path>
  <path data-name="layer1" d="M4.6 48a23.9 23.9 0 0 0 4.2 6h52.6a37.2 37.2 0 0 0 .6-6z"
  fill="#253858"></path>
</svg>