<svg xmlns="http://www.w3.org/2000/svg" viewBox="0 0 64 64" aria-labelledby="title"
aria-describedby="desc" role="img" xmlns:xlink="http://www.w3.org/1999/xlink"
width="128" height="128">
  <title>SSD Storage</title>
  <desc>A solid styled icon from Orion Icon Library.</desc>
  <path data-name="layer2"
  d="M60.8 33l-6.2-20A5.1 5.1 0 0 0 50 9H14c-2 0-3.7 1.3-4.6 4L3.2 33z" fill="#8d8ea3"></path>
  <path data-name="layer1" d="M2 53a2 2 0 0 0 2 2h56a2 2 0 0 0 2-2V37H2zm48.6-13.4a2.1 2.1 0 0 1 2.8 0A2 2 0 0 1 54 41a2 2 0 0 1-2 2 2 2 0 0 1-2-2 2 2 0 0 1 .6-1.4zM12 45h40a2 2 0 0 1 0 4H12a2 2 0 0 1 0-4z"
  fill="#253858"></path>
</svg>