<svg xmlns="http://www.w3.org/2000/svg" viewBox="0 0 64 64" aria-labelledby="title"
aria-describedby="desc" role="img" xmlns:xlink="http://www.w3.org/1999/xlink"
width="48" height="48">
  <title>Timekeeping</title>
  <desc>A solid styled icon from Orion Icon Library.</desc>
  <path data-name="layer1"
  d="M32 0a32 32 0 1 0 32 32A32 32 0 0 0 32 0zm2.536 35.492a4.839 4.839 0 0 1-.668.275c-.111.035-.219.076-.333.1-.093.023-.189.038-.284.055a4.459 4.459 0 0 1-5.167-5.244c.018-.095.044-.186.068-.278a4.455 4.455 0 0 1 .149-.479c.043-.112.087-.223.138-.33s.119-.227.183-.337.141-.25.225-.365l.018-.022a4.546 4.546 0 0 1 1.483-1.3l.049-.027a4.538 4.538 0 0 1 .6-.269 4.221 4.221 0 0 1 3 0 4.538 4.538 0 0 1 .6.269l.049.027a4.546 4.546 0 0 1 1.483 1.3l.018.022c.084.116.152.242.225.365s.128.221.183.337.1.218.138.33a4.455 4.455 0 0 1 .149.479c.024.092.05.183.068.278a4.348 4.348 0 0 1-.286 2.6 4.5 4.5 0 0 1-2.088 2.214zM32.5 6A1.5 1.5 0 0 1 34 7.5v17.682a6.284 6.284 0 0 0-3 0V7.5A1.5 1.5 0 0 1 32.5 6zm15.257 36.319a1.5 1.5 0 0 1-2.076.438L36.386 36.7a6.533 6.533 0 0 0 1.934-2.321l9 5.866a1.5 1.5 0 0 1 .437 2.074z"
  fill="#253858"></path>
</svg>