<svg width="119px" height="30px" viewBox="0 0 119 30" version="1.1" xmlns="http://www.w3.org/2000/svg" xmlns:xlink="http://www.w3.org/1999/xlink">
    <!-- Generator: Sketch 47.1 (45422) - http://www.bohemiancoding.com/sketch -->
    <desc>Created with Sketch.</desc>
    <defs></defs>
    <g id="Page-1" stroke="none" stroke-width="1" fill="none" fill-rule="evenodd">
        <g id="Group" fill="#FFFFFF">
            <path d="M40.216,22.24 C38.7439926,22.24 37.5840042,21.7600048 36.736,20.8 C35.8879958,19.8399952 35.464,18.5200084 35.464,16.84 L35.464,10.096 C35.464,9.91999912 35.5199994,9.78000052 35.632,9.676 C35.7440006,9.57199948 35.8799992,9.52 36.04,9.52 L38.2,9.52 C38.3600008,9.52 38.4959994,9.57599944 38.608,9.688 C38.7200006,9.80000056 38.776,9.9359992 38.776,10.096 L38.776,16.696 C38.776,18.6640098 39.6319914,19.648 41.344,19.648 C42.1760042,19.648 42.8359976,19.3840026 43.324,18.856 C43.8120024,18.3279974 44.056,17.6080046 44.056,16.696 L44.056,10.096 C44.056,9.91999912 44.1119994,9.78000052 44.224,9.676 C44.3360006,9.57199948 44.4719992,9.52 44.632,9.52 L46.768,9.52 C46.9440009,9.52 47.0839995,9.57199948 47.188,9.676 C47.2920005,9.78000052 47.344,9.91999912 47.344,10.096 L47.344,21.424 C47.344,21.5840008 47.2920005,21.7199994 47.188,21.832 C47.0839995,21.9440006 46.9440009,22 46.768,22 L44.776,22 C44.6159992,22 44.4800006,21.9440006 44.368,21.832 C44.2559994,21.7199994 44.2,21.5840008 44.2,21.424 L44.2,20.44 C43.3199956,21.640006 41.9920089,22.24 40.216,22.24 Z M51.088,22 C50.9279992,22 50.7920006,21.9440006 50.68,21.832 C50.5679994,21.7199994 50.512,21.5840008 50.512,21.424 L50.512,10.096 C50.512,9.91999912 50.5679994,9.78000052 50.68,9.676 C50.7920006,9.57199948 50.9279992,9.52 51.088,9.52 L53.08,9.52 C53.2560009,9.52 53.3959995,9.57199948 53.5,9.676 C53.6040005,9.78000052 53.656,9.91999912 53.656,10.096 L53.656,11.08 C54.6320049,9.879994 55.9679915,9.28 57.664,9.28 C59.1360074,9.28 60.3039957,9.7599952 61.168,10.72 C62.0320043,11.6800048 62.464,12.9999916 62.464,14.68 L62.464,21.424 C62.464,21.5840008 62.4120005,21.7199994 62.308,21.832 C62.2039995,21.9440006 62.0640009,22 61.888,22 L59.728,22 C59.5679992,22 59.4320006,21.9440006 59.32,21.832 C59.2079994,21.7199994 59.152,21.5840008 59.152,21.424 L59.152,14.824 C59.152,13.8959954 58.9240023,13.1720026 58.468,12.652 C58.0119977,12.1319974 57.3600042,11.872 56.512,11.872 C55.6959959,11.872 55.0400025,12.1359974 54.544,12.664 C54.0479975,13.1920026 53.8,13.9119954 53.8,14.824 L53.8,21.424 C53.8,21.5840008 53.7480005,21.7199994 53.644,21.832 C53.5399995,21.9440006 53.4000009,22 53.224,22 L51.088,22 Z M65.992,7.48 C65.8319992,7.48 65.6960006,7.42400056 65.584,7.312 C65.4719994,7.19999944 65.416,7.0640008 65.416,6.904 L65.416,5.152 C65.416,4.97599912 65.4719994,4.83200056 65.584,4.72 C65.6960006,4.60799944 65.8319992,4.552 65.992,4.552 L68.2,4.552 C68.3760009,4.552 68.5199994,4.60799944 68.632,4.72 C68.7440006,4.83200056 68.8,4.97599912 68.8,5.152 L68.8,6.904 C68.8,7.0640008 68.7400006,7.19999944 68.62,7.312 C68.4999994,7.42400056 68.3600008,7.48 68.2,7.48 L65.992,7.48 Z M66.088,22 C65.9279992,22 65.7920006,21.9440006 65.68,21.832 C65.5679994,21.7199994 65.512,21.5840008 65.512,21.424 L65.512,10.096 C65.512,9.91999912 65.5679994,9.78000052 65.68,9.676 C65.7920006,9.57199948 65.9279992,9.52 66.088,9.52 L68.128,9.52 C68.2880008,9.52 68.4239994,9.57599944 68.536,9.688 C68.6480006,9.80000056 68.704,9.9359992 68.704,10.096 L68.704,21.424 C68.704,21.5840008 68.6480006,21.7199994 68.536,21.832 C68.4239994,21.9440006 68.2880008,22 68.128,22 L66.088,22 Z M72.472,22 C72.3119992,22 72.1760006,21.9440006 72.064,21.832 C71.9519994,21.7199994 71.896,21.5840008 71.896,21.424 L71.896,5.536 C71.896,5.35999912 71.9519994,5.22000052 72.064,5.116 C72.1760006,5.01199948 72.3119992,4.96 72.472,4.96 L74.488,4.96 C74.6640009,4.96 74.8039995,5.01199948 74.908,5.116 C75.0120005,5.22000052 75.064,5.35999912 75.064,5.536 L75.064,21.424 C75.064,21.5840008 75.0120005,21.7199994 74.908,21.832 C74.8039995,21.9440006 74.6640009,22 74.488,22 L72.472,22 Z M83.8,22.24 C81.9119906,22.24 80.4560051,21.7600048 79.432,20.8 C78.4079949,19.8399952 77.8560004,18.5120085 77.776,16.816 L77.752,15.76 L77.776,14.704 C77.8560004,13.0239916 78.4159948,11.7000048 79.456,10.732 C80.4960052,9.76399516 81.9439907,9.28 83.8,9.28 C85.6400092,9.28 87.0799948,9.76399516 88.12,10.732 C89.1600052,11.7000048 89.7199996,13.0239916 89.8,14.704 C89.8160001,14.896001 89.824,15.2479974 89.824,15.76 C89.824,16.2720026 89.8160001,16.623999 89.8,16.816 C89.7199996,18.5120085 89.1680051,19.8399952 88.144,20.8 C87.1199949,21.7600048 85.6720094,22.24 83.8,22.24 Z M83.8,19.816 C84.6480042,19.816 85.2999977,19.5520026 85.756,19.024 C86.2120023,18.4959974 86.4559998,17.7200051 86.488,16.696 C86.5040001,16.5359992 86.512,16.2240023 86.512,15.76 C86.512,15.2959977 86.5040001,14.9840008 86.488,14.824 C86.4559998,13.7999949 86.2080023,13.0200027 85.744,12.484 C85.2799977,11.9479973 84.6320042,11.68 83.8,11.68 C82.9519958,11.68 82.2960023,11.9479973 81.832,12.484 C81.3679977,13.0200027 81.1200002,13.7999949 81.088,14.824 L81.064,15.76 L81.088,16.696 C81.1200002,17.7200051 81.3679977,18.4959974 81.832,19.024 C82.2960023,19.5520026 82.9519958,19.816 83.8,19.816 Z M98.128,27.28 C96.7039929,27.28 95.5520044,27.0440024 94.672,26.572 C93.7919956,26.0999976 93.1680018,25.560003 92.8,24.952 C92.4319982,24.343997 92.248,23.8240022 92.248,23.392 C92.248,23.2319992 92.3039994,23.1000005 92.416,22.996 C92.5280006,22.8919995 92.6639992,22.84 92.824,22.84 L94.96,22.84 C95.1040007,22.84 95.2279995,22.8759996 95.332,22.948 C95.4360005,23.0200004 95.5199997,23.151999 95.584,23.344 C95.7600009,23.7600021 96.0239982,24.1159985 96.376,24.412 C96.7280018,24.7080015 97.2719963,24.856 98.008,24.856 C98.9680048,24.856 99.6719978,24.6440021 100.12,24.22 C100.568002,23.7959979 100.792,23.0560053 100.792,22 L100.792,20.368 C99.9279957,21.3920051 98.7040079,21.904 97.12,21.904 C95.4559917,21.904 94.2040042,21.400005 93.364,20.392 C92.5239958,19.383995 92.0720003,18.0080087 92.008,16.264 L91.984,15.616 L92.008,14.968 C92.0720003,13.2559914 92.5279958,11.8800052 93.376,10.84 C94.2240042,9.7999948 95.4719918,9.28 97.12,9.28 C97.9680042,9.28 98.7119968,9.4399984 99.352,9.76 C99.9920032,10.0800016 100.519998,10.5119973 100.936,11.056 L100.936,10.12 C100.936,9.94399912 100.995999,9.80000056 101.116,9.688 C101.236001,9.57599944 101.375999,9.52 101.536,9.52 L103.504,9.52 C103.664001,9.52 103.799999,9.57599944 103.912,9.688 C104.024001,9.80000056 104.08,9.94399912 104.08,10.12 L104.104,21.688 C104.104,23.4640089 103.608005,24.8399951 102.616,25.816 C101.623995,26.7920049 100.12801,27.28 98.128,27.28 Z M98.032,19.36 C98.9280045,19.36 99.5999978,19.0720029 100.048,18.496 C100.496002,17.9199971 100.744,17.2160042 100.792,16.384 C100.808,16.2559994 100.816,16.0000019 100.816,15.616 C100.816,15.2319981 100.808,14.9760006 100.792,14.848 C100.744,14.0159958 100.496002,13.3120029 100.048,12.736 C99.5999978,12.1599971 98.9280045,11.872 98.032,11.872 C96.3039914,11.872 95.3920005,12.9279894 95.296,15.04 L95.272,15.616 C95.272,18.1120125 96.1919908,19.36 98.032,19.36 Z M112.816,22.24 C110.927991,22.24 109.472005,21.7600048 108.448,20.8 C107.423995,19.8399952 106.872,18.5120085 106.792,16.816 L106.768,15.76 L106.792,14.704 C106.872,13.0239916 107.431995,11.7000048 108.472,10.732 C109.512005,9.76399516 110.959991,9.28 112.816,9.28 C114.656009,9.28 116.095995,9.76399516 117.136,10.732 C118.176005,11.7000048 118.736,13.0239916 118.816,14.704 C118.832,14.896001 118.84,15.2479974 118.84,15.76 C118.84,16.2720026 118.832,16.623999 118.816,16.816 C118.736,18.5120085 118.184005,19.8399952 117.16,20.8 C116.135995,21.7600048 114.688009,22.24 112.816,22.24 Z M112.816,19.816 C113.664004,19.816 114.315998,19.5520026 114.772,19.024 C115.228002,18.4959974 115.472,17.7200051 115.504,16.696 C115.52,16.5359992 115.528,16.2240023 115.528,15.76 C115.528,15.2959977 115.52,14.9840008 115.504,14.824 C115.472,13.7999949 115.224002,13.0200027 114.76,12.484 C114.295998,11.9479973 113.648004,11.68 112.816,11.68 C111.967996,11.68 111.312002,11.9479973 110.848,12.484 C110.383998,13.0200027 110.136,13.7999949 110.104,14.824 L110.08,15.76 L110.104,16.696 C110.136,17.7200051 110.383998,18.4959974 110.848,19.024 C111.312002,19.5520026 111.967996,19.816 112.816,19.816 Z" id="unilogo"></path>
            <path d="M13.2691286,0 C13.9059485,0 14.4254756,0.525486918 14.4254756,1.16930156 C14.4254756,6.49063304 14.4251686,11.8125856 14.4251686,17.1342277 C14.4251686,17.9212158 13.7785231,18.5759004 12.9998465,18.5759004 C12.221784,18.5759004 11.5748314,17.9212158 11.5748314,17.1342277 L11.5748314,2.9560192 C11.5748314,2.94545977 8.69071885,2.93572853 2.92249371,2.92682548 C2.91184934,2.92682548 2.90222847,7.66241917 2.89363109,17.1336065 C2.89363109,30.4692347 23.1060619,30.4689241 23.1060619,17.1336065 L23.1060619,2.9560192 C23.1060619,2.94545977 22.151139,2.93572853 20.2412934,2.92682548 C20.2127378,7.68198517 20.2127378,12.4079511 20.2127378,17.1336065 C20.2127378,26.7650488 5.78756923,26.7650488 5.78756923,17.1336065 L5.78756923,5.88284468 C5.78756923,5.87228525 6.74249206,5.86255401 8.65233771,5.85365096 C8.66277738,5.85365096 8.67239825,9.61384321 8.68120033,17.1342277 C8.68120033,22.9009186 17.3191067,22.9009186 17.3191067,17.1342277 C17.3191067,11.8125856 17.3191067,6.49094361 17.3191067,1.16930156 C17.3191067,0.525486918 17.8383268,0 18.4751467,0 L24.8436529,0 C25.4804729,0 26,0.525486918 26,1.16930156 L26,17.1336065 C26,34.2886425 0,34.2889531 0,17.1336065 L0,1.16930156 C0,0.525486918 0.519220095,0 1.15634706,0 L11.5315375,0 L13.2691286,0 Z" id="Fill-2"></path>
        </g>
    </g>
</svg>