<svg xmlns="http://www.w3.org/2000/svg" viewBox="0 0 64 64" aria-labelledby="title"
aria-describedby="desc" role="img" xmlns:xlink="http://www.w3.org/1999/xlink"
width="64" height="64">
  <title>User Group</title>
  <desc>A line styled icon from Orion Icon Library.</desc>
  <path data-name="layer2"
  d="M27.4 12.2c.9-3.3 3.2-7.4 9-7.4 0 0 16-5.1 16 11.2 0 13.7 3.1 15.2 6.4 18.5A56.6 56.6 0 0 1 46 36v1.6c0 1.6-.3 4.8 7.7 6.4s8.3 8 8.3 8H41"
  fill="none" stroke="#00c4ff" stroke-miterlimit="10" stroke-width="2" stroke-linejoin="round"
  stroke-linecap="round"></path>
  <path data-name="layer1" d="M38.1 51.2c-8-1.1-8-4-8-5.6v-.9a14.6 14.6 0 0 0 4.2-7c2.4 0 3-5.1 3-5.8s-.2-3.6-1.3-3.9c4-14-8-20-18.4-12.8-4.4 0-5.8 6.4-4.2 12.8-1.1 0-1.3 3-1.3 3.8s.6 5.8 3 5.8c.8 2.9 3 5.3 4.9 7v1c0 1.6-.6 4.6-8.7 5.6S2 60 2 60h44s.1-7.7-7.9-8.8z"
  fill="none" stroke="#00c4ff" stroke-miterlimit="10" stroke-width="2" stroke-linejoin="round"
  stroke-linecap="round"></path>
</svg>