<svg width="30px" height="30px" viewBox="0 0 30 30" version="1.1" xmlns="http://www.w3.org/2000/svg" xmlns:xlink="http://www.w3.org/1999/xlink">
    <!-- Generator: Sketch 47.1 (45422) - http://www.bohemiancoding.com/sketch -->
    <desc>Created with Sketch.</desc>
    <defs></defs>
    <g id="Page-1" stroke="none" stroke-width="1" fill="none" fill-rule="evenodd">
        <g id="004-user-1" fill-rule="nonzero">
            <path d="M10.5356604,23.52 L6.06,25.9613208 C5.79735849,26.1045283 5.56132075,26.280566 5.34169811,26.4724528 C7.95113208,28.6726415 11.3196226,30 15,30 C18.6532075,30 22.0001887,28.6924528 24.6022642,26.5222642 C24.3622642,26.3196226 24.1018868,26.1373585 23.8132075,25.9935849 L19.020566,23.5975472 C18.4013208,23.2879245 18.0101887,22.6550943 18.0101887,21.9628302 L18.0101887,20.0824528 C18.1449057,19.9290566 18.2988679,19.7320755 18.4635849,19.499434 C19.1167925,18.5767925 19.6109434,17.5618868 19.9533962,16.4971698 C20.5681132,16.3075472 21.0209434,15.7398113 21.0209434,15.0650943 L21.0209434,13.0579245 C21.0209434,12.6164151 20.8245283,12.2218868 20.519434,11.9456604 L20.519434,9.04415094 C20.519434,9.04415094 21.1154717,4.52886792 15.000566,4.52886792 C8.88566038,4.52886792 9.48169811,9.04415094 9.48169811,9.04415094 L9.48169811,11.9456604 C9.17603774,12.2218868 8.98018868,12.6164151 8.98018868,13.0579245 L8.98018868,15.0650943 C8.98018868,15.5937736 9.25811321,16.0590566 9.67415094,16.3279245 C10.1756604,18.5111321 11.4888679,20.0824528 11.4888679,20.0824528 L11.4888679,21.9164151 C11.4883019,22.5843396 11.1226415,23.1996226 10.5356604,23.52 Z" id="Shape" fill="#FFFFFF"></path>
            <path d="M15.2564151,0.00226415094 C6.97358491,-0.139245283 0.143773585,6.46075472 0.00226415094,14.7435849 C-0.0781132075,19.44 2.01509434,23.6609434 5.34792453,26.4679245 C5.56584906,26.2777358 5.79962264,26.1033962 6.05943396,25.9618868 L10.5350943,23.520566 C11.1220755,23.2001887 11.4877358,22.5849057 11.4877358,21.9158491 L11.4877358,20.0818868 C11.4877358,20.0818868 10.1739623,18.510566 9.67301887,16.3273585 C9.25754717,16.0584906 8.9790566,15.5937736 8.9790566,15.0645283 L8.9790566,13.0573585 C8.9790566,12.6158491 9.1754717,12.2213208 9.48056604,11.9450943 L9.48056604,9.04358491 C9.48056604,9.04358491 8.8845283,4.52830189 14.999434,4.52830189 C21.1143396,4.52830189 20.5183019,9.04358491 20.5183019,9.04358491 L20.5183019,11.9450943 C20.8239623,12.2213208 21.0198113,12.6158491 21.0198113,13.0573585 L21.0198113,15.0645283 C21.0198113,15.7392453 20.5669811,16.3069811 19.9522642,16.4966038 C19.6098113,17.5613208 19.1156604,18.5762264 18.4624528,19.4988679 C18.2977358,19.7315094 18.1437736,19.9284906 18.0090566,20.0818868 L18.0090566,21.9622642 C18.0090566,22.6545283 18.4001887,23.2879245 19.019434,23.5969811 L23.8120755,25.9930189 C24.0996226,26.1367925 24.359434,26.3184906 24.5988679,26.520566 C27.8309434,23.8250943 29.9190566,19.7949057 29.9966038,15.2564151 C30.1392453,6.97358491 23.5398113,0.143773585 15.2564151,0.00226415094 Z" id="Shape" fill="#253858"></path>
        </g>
    </g>
</svg>