<svg xmlns="http://www.w3.org/2000/svg" viewBox="0 0 64 64" aria-labelledby="title"
aria-describedby="desc" role="img" xmlns:xlink="http://www.w3.org/1999/xlink"
width="48" height="48">
  <title>Coins</title>
  <desc>A solid styled icon from Orion Icon Library.</desc>
  <ellipse data-name="layer2"
  cx="20" cy="40.9" rx="18" ry="5.1" fill="#8d8ea3"></ellipse>
  <path data-name="layer2" d="M2 46.7v4c5.3 3 14.4 3.3 18 3.3s12.7-.3 18-3.3v-4c-5.3 3-14.4 3.3-18 3.3s-12.7-.3-18-3.3zm0 8v4c5.3 3 14.4 3.3 18 3.3s12.7-.3 18-3.3v-4c-5.3 3-14.4 3.3-18 3.3s-12.7-.3-18-3.3z"
  fill="#8d8ea3"></path>
  <path data-name="layer1" d="M41.9 40.1a6 6 0 0 1 .1.8 5.6 5.6 0 0 1-1 3.2h3c3.6 0 12.7-.3 18-3.3v-4c-5.3 3-14.4 3.3-18 3.3zm.1 8v2.6a4 4 0 0 1-.3 1.4H44c3.6 0 12.7-.3 18-3.3v-4c-5.3 3-14.4 3.3-18 3.3z"
  fill="#253858"></path>
  <ellipse data-name="layer1" cx="44" cy="7.1" rx="18" ry="5.1" fill="#253858"></ellipse>
  <path data-name="layer1" d="M26 28.9v3.2c4.6.4 10.1 1.4 13.3 3.9l4.7.2c3.6 0 12.7-.3 18-3.3v-4c-5.3 3-14.4 3.3-18 3.3s-12.7-.4-18-3.3zm0-16v4c5.3 3 14.4 3.3 18 3.3s12.7-.3 18-3.3v-4c-5.3 3-14.4 3.3-18 3.3s-12.7-.4-18-3.3zm0 8v4c5.3 3 14.4 3.3 18 3.3s12.7-.3 18-3.3v-4c-5.3 3-14.4 3.3-18 3.3s-12.7-.4-18-3.3z"
  fill="#253858"></path>
</svg>