<svg xmlns="http://www.w3.org/2000/svg" viewBox="0 0 64 64" aria-labelledby="title"
aria-describedby="desc" role="img" xmlns:xlink="http://www.w3.org/1999/xlink"
width="64" height="64">
  <title>Delete User</title>
  <desc>A solid styled icon from Orion Icon Library.</desc>
  <path data-name="layer2"
  d="M36.7 26.9c2.5 0 3-5.1 3-5.8s.1-3.8-2.4-3.8C42.6 4.5 28.4-2.3 17.8 5.1c-4.4 0-4.7 5.9-3.1 12.3-2.5 0-2.4 3-2.4 3.8s.6 5.8 3 5.8a14.6 14.6 0 0 0 4.2 7v1.6c0 1.6 0 4-8.1 5.6S2 50 2 50h28.1a17.8 17.8 0 0 1 3-12.1 3.6 3.6 0 0 1-.6-2.3V34a14.6 14.6 0 0 0 4.2-7.1z"
  fill="#8d8ea3"></path>
  <path data-name="layer1" d="M48 34a14 14 0 1 0 14 14 14 14 0 0 0-14-14zm6.4 17.6a2 2 0 0 1-2.8 2.8L48 50.8l-3.6 3.6a2 2 0 1 1-2.8-2.8l3.6-3.6-3.6-3.6a2 2 0 0 1 2.8-2.8l3.6 3.5 3.6-3.6a2 2 0 1 1 2.8 2.8L50.8 48z"
  fill="#253858"></path>
</svg>