<svg xmlns="http://www.w3.org/2000/svg" viewBox="0 0 64 64" aria-labelledby="title"
aria-describedby="desc" role="img" xmlns:xlink="http://www.w3.org/1999/xlink"
width="48" height="48">
  <title>Diploma</title>
  <desc>A solid styled icon from Orion Icon Library.</desc>
  <path data-name="layer2"
  d="M53.5 20.8l-3.8-3.5 1-5.1-4.9-1.6-1.1-5-5.1.5-3.1-4.2L32 4.5l-4.5-2.6-3.1 4.2-5.1-.5-1.1 5-4.9 1.6 1 5.1-3.8 3.5 3 4.2-2.1 4.7 4.5 2.6v5.2l5.1.6 2.1 4.7 4.9-1.6 4 3.5 3.9-3.4 4.9 1.6 2.1-4.7 5.1-.6v-5.2l4.5-2.6-2-4.8zM32 33.3a10 10 0 1 1 10-10 10 10 0 0 1-10 10z"
  fill="#8d8ea3"></path>
  <path data-name="layer1" d="M27.2 45.8l-2.8.9-1.2.2a4 4 0 0 1-3.6-2.3L18.4 42l-2.4-.4-6 14.8 8.8-1.1 5.5 6.8 5-14.5zm18.4-4l-1.2 2.6a4 4 0 0 1-3.6 2.3l-1.2-.2-2.8-.9-2.1 1.9 5 14.5 5.5-6.8 8.8 1.2-6-14.8z"
  fill="#253858"></path>
</svg>