<svg width="105px" height="30px" viewBox="0 0 105 30" version="1.1" xmlns="http://www.w3.org/2000/svg" xmlns:xlink="http://www.w3.org/1999/xlink">
    <!-- Generator: Sketch 47.1 (45422) - http://www.bohemiancoding.com/sketch -->
    <desc>Created with Sketch.</desc>
    <defs></defs>
    <g id="Page-1" stroke="none" stroke-width="1" fill="none" fill-rule="evenodd">
        <g id="fu-g" fill-rule="nonzero">
            <path d="M39.28,5.34 C36.68,5.34 34.98,7 34.98,9.6 L34.98,10.66 L33.1,10.66 L33.1,13.18 L34.98,13.18 L34.98,21 L37.88,21 L37.88,13.18 L40.28,13.18 L40.28,10.66 L37.88,10.66 L37.88,9.52 C37.88,8.54 38.6,7.88 39.62,7.88 C39.92,7.88 40.12,7.9 40.3,7.92 L40.3,5.4 C40,5.36 39.72,5.34 39.28,5.34 Z M51.2,21 L51.2,10.66 L48.28,10.66 L48.28,16.5 C48.28,17.66 47.64,18.5 46.52,18.5 C45.38,18.5 44.86,17.8 44.86,16.54 L44.86,10.66 L41.94,10.66 L41.94,17.16 C41.94,19.68 43.38,21.22 45.76,21.22 C47.22,21.22 48.04,20.6 48.44,19.96 L48.44,21 L51.2,21 Z M57.62,10.46 C55.02,10.46 53.48,11.74 53.48,13.72 C53.48,15.84 54.94,16.3 57.14,16.86 C58.64,17.22 59.02,17.42 59.02,18.04 C59.02,18.64 58.52,18.98 57.72,18.98 C56.72,18.98 56.26,18.46 56.22,17.7 L53.3,17.86 C53.52,20.02 55.06,21.22 57.7,21.22 C60.4,21.22 61.94,19.88 61.94,17.78 C61.94,15.9 60.48,15.26 58.42,14.72 C57.18,14.4 56.4,14.3 56.4,13.58 C56.4,13.02 56.8,12.7 57.58,12.7 C58.48,12.7 58.86,13.22 58.9,13.96 L61.8,13.8 C61.62,11.88 60.24,10.46 57.62,10.46 Z M67.12,5.46 L64.2,5.46 L64.2,21 L67.12,21 L67.12,15.26 C67.12,14.02 67.88,13.18 69.04,13.18 C70.16,13.18 70.86,13.92 70.86,15.24 L70.86,21 L73.78,21 L73.78,14.68 C73.78,12 72.12,10.46 69.74,10.46 C68.4,10.46 67.56,10.98 67.12,11.54 L67.12,5.46 Z M77.98,5.52 C77.04,5.52 76.24,6.3 76.24,7.28 C76.24,8.24 77,9.02 77.98,9.02 C78.96,9.02 79.74,8.24 79.74,7.28 C79.74,6.3 78.96,5.52 77.98,5.52 Z M79.44,21 L79.44,10.66 L76.52,10.66 L76.52,21 L79.44,21 Z M87.28,10.46 C90.44,10.46 92.78,12.58 92.78,15.84 C92.78,19.08 90.44,21.22 87.28,21.22 C84.12,21.22 81.78,19.08 81.78,15.84 C81.78,12.58 84.12,10.46 87.28,10.46 Z M87.28,12.96 C85.78,12.96 84.74,14.02 84.74,15.84 C84.74,17.64 85.78,18.7 87.28,18.7 C88.78,18.7 89.82,17.64 89.82,15.84 C89.82,14.02 88.78,12.96 87.28,12.96 Z M100.64,10.46 C99.24,10.46 98.32,11 97.86,11.72 L97.86,10.66 L95.1,10.66 L95.1,21 L98.02,21 L98.02,15.26 C98.02,14.02 98.78,13.18 99.94,13.18 C101.06,13.18 101.76,13.92 101.76,15.24 L101.76,21 L104.68,21 L104.68,14.68 C104.68,12 103.02,10.46 100.64,10.46 Z" id="fushion" fill="#222222"></path>
            <g id="Group-2">
                <path d="M12.4043147,25.2094833 L8.30668793,29.2229032 L9.52831569,24.6626201 L9.52738904,24.6623111 L12.6242386,13.1027965 L25.8131852,13.1027965 C25.6087054,19.8400279 20.0831178,25.2416154 13.2979099,25.2416154 C12.9973679,25.2416154 12.6996058,25.2304927 12.4043147,25.2094833 Z M23.4119376,5.33054156 C24.5109393,6.83364303 25.2834528,8.59132941 25.6241495,10.4982446 L13.3216938,10.4982446 C14.1454818,7.42283409 15.6024775,4.36997785 19.0974758,3.60931273 C20.634163,3.27501555 22.210696,3.68778915 23.4119376,5.33054156 L23.4119376,5.33054156 Z" id="Fill-3" fill="#1975D2"></path>
                <path d="M13.2979099,0.190645161 C15.1011622,0.190645161 16.8151477,0.572831495 18.3641902,1.25934567 C12.5658599,1.45522775 9.40599847,6.02632461 7.53386551,10.4982446 L4.25446679,10.4982446 L3.55670266,13.1027965 L6.71069535,13.1027965 L4.44226696,21.5705256 C2.17692739,19.3039784 0.776148148,16.1732636 0.776148148,12.7159758 C0.776148148,5.79985526 6.38328058,0.190645161 13.2979099,0.190645161" id="Fill-4" fill="#222222"></path>
            </g>
        </g>
    </g>
</svg>