<svg xmlns="http://www.w3.org/2000/svg" viewBox="0 0 64 64" aria-labelledby="title"
aria-describedby="desc" role="img" xmlns:xlink="http://www.w3.org/1999/xlink"
width="48" height="48">
  <title>Invoice</title>
  <desc>A solid styled icon from Orion Icon Library.</desc>
  <path data-name="layer1"
  d="M46.9 2L41 6l-6-4-6 4-6-4-6 4-6-4v54l6.1 6 6-4 6 4 6-4 6 4 6-4 6 4V8zM31 46H19a2 2 0 0 1 0-4h12a2 2 0 0 1 0 4zm4-8H19a2 2 0 0 1 0-4h16a2 2 0 0 1 0 4zM17 28a2 2 0 0 1 2-2h12a2 2 0 0 1 0 4H19a2 2 0 0 1-2-2zm18-6H19a2 2 0 0 1 0-4h16a2 2 0 0 1 0 4zm10 24h-2a2 2 0 0 1 0-4h2a2 2 0 0 1 0 4zm0-8h-2a2 2 0 0 1 0-4h2a2 2 0 0 1 0 4zm0-8h-2a2 2 0 0 1 0-4h2a2 2 0 0 1 0 4zm0-8h-2a2 2 0 0 1 0-4h2a2 2 0 0 1 0 4z"
  fill="#253858"></path>
</svg>