<svg width="126px" height="30px" viewBox="0 0 126 30" version="1.1" xmlns="http://www.w3.org/2000/svg" xmlns:xlink="http://www.w3.org/1999/xlink">
    <!-- Generator: Sketch 47.1 (45422) - http://www.bohemiancoding.com/sketch -->
    <desc>Created with Sketch.</desc>
    <defs></defs>
    <g id="Page-1" stroke="none" stroke-width="1" fill="none" fill-rule="evenodd">
        <g id="j-g" fill-rule="nonzero">
            <path d="M43.04,9.272 L41.048,25.496 L44.984,25.496 L47,9.272 L43.04,9.272 Z M43.28,4.808 C43.28,6.008 44.24,6.968 45.44,6.968 C46.64,6.968 47.6,6.008 47.6,4.808 C47.6,3.608 46.64,2.648 45.44,2.648 C44.24,2.648 43.28,3.608 43.28,4.808 Z M57.56,9.272 L61.52,9.272 L60.2,20 L56.24,20 L56.528,18.824 C55.304,19.928 54.368,20.312 52.88,20.312 C50.168,20.312 48.416,18.344 48.416,15.248 C48.416,11.624 50.816,8.96 54.056,8.96 C55.568,8.96 56.384,9.32 57.536,10.496 L57.56,9.272 Z M54.608,17.216 C56.048,17.216 57.104,15.992 57.104,14.312 C57.104,12.944 56.288,12.08 54.992,12.08 C53.552,12.08 52.448,13.328 52.448,14.96 C52.448,16.328 53.288,17.216 54.608,17.216 Z M64.4,9.272 L68.36,9.272 L68.048,10.736 C69.272,9.632 70.112,9.272 71.624,9.272 C71.792,9.272 72.056,9.296 72.392,9.32 L71.96,12.968 C71.336,12.632 70.856,12.488 70.16,12.488 C68.528,12.488 67.88,13.256 67.592,15.44 L67.04,20 L63.08,20 L64.4,9.272 Z M81.944,9.272 L85.88,9.272 L84.704,18.68 C84.368,21.56 83.888,22.976 82.904,23.984 C81.848,25.016 80.312,25.496 78.128,25.496 C76.208,25.496 74.864,25.088 73.904,24.2 C72.992,23.384 72.608,22.568 72.344,21.2 L76.112,21.2 C76.256,21.92 76.976,22.424 78.128,22.424 C79.616,22.424 80.36,21.704 80.576,19.904 L80.696,18.896 C79.544,19.976 78.8,20.312 77.552,20.312 C74.648,20.312 72.824,18.248 72.824,14.984 C72.824,11.456 75.056,8.96 78.224,8.96 C79.76,8.96 80.768,9.464 81.872,10.832 L81.944,9.272 Z M79.016,17.192 C80.408,17.192 81.32,16.064 81.32,14.336 C81.32,12.944 80.528,12.08 79.232,12.08 C77.84,12.08 76.856,13.208 76.856,14.816 C76.856,16.256 77.72,17.192 79.016,17.192 Z M96.248,9.272 L95.552,14.864 C95.36,16.424 94.808,17.024 93.56,17.024 C92.528,17.024 91.952,16.544 91.952,15.632 C91.952,15.44 92,15.032 92.072,14.384 L92.696,9.272 L88.76,9.272 L88.088,14.624 C88.016,15.224 87.992,15.704 87.992,16.088 C87.992,18.8 89.936,20.312 93.368,20.312 C95.312,20.312 96.92,19.856 97.904,19.016 C98.792,18.272 99.224,17.168 99.512,14.936 L100.184,9.272 L96.248,9.272 Z M110.936,9.272 L114.896,9.272 L113.576,20 L109.616,20 L109.904,18.824 C108.68,19.928 107.744,20.312 106.256,20.312 C103.544,20.312 101.792,18.344 101.792,15.248 C101.792,11.624 104.192,8.96 107.432,8.96 C108.944,8.96 109.76,9.32 110.912,10.496 L110.936,9.272 Z M107.984,17.216 C109.424,17.216 110.48,15.992 110.48,14.312 C110.48,12.944 109.664,12.08 108.368,12.08 C106.928,12.08 105.824,13.328 105.824,14.96 C105.824,16.328 106.664,17.216 107.984,17.216 Z M117.776,9.272 L116.456,20 L120.416,20 L120.968,15.44 C121.256,13.256 121.904,12.488 123.536,12.488 C124.232,12.488 124.712,12.632 125.336,12.968 L125.768,9.32 C125.432,9.296 125.168,9.272 125,9.272 C123.488,9.272 122.648,9.632 121.424,10.736 L121.736,9.272 L117.776,9.272 Z" id="jarguar" fill="#000000"></path>
            <g id="Group-2">
                <path d="M30.8486529,16.135795 C29.7280791,20.1807253 27.0095291,25.2833263 22.7427619,27.9355419 C21.9326846,28.4388255 20.8547614,28.8410505 19.7233829,29.0322581 C17.2877486,29.0044095 16.2243266,28.4330836 15.2564421,27.4802038 C14.0818442,26.3237711 13.7787405,24.1980941 13.8998683,21.8645578 C15.0841336,20.4115525 15.7523265,18.4173665 16.5316954,15.6348082 C17.7370017,11.3312022 18.4148621,8.47055311 19.5468093,4.24733469 L16.7389774,4.24733469 L16.4498062,5.28806662 C16.3673484,5.58435224 16.10917,5.78187598 15.8043603,5.78187598 L10.393988,5.78187598 C10.1784602,5.78187598 9.9930722,5.68943028 9.86199266,5.516597 C9.73091311,5.34405083 9.69082153,5.13934962 9.746836,4.92919354 C10.141212,3.45235904 10.5384314,1.97581164 10.9362194,0.498977132 C11.0164026,0.200394728 11.276287,0 11.5828027,0 L34.3283742,0 C34.5441863,0 34.7295743,0.0924457057 34.8606538,0.26556608 C34.9917334,0.438399356 35.0315406,0.64338766 34.9749574,0.853543736 C33.6072945,5.94437372 32.2632315,11.030323 30.8486529,16.135795" id="Fill-2" fill="#0057A9"></path>
                <path d="M17.5,30 C4.48349324,30 -2.68250616,27.5559623 0.934815618,13.0918259 C1.01077431,12.787078 1.27072184,12.5806452 1.57765123,12.5806452 L13.1458789,12.5806452 C13.3622205,12.5806452 13.5478973,12.6760771 13.6773084,12.8536785 C13.8067195,13.0312799 13.8430109,13.2414608 13.7811186,13.4539482 C11.4494681,21.478015 10.7481161,30 17.5,30" id="Fill-3" fill="#CF142A"></path>
            </g>
        </g>
    </g>
</svg>