<svg width="127px" height="29px" viewBox="0 0 127 29" version="1.1" xmlns="http://www.w3.org/2000/svg" xmlns:xlink="http://www.w3.org/1999/xlink">
    <!-- Generator: Sketch 47.1 (45422) - http://www.bohemiancoding.com/sketch -->
    <desc>Created with Sketch.</desc>
    <defs></defs>
    <g id="Page-1" stroke="none" stroke-width="1" fill="none" fill-rule="evenodd">
        <g id="Group" transform="translate(0.000000, -1.000000)" fill="#A9B5C0">
            <path d="M42.98,10.46 C41.58,10.46 40.66,11 40.2,11.72 L40.2,10.66 L37.44,10.66 L37.44,21 L40.36,21 L40.36,15.26 C40.36,14.02 41.12,13.18 42.28,13.18 C43.4,13.18 44.1,13.92 44.1,15.24 L44.1,21 L47.02,21 L47.02,14.68 C47.02,12 45.36,10.46 42.98,10.46 Z M53.84,10.46 C56.62,10.46 58.14,11.9 58.14,14.62 L58.14,21 L55.32,21 L55.32,20.16 C54.74,20.76 53.86,21.22 52.68,21.22 C50.6,21.22 49.24,20.16 49.24,18.16 C49.24,15.86 51.18,15.12 53.38,15.02 L55.22,14.92 L55.22,14.52 C55.22,13.48 54.78,12.92 53.88,12.92 C52.88,12.92 52.44,13.6 52.44,14.28 L49.52,14.16 C49.52,12.34 51.18,10.46 53.84,10.46 Z M55.22,16.84 L53.66,16.94 C52.78,16.98 52.16,17.28 52.16,18.02 C52.16,18.7 52.66,18.96 53.36,18.96 C54.42,18.96 55.22,18.38 55.22,17.28 L55.22,16.84 Z M66.48,10.46 C65.08,10.46 64.16,11 63.7,11.72 L63.7,10.66 L60.94,10.66 L60.94,21 L63.86,21 L63.86,15.26 C63.86,14.02 64.62,13.18 65.78,13.18 C66.9,13.18 67.6,13.92 67.6,15.24 L67.6,21 L70.52,21 L70.52,14.68 C70.52,12 68.86,10.46 66.48,10.46 Z M78.24,10.46 C81.4,10.46 83.74,12.58 83.74,15.84 C83.74,19.08 81.4,21.22 78.24,21.22 C75.08,21.22 72.74,19.08 72.74,15.84 C72.74,12.58 75.08,10.46 78.24,10.46 Z M78.24,12.96 C76.74,12.96 75.7,14.02 75.7,15.84 C75.7,17.64 76.74,18.7 78.24,18.7 C79.74,18.7 80.78,17.64 80.78,15.84 C80.78,14.02 79.74,12.96 78.24,12.96 Z M90.8,10.46 C87.74,10.46 85.5,12.44 85.5,15.84 C85.5,19.22 87.76,21.22 90.8,21.22 C93.34,21.22 95.3,19.72 95.7,17.28 L92.86,17.02 C92.7,18.06 91.94,18.7 90.8,18.7 C89.44,18.7 88.46,17.66 88.46,15.84 C88.46,14 89.44,12.96 90.8,12.96 C91.92,12.96 92.7,13.64 92.84,14.7 L95.7,14.46 C95.32,11.96 93.32,10.46 90.8,10.46 Z M101.94,10.46 C104.72,10.46 106.24,11.9 106.24,14.62 L106.24,21 L103.42,21 L103.42,20.16 C102.84,20.76 101.96,21.22 100.78,21.22 C98.7,21.22 97.34,20.16 97.34,18.16 C97.34,15.86 99.28,15.12 101.48,15.02 L103.32,14.92 L103.32,14.52 C103.32,13.48 102.88,12.92 101.98,12.92 C100.98,12.92 100.54,13.6 100.54,14.28 L97.62,14.16 C97.62,12.34 99.28,10.46 101.94,10.46 Z M103.32,16.84 L101.76,16.94 C100.88,16.98 100.26,17.28 100.26,18.02 C100.26,18.7 100.76,18.96 101.46,18.96 C102.52,18.96 103.32,18.38 103.32,17.28 L103.32,16.84 Z M114.7,10.56 C113.12,10.56 112.3,11.16 111.86,11.84 L111.86,10.66 L109.04,10.66 L109.04,21 L111.96,21 L111.96,15.76 C111.96,14.34 113.02,13.38 114.7,13.38 L114.7,10.56 Z M126.2,16.76 L119.1,16.76 C119.16,18.04 119.94,18.86 121.26,18.86 C122.28,18.86 122.94,18.44 123.16,17.72 L126.1,17.86 C125.74,19.82 123.76,21.22 121.34,21.22 C118.18,21.22 116,19.16 116,15.84 C116,12.5 118.18,10.46 121.26,10.46 C124.24,10.46 126.2,12.38 126.2,15.6 L126.2,16.76 Z M121.24,12.74 C120,12.74 119.18,13.5 119.1,14.82 L123.26,14.82 C123.2,13.56 122.56,12.74 121.24,12.74 Z" id="nanocare"></path>
            <g id="Group-3">
                <path d="M19.05,28.51 C17.7455556,28.9077778 16.36,29.1233333 14.9255556,29.1233333 C7.14333333,29.1233333 0.831111111,22.8111111 0.831111111,15.0277778 C0.831111111,14.1422222 0.913333333,13.2744444 1.07,12.4344444 C1.07666667,12.4022222 1.10555556,12.38 1.13888889,12.3833333 C1.17111111,12.3866667 1.19444444,12.4133333 1.19555556,12.4455556 C1.20333333,13.1755556 1.43666667,13.6344444 1.93,13.5633333 C2.72333333,13.4788889 3.61777778,12.6044444 4.22444444,11.3633333 C4.47,10.86 4.91777778,10.5433333 5.47444444,10.4777778 C6.49555556,10.3588889 6.85111111,10.3288889 8.51222222,10.1911111 C8.53666667,10.1888889 8.55777778,10.2 8.57111111,10.22 C8.58444444,10.24 8.58444444,10.2644444 8.57222222,10.2855556 C7.57777778,12.0211111 7.4,12.3333333 6.71666667,13.6422222 C6.45333333,14.1477778 5.98333333,14.4555556 5.41333333,14.4955556 C4.29111111,14.5755556 3.27888889,15.3144444 2.89444444,16.5744444 C2.36333333,18.3222222 3.15555556,20.6522222 4.57888889,21.9822222 C6.25777778,23.2966667 8.38,23.1055556 9.31666667,21.3211111 C10.0466667,19.9644444 9.91888889,18.2188889 9.11111111,16.8088889 C8.82777778,16.3133333 8.82111111,15.7522222 9.09444444,15.2511111 C9.86444444,13.8355556 10.0344444,13.5377778 11.0955556,11.6877778 C11.1066667,11.6677778 11.1266667,11.6555556 11.15,11.6555556 C11.1733333,11.6566667 11.1933333,11.6677778 11.2044444,11.6888889 C12.2388889,13.5166667 12.4055556,13.8122222 13.2388889,15.2633333 C13.53,15.77 13.5288889,16.3488889 13.2377778,16.8555556 C12.42,18.2788889 12.3755556,20.0622222 13.2944444,21.4988889 C14.1722222,22.87 15.7455556,23.5588889 17.3355556,23.4866667 C17.9288889,23.46 18.4522222,23.7366667 18.7666667,24.2422222 L19.9411111,26.1388889 C20.2111111,26.5744444 20.2588889,27.0633333 20.0788889,27.5433333 C19.8988889,28.0233333 19.54,28.3588889 19.05,28.51 Z M3.40777778,6.90333333 C3.93222222,6.16111111 4.52777778,5.47111111 5.18333333,4.84333333 C5.20111111,4.82666667 5.22333333,4.82222222 5.24666667,4.83 C5.26888889,4.83666667 5.28444444,4.85444444 5.28888889,4.87777778 C5.29,4.88333333 5.29111111,4.89 5.29333333,4.89555556 C5.35222222,5.11222222 5.72111111,5.16444444 6.29111111,5.03555556 C7.01777778,4.87111111 7.74,5.21111111 8.07444444,5.87666667 C8.24333333,6.21666667 8.43888889,6.59333333 8.82111111,7.33444444 C8.83111111,7.35333333 8.83111111,7.37444444 8.82111111,7.39222222 C8.81222222,7.41111111 8.79444444,7.42333333 8.77444444,7.42555556 C7.44666667,7.60444444 6.98111111,7.66777778 6.31222222,7.79333333 C5.66888889,7.91333333 5.05222222,7.65333333 4.68888889,7.10888889 C4.43,6.72 3.97777778,6.63555556 3.49666667,6.99111111 C3.47222222,7.01 3.43666667,7.00777778 3.41555556,6.98555556 C3.39222222,6.96333333 3.39,6.92888889 3.40777778,6.90333333 L3.40777778,6.90333333 Z" id="Fill-4"></path>
                <path d="M29.0222222,15.0277778 C29.0222222,19.0555556 27.3311111,22.6888889 24.6211111,25.2577778 C24.2477778,25.6111111 23.7766667,25.7577778 23.2688889,25.6766667 C22.7611111,25.5944444 22.3588889,25.3088889 22.1144444,24.8577778 L21.0633333,22.9077778 C20.7811111,22.3844444 20.8011111,21.7944444 21.12,21.2922222 C21.97,19.9522222 22.1633333,18.2444444 21.4177778,16.8022222 C20.6344444,15.2877778 19.07,14.4377778 17.4311111,14.4355556 C16.8466667,14.4344444 16.3455556,14.1455556 16.0522222,13.64 C15.2111111,12.1922222 15.0388889,11.9 13.9655556,10.0933333 C13.9533333,10.0733333 13.9533333,10.0511111 13.9644444,10.03 C13.9766667,10.01 13.9966667,9.99888889 14.02,9.99888889 C16.1544444,10.0044444 16.4988889,10.0055556 18.1066667,10.0466667 C18.6766667,10.0622222 19.1588889,10.3477778 19.4455556,10.8411111 C20.2644444,12.2466667 21.71,13.2144444 23.2411111,13.2711111 C25.2477778,13.3444444 26.4633333,11.6333333 26.1611111,9.52888889 C25.7122222,7.63 24.0811111,5.83888889 22.3277778,5.36333333 C21.04,5.12222222 19.9133333,5.56444444 19.2888889,6.49 C18.9677778,6.96333333 18.4655556,7.21555556 17.8955556,7.19111111 C16.4288889,7.12777778 16.0666667,7.12444444 14.0633333,7.11666667 C14.04,7.11666667 14.0188889,7.10333333 14.0077778,7.08222222 C13.9966667,7.06 13.9977778,7.03666667 14.0122222,7.01666667 C14.9644444,5.65111111 15.17,5.35888889 15.7833333,4.54111111 C16.12,4.09333333 16.6177778,3.86555556 17.1755556,3.90555556 C18.5488889,4.00333333 19.7288889,3.66 20.2055556,3.03222222 C20.4955556,2.65 20.2366667,2.23555556 19.6455556,1.87666667 C19.6177778,1.85777778 19.6066667,1.82111111 19.6233333,1.79222222 C19.6377778,1.76444444 19.67,1.75222222 19.7,1.76222222 C25.1344444,3.71888889 29.0222222,8.92 29.0222222,15.0277778 Z M11.03,1.47888889 C11.9244444,1.22222222 12.8566667,1.05111111 13.8144444,0.975555556 C13.8455556,0.973333333 13.8744444,0.994444444 13.8811111,1.02666667 C13.8866667,1.05777778 13.8688889,1.09 13.8377778,1.09888889 C13.3211111,1.26 12.9288889,1.57222222 13.2311111,2.18 C13.5233333,2.76555556 13.4422222,3.43222222 13.0166667,3.93 C12.5822222,4.44 12.2933333,4.81333333 11.4788889,5.86555556 C11.4666667,5.88222222 11.4477778,5.89 11.4266667,5.89 C11.4055556,5.88777778 11.3877778,5.87777778 11.3766667,5.86 C10.9277778,5.16 10.6977778,4.80333333 10.4888889,4.48666667 C10.0788889,3.86444444 10.1433333,3.07 10.6488889,2.52333333 C10.7933333,2.36555556 11.2055556,1.74555556 11.0088889,1.58888889 C10.99,1.57444444 10.9811111,1.55111111 10.9855556,1.52666667 C10.9911111,1.50222222 11.0066667,1.48555556 11.03,1.47888889 L11.03,1.47888889 Z" id="Fill-5"></path>
            </g>
        </g>
    </g>
</svg>