<svg xmlns="http://www.w3.org/2000/svg" viewBox="0 0 64 64" aria-labelledby="title"
aria-describedby="desc" role="img" xmlns:xlink="http://www.w3.org/1999/xlink"
width="256" height="256">
  <title>Refresh Database</title>
  <desc>A line styled icon from Orion Icon Library.</desc>
  <ellipse data-name="layer2"
  cx="25" cy="11" rx="23" ry="8" fill="none" stroke="#8d8ea3" stroke-linecap="round"
  stroke-linejoin="round" stroke-width="1"></ellipse>
  <path data-name="layer2" fill="none" stroke="#8d8ea3" stroke-linecap="round"
  stroke-linejoin="round" stroke-width="1" d="M48 37V11m0 12c0 4.4-10.3 8-23 8S2 27.4 2 23m22 20c-12.7 0-22-3.6-22-8"></path>
  <path data-name="layer2" d="M33.9 54.4a77.5 77.5 0 0 1-8.9.6c-12.7 0-23-3.6-23-8V11"
  fill="none" stroke="#8d8ea3" stroke-linecap="round" stroke-linejoin="round"
  stroke-width="1"></path>
  <path data-name="layer1" fill="none" stroke="#0e2b5c" stroke-linecap="round"
  stroke-linejoin="round" stroke-width="1" d="M52.4 49l4.8 4.8L62 49m-24 0l-4.8-4.8-4.8 4.8"></path>
  <path data-name="layer1" d="M50.9 59.6a11.8 11.8 0 0 1-14.1-2.1A12.1 12.1 0 0 1 34 45m5.6-6.6a11.8 11.8 0 0 1 14.1 2.1A12.1 12.1 0 0 1 56.4 53"
  fill="none" stroke="#0e2b5c" stroke-linecap="round" stroke-linejoin="round"
  stroke-width="1"></path>
</svg>