<svg viewBox="0 0 64 64" xmlns="http://www.w3.org/2000/svg" aria-labelledby="title"
aria-describedby="desc" role="img" xmlns:xlink="http://www.w3.org/1999/xlink"
width="64" height="64">
  <title>Settings Server</title>
  <desc>A line styled icon from Orion Icon Library.</desc>
  <path stroke-width="1"
  stroke-linejoin="round" stroke-linecap="round" stroke="#28759d" fill="none"
  d="M58.6 49.1a11.8 11.8 0 0 0 .2-2.1 11.9 11.9 0 0 0-.2-2.3l3.1-1.7-4-6.9-3 1.8a18.2 18.2 0 0 0-3.7-2.2V32h-8v3.7a7.8 7.8 0 0 0-3.8 2.1L36.1 36 32 43l3 1.7a11.7 11.7 0 0 0-.2 2.3 11.9 11.9 0 0 0 .2 2.1L31.7 51l4 6.9 3.4-1.9a8.3 8.3 0 0 0 3.9 2.3V62h8v-3.7a19.2 19.2 0 0 0 3.8-2.3l3.2 2 4-7zM46.8 52a5 5 0 1 1 5-5 5 5 0 0 1-5 5z"
  data-name="layer2"></path>
  <path stroke-width="1" stroke-linejoin="round" stroke-linecap="round"
  stroke="#24ccfd" fill="none" d="M33.5 50H4a2 2 0 0 1-2-2V4a2 2 0 0 1 2-2h48a2 2 0 0 1 2 2v33.4M46 26H30m16-16H30"
  data-name="layer1"></path>
  <circle stroke-width="1" stroke-linejoin="round" stroke-linecap="round"
  stroke="#24ccfd" fill="none" r="1" cy="10" cx="11" data-name="layer1"></circle>
  <circle stroke-width="1" stroke-linejoin="round" stroke-linecap="round"
  stroke="#24ccfd" fill="none" r="1" cy="26" cx="11" data-name="layer1"></circle>
  <circle stroke-width="1" stroke-linejoin="round" stroke-linecap="round"
  stroke="#24ccfd" fill="none" r="1" cy="42" cx="11" data-name="layer1"></circle>
  <path d="M54 18H2m41 16H2" stroke-width="1" stroke-linejoin="round"
  stroke-linecap="round" stroke="#24ccfd" fill="none" data-name="layer1"></path>
</svg>