<svg viewBox="0 0 64 64" xmlns="http://www.w3.org/2000/svg" aria-labelledby="title"
aria-describedby="desc" role="img" xmlns:xlink="http://www.w3.org/1999/xlink"
width="48" height="48">
  <title>World Map</title>
  <desc>A solid styled icon from Orion Icon Library.</desc>
  <path fill="#8d8ea3"
  d="M51 1.993a10 10 0 0 0-10 10c0 9 10 20 10 20s10-11 10-20a10 10 0 0 0-10-10zm0 12a2 2 0 1 1 2-2.001 2 2 0 0 1-2 2z"
  data-name="layer2"></path>
  <path fill="#253858" d="M54.88 33.626c.072.785.121 1.578.121 2.381a26.044 26.044 0 1 1-17.967-24.715 7.965 7.965 0 0 0-.01 1.541c-4.806 2.067-8.021 2.649-8.021 5.84 0 3.599 5.2 1.462 5.2 5.201 0 4.971-3.99 6.322-6.934 4.359-2.942-1.962-6.887-2.993-10.356 1.846-3.465 4.84-1.156 10.41 1.328 10.344 2.485-.064 4.75-2.413 5.82.525.89 2.43 1.338 2.962 2.45 3.616 1.113.654 1.152 1.941.76 3.576s1.765 6.935 3.466 6.935 3.27-.719 3.465-3.466c.195-2.748 2.295-2.899 3.277-3.684.981-.784-.746-3.71 1.137-5.61 1.885-1.896 5.723-5.423 2.453-6.308-3.271-.88-3.007-1.536-3.468-2.908-.457-1.375-1.764-2.813.851-2.879a11.22 11.22 0 0 0 5.096-1.28 56.763 56.763 0 0 0 4.491 5.743L51 37.94s2.419-2.532 3.882-4.313z"
  data-name="layer1"></path>
</svg>