<svg width="925px" height="443px" viewBox="0 0 925 443" version="1.1" xmlns="http://www.w3.org/2000/svg" xmlns:xlink="http://www.w3.org/1999/xlink">
    <!-- Generator: Sketch 47.1 (45422) - http://www.bohemiancoding.com/sketch -->
    <desc>Created with Sketch.</desc>
    <defs></defs>
    <g id="Page-1" stroke="none" stroke-width="1" fill="none" fill-rule="evenodd" opacity="0.2">
        <g id="map" fill-rule="nonzero" fill="#A6ADB2">
            <path d="M6.7,113.5 C4.1,113.3 1.4,113.5 1,114.5 C0.5,115.5 3.4,116.3 5.2,116.3 C7,116.3 10.5,115 9.8,114.8 C9.1,114.5 6.7,113.5 6.7,113.5 Z M366.3,294.4 C366.2,293.3 365.8,292.2 365.2,291.2 L365.8,291.2 C364.9,289.6 363.5,288.2 362.6,287.7 C361.6,287.2 359.7,286.9 358.2,286.1 L357.3,286.1 C356.8,285.8 356.3,285.4 356,284.9 C355.5,284.1 354.7,283.4 353.8,282.7 L354.5,282.7 C352.9,281.5 350.9,280.6 350,281 C348.7,281.5 346.5,282 344.7,280.8 C343.3,279.8 341.2,278.6 339.9,277.7 L339.1,277.7 C338.9,277.5 338.7,277.4 338.6,277.2 C337.5,276.2 334.6,275.4 333.3,275.4 C332,275.4 332.2,274.4 330.2,277.5 C329,279.3 329.3,280.4 328.9,280.9 C328.6,281 328,281 327.1,280.8 C325.5,280.5 325.5,280.4 326.1,280 C326.3,279.9 326.5,279.7 326.7,279.6 C327.4,279.2 328.3,278.6 329,277.7 L328.8,277.7 C328.9,277.5 329,277.4 329.1,277.2 C329.9,276 330,275 329.8,274.3 L330.3,274.3 C330,273 328.6,272.3 327.1,272.8 C326.7,272.9 326.5,273.1 326.3,273.3 C324.7,274.1 325.8,275.5 322.5,276.2 C319.6,276.8 319.1,275.2 320.3,274.3 L320.4,274.3 C320.5,274.2 320.6,274.2 320.6,274.1 C320.8,274 321,273.9 321.1,273.9 C322.3,273.6 324.1,272.8 325.3,272 C326.6,271.2 327.7,270.3 327.7,269.8 L327.7,269.2 L327.2,269.2 C327,267.9 326.5,266.1 325.1,266.1 C324.7,266.1 324.5,266 324.2,265.7 L325,265.7 C323.9,265.3 323.8,263.3 322,260.6 L321.4,260.6 C321.3,260.4 321.2,260.3 321,260.1 C320.3,259.1 319.4,258.1 318.5,257.2 L319.2,257.2 C316.9,254.8 314.4,252.9 312.4,253.2 C309.8,253.7 308.3,256.2 306.9,253.4 C306.7,252.9 306.4,252.5 306.1,252.1 L305.6,252.1 C304.5,250.6 303.4,250 302.8,248.8 L302.7,248.7 L303.3,248.7 C303.3,248.6 303.2,248.6 303.2,248.5 C302.3,247 300.1,248.5 299.4,247.7 L298.7,246.9 C298.7,246.9 295.8,247.7 297.4,245.4 C297.8,244.9 298.1,244.2 298.3,243.6 L298,243.6 C298.4,242.3 298.7,241.1 298.7,240.2 L299.1,240.2 C299.2,239.4 299.1,238.9 298.9,239 C298.8,239 298.7,239.2 298.6,239.3 L298.5,239.2 C297.8,239.5 296.7,243.1 295.7,242.8 C294.6,242.6 295.5,242 293.3,240.5 C293.1,240.3 292.8,240.3 292.6,240.2 L293.5,240.2 C292,239.3 290,239.5 288.8,240.2 L289,240.2 C288.1,240.5 287.5,241 287.5,241.6 C287.5,242.5 287,243.2 286.7,243.6 L286.2,243.6 C286,243.3 285.5,242.6 285.1,241.6 C284.4,240 281.4,239.8 279.8,241.3 C279.1,242 278.5,241.2 278,240.2 L278.5,240.2 C277.8,239 277.3,237.2 276.6,237.2 C276.1,237.2 275.4,237.5 274.6,238.1 C273.6,238.7 272.5,239.7 271.8,241.1 C270.9,242.9 271,245.4 270.7,246.2 C270.3,246 270,244.9 269.9,243.6 L269.4,243.6 C269.3,242.3 269.3,241 269.4,240.3 L269.4,240.2 L269.8,240.2 L269.8,240 C270,238.5 272.5,235.9 270.7,235.4 C269.9,235.2 269,235.6 268.1,236.2 C267.2,236.8 266.3,237.6 265.6,238 C265.4,238.1 265.3,238.2 265.2,238.2 C264.9,238.3 264.4,238.5 263.9,238.9 C262.8,239.6 261.2,241 260.1,242.6 C258.9,244.5 258.2,245.7 257.1,246.5 C255.8,247.2 254,246.4 254.4,245.7 C254.6,245.3 253.5,244.3 252.4,243.6 L251.5,243.6 C250.6,243.2 249.9,243 249.6,243.4 C249.5,243.6 249.2,243.8 249,244 C248.1,244.6 246.8,245.2 245.4,245.9 C243.5,246.9 241.7,244.6 241.2,243.6 L240.6,243.6 C240.2,242.9 239.6,242.4 239.4,240.2 L239.8,240.2 C239.8,239.9 239.7,239.4 239.7,239 C239.6,237.7 239.7,236.4 239.8,235.1 L239.4,235.1 C239.6,233.8 239.8,232.7 240,231.7 L240.3,231.7 C240.5,231 240.6,230.5 240.8,230 C241.1,229.1 240.4,227.8 239.6,226.6 L239,226.6 C237.9,225.2 236.4,224.2 235.6,224.3 C234,224.6 232.5,226.4 231,226.1 C229.4,225.9 230.1,225.3 227.7,225.3 C225.6,225.3 226.9,224.9 227.5,223.2 L227.8,223.2 C227.9,222.9 228,222.6 228.1,222.2 C228.3,220.9 228.1,219.5 228.1,218.1 L227.7,218.1 C227.8,217 228.1,215.9 229.2,215 L229.5,214.7 L229.7,214.7 C231.1,213.4 231.3,211.2 231,209.6 L230.5,209.6 C230.2,208.6 229.8,207.9 229.2,207.8 C227.6,207.5 224.8,208.6 222.8,208.3 C220.8,208.1 219.3,210.1 219.9,212.4 C220.6,214.7 218.8,216.3 218.1,216 C217.4,215.7 216.5,214.4 214.1,216.5 C211.7,218.6 210.8,217.8 208.3,215.5 C208,215.2 207.8,214.9 207.4,214.6 L208.1,214.6 C206.5,213.1 204.9,211.5 203.9,209.5 L203.4,209.5 C203.1,208.8 202.9,208 202.8,207.2 C202.8,206.8 202.7,206.4 202.7,206.1 L203.1,206.1 C202.9,204.3 202.8,202.6 202.8,201 L202.4,201 C202.5,199.8 202.6,198.7 203,197.9 C203,197.8 203.1,197.7 203.1,197.6 L203.4,197.6 C204,196.1 204.2,193.8 203.7,192.5 L203.2,192.5 C203,192.2 202.8,191.9 202.5,191.7 C201.6,191.4 202.7,190 203.9,189.1 L204.8,188.5 C205,188.4 205.3,188.2 205.5,188.2 C205.9,188.1 206.4,187.8 206.9,187.5 C208.3,186.6 210,184.9 210.4,184.1 L210.2,184.1 C210.9,183.4 212.9,183.6 215.1,183.6 C217.5,183.6 218,183.6 220.4,185.2 C221.5,185.9 222.2,185.8 222.7,185.4 C223.2,185.2 223.5,184.7 223.6,184.2 L223.2,184.2 C223.2,184 223.3,183.8 223.3,183.7 C223.3,182.9 224.7,182.4 227.3,182.6 C229.9,182.9 233.2,180.6 233.9,181.3 C234.6,182.1 235.9,185.2 237.2,184.1 C238.5,183.1 239,181.3 239.4,184.4 C239.9,187.5 241,192.1 242.9,192.9 C244.9,193.7 243.8,196.8 245.8,197 C246.1,197 246.4,196.9 246.7,196.7 C247.7,196.4 248.5,194.4 248.6,192.6 L248.2,192.6 C248.3,191.7 248.2,190.8 248,190.3 C247.9,190 247.8,189.6 247.6,189.2 L248.1,189.2 C247.7,187.8 247.1,185.8 246.5,184.1 L246,184.1 C245.6,183.1 245.3,182.2 244.9,181.8 C244.7,181.5 244.6,181.1 244.6,180.7 L245,180.7 C244.9,179.4 246,177.6 247.4,176.5 C247.6,176.4 247.7,176.3 247.8,176.2 C247.9,176.2 248,176 248.2,176 C248.4,175.9 248.7,175.7 248.9,175.6 C249.9,174.8 251,173.5 252,172.2 L252.2,172.2 C253.5,170.6 254.7,168.9 255.5,168.1 C255.7,168 255.9,167.8 256,167.7 C258,166.6 261.4,166 260.3,164.3 C260.1,164.1 260,163.9 259.9,163.6 L260.5,163.6 C259.3,161.8 258.3,159.9 258.2,158.5 L257.7,158.5 C257.7,157 259,157.5 259.7,158.5 C260.4,159.5 263,157 262.3,155.7 C262.2,155.5 262.1,155.3 262.1,155.1 L262.6,155.1 C262.2,154.3 262.3,153.4 262.7,152.9 C262.9,152.8 263.1,152.8 263.4,152.8 C263.9,152.9 264.4,152.7 264.6,152.5 C265.4,152.2 265.6,151.1 265.1,150.2 C265,150.1 265,150 265,149.9 L264.6,149.9 C264.8,149 266.5,148.2 267.7,148.6 C269.3,149.1 274.4,149.5 275,148.5 C275.3,148 274.8,147.3 274.2,146.5 L274.8,146.5 C274.1,145.4 273,144.2 273,143 C273,142.4 273.2,141.9 273.5,141.4 L273.3,141.4 C274.2,140.2 275.8,139.3 276.8,139.1 C278.3,138.9 280.3,139.1 280.5,138.3 C280.5,138.2 280.6,138.1 280.7,138 L281,138 C281.2,137.7 281.6,137.1 282.1,136.7 C282.6,136.4 283.1,136.4 283.2,137.2 C283.4,139 283.2,142.1 285,142.1 C286.8,142.1 289,139.8 289.6,139.5 C290.3,139.3 294.5,138.2 295.3,138 C296,137.8 299.2,137.4 300.4,136.5 C301,136.2 301.4,135.7 301.2,135.2 C300.9,134.4 300.6,133.6 300.3,132.9 L300,132.9 C299.7,132.1 299.3,131.5 299,131.1 C298.3,130.3 297.6,131.3 296.8,132.6 C296.6,132.8 296.5,132.9 296.3,133 C295.6,133.4 294.9,133.3 294.5,132.8 L294,132.8 C293.6,131.8 294.2,128.7 292.7,129.7 C291.2,130.7 290.9,131.8 290.1,131.2 C289.5,130.9 288.9,129.9 288.6,129.3 L289.1,129.3 C288.9,128.9 288.7,128.6 288.7,128.6 C288.7,128.6 290.9,127.3 289.4,125 C289.2,124.7 289,124.4 288.7,124.2 L287.9,124.2 C286.8,123.4 285.4,123.5 284,124.2 L283.9,124.2 C283.7,124.3 283.5,124.4 283.4,124.5 C281.2,125.8 281.4,125.5 278.8,126.3 C276.1,127.1 274.9,127.8 274.9,127.8 C274.9,127.8 275.3,125.9 276,124.2 L275.7,124.2 C276,123.5 276.4,122.9 276.8,122.5 C278.2,121.1 282.4,121.5 284.1,120.3 C284.4,120.1 284.6,120 284.8,119.8 C284.9,119.7 285,119.7 285,119.6 C286.6,119.1 289.2,120.8 289.2,120.8 L289.5,120.5 L289.6,120.6 C289.6,120.6 290,120.1 290.5,119.7 C290.8,119.6 291,119.6 291,120 C291,121.3 290.6,124.6 291.9,124.6 C293.2,124.6 297,122.5 295.4,122 C294.5,121.7 295,121.2 295.9,120.6 C296.5,120.2 297.4,119.7 298.1,119.1 C299.7,118.1 302.5,119.4 303.3,118.9 C303.4,118.8 303.5,118.8 303.6,118.7 L303.8,118.7 C304.4,118.3 305,117 305.8,116.3 C306,116.2 306.2,116.1 306.5,116.1 C308.1,116.1 308.7,118.4 306.5,120 C304.3,121.6 304.1,125.4 303,126.4 C301.9,127.4 302.6,128.7 304.3,128.5 C306.1,128.2 307.6,128.7 309.1,128.2 C310.7,127.7 311.6,128.7 312,129.5 C312.3,130 312.9,129.6 313.3,129.2 L313.4,129.2 C313.6,129 313.8,128.9 314,128.7 C314.6,128.6 316.8,128.2 317.5,129.3 C318,129.9 318.4,129.7 318.5,129.2 L318.8,129.2 C319.1,128.8 319.2,127.7 318.8,126.9 C318.3,126 317.8,125 317.2,124.1 L316.7,124.1 C316.5,123.8 316.3,123.4 316.2,123.1 C315.6,121.6 314.7,121 312.9,121.6 C311.5,122 310.9,121.4 310.1,120.8 L310.8,120.8 C310.5,120.6 310.3,120.3 309.9,120.1 C308.8,119.3 307.9,121.1 308.8,119.3 C309.6,117.6 310.1,117 310.7,115.7 L310.4,115.7 C310.8,114.8 312,113.4 312.2,112.3 L312.6,112.3 C312.9,111.4 312.8,110.6 311.5,110.3 C308.7,109.5 307.8,109 307.3,107.5 C307.3,107.4 307.2,107.3 307.2,107.2 L306.7,107.2 C306,106.1 304.5,104.6 303.3,103.8 L304.1,103.8 C303.5,103.4 303,103.1 302.7,103.1 C301.8,103.1 297.6,104 297.4,102.7 C297.2,101.9 296.8,100.2 296.2,98.7 L295.7,98.7 C295.4,97.9 295,97.1 294.6,96.6 C294.4,96.3 294,95.8 293.5,95.3 L294.1,95.3 C293,93.9 291.3,91.6 290.1,90.2 L289.5,90.2 C289.1,89.7 288.8,89.3 288.6,89.2 C287.9,88.7 287.1,88.9 285.1,92 C284.4,93.1 283.7,93.9 283,94.4 C282,95 281.1,95 280.2,94.6 C278.6,93.8 276.9,94.6 275.4,92.6 C274.6,91.6 275.4,90.9 276.2,90.3 C276.9,89.8 277.6,89.3 277.3,88.7 C276.8,87.7 274.5,87.2 272.5,86.8 L274.4,86.8 C273.4,86.6 272.3,86.4 271.4,86.3 C269.2,86 267.7,83.2 264.3,82.9 C261,82.7 257,83.4 255.9,83.4 C255.6,83.4 255.5,83.5 255.3,83.7 C254.4,83.9 254.3,85.6 253.9,88.3 C253.6,90.6 254.7,91.5 254.2,92.1 C254.1,92.1 254,92.2 253.9,92.2 C252.9,92.4 252.1,92.7 252,92.9 C251.3,93.2 251.3,93.6 252.7,94.3 C254.7,95.3 257.3,99.5 257.3,99.5 C257.3,99.5 257.3,101.8 255.7,103.1 C254.1,104.4 252.6,105.7 251.7,104.1 C251.6,104 251.5,103.9 251.5,103.8 L252.1,103.8 C251.4,102.7 250.1,102.6 249.6,103.1 C249.1,103.2 248.8,103.6 249.1,104.3 C249.8,105.9 251.1,106.6 251.1,108.2 C251.1,109.7 253.1,113.6 251.8,114.9 C250.5,116.2 248.9,115.1 247.8,115.4 C246.7,115.6 245.6,113.3 246.5,112.8 C246.7,112.7 246.7,112.5 246.8,112.2 L247.1,112.2 C247.5,111.1 246.7,108.1 246.7,108.1 C246.7,108.1 246.6,108.3 246.3,108.6 C246.3,108.4 246.2,108.3 246.2,108.3 C246.2,108.3 245.1,110.1 244.4,110.7 C244.2,110.7 244.2,110.5 244.2,110 C244.4,108.4 243.7,107.7 243.4,106.9 L242.9,106.9 C242.8,106.6 242.7,106.3 242.7,105.9 C242.7,105.1 242.3,104.3 241.8,103.5 L242.4,103.5 C241.7,102.4 240.4,101.5 239.2,101.8 C237.2,102.3 235.4,102.7 231.6,102 C227.9,101.2 226.3,100.7 223.2,98.9 C222.8,98.7 222.5,98.5 222.2,98.4 L221,98.4 C220.1,98.1 219.4,98.2 218.8,98.4 L218.4,98.4 C218.1,98.5 217.8,98.6 217.5,98.6 C217.2,98.6 217,98.5 216.9,98.4 L216.3,98.4 C215.8,97.5 215.7,95.6 214.7,95 L215.5,95 C215.3,94.8 215,94.6 214.7,94.5 C212.7,94 214,93.4 213.6,90 L213.6,89.8 L213.1,89.8 C212.8,87.9 212.3,87.5 213.5,86.4 L213.6,86.4 C214.1,85.9 215,85.1 216.7,83.9 C218.1,82.9 219,82.1 219.7,81.3 L219.5,81.3 C221.1,79.7 221.6,78.8 224.2,78.5 C228,78 229.3,80.8 229.3,79.5 C229.3,79.2 229.4,78.6 229.5,77.9 L229.9,77.9 C230.1,76.6 230.4,74.9 230.6,73.9 C230.7,76.4 235,76.7 233,78.5 C231,80.3 232.1,80.6 233.7,80.6 C235.3,80.6 238.1,78.8 238.1,78.8 C238.1,78.8 241.6,77 242.5,78.5 C243.4,80 243.4,81.6 244.9,81.6 C246.4,81.6 249.5,79.7 247.2,77.9 L247.9,77.9 L247.4,77.4 C244.5,75.6 242.8,75.8 241,73.8 C240.6,73.3 240.3,73 240.1,72.8 L239.3,72.8 C239.1,72.7 238.9,72.7 238.7,72.8 L238.4,72.8 C238.2,72.9 238,73 237.7,73 C236.7,73.3 236.1,73 235.8,72.8 L235.1,72.8 C234.9,72.6 234.8,72.5 234.6,72.5 C234,72.5 232.9,73 232.4,72 C231.9,71 232.6,70.7 234.8,70.7 C237,70.7 239.6,71.5 239.6,71.5 C239.6,71.5 242.2,70.5 242.9,70.2 C243.3,70 244.9,69.8 245.8,69 C246.6,68.6 247.1,67.9 246.9,66.8 C246.4,65.1 245.1,64.7 244.2,64.3 L243.3,64.3 C243.1,64.2 243.1,64.1 243,64 C242.3,63.2 244.3,62.2 245.4,61.7 C246.5,61.2 249.6,61.7 249.6,61.7 C249.6,61.7 251.6,62 251.6,60.9 L252,60.9 L252,60.7 C252,60.2 251.9,59.5 252,59.2 C252.1,59.2 252.3,59.3 252.5,59.4 C253.8,60.2 252.5,62.5 254.5,62 C256.5,61.5 256.9,62 258,62.8 C259,63.5 258,66.2 257,67 C256.6,67.2 256.3,67.4 256,67.6 C255.1,68.1 254.4,68.8 256.3,69 C258.7,69.3 260.5,69.3 260.5,69.3 C260.5,69.3 260.6,69.2 260.7,69 L260.9,69 C260.9,69 262.5,67.2 263.1,65.6 C263.2,65.4 263.3,65.2 263.4,65.1 C264,64.9 264.7,65.5 265.3,65.9 C266,66.3 268.3,66.9 267.5,67.7 C267.3,67.8 267.1,67.9 266.8,68 C265.8,68.3 265.1,68.7 264.5,69.1 C263,69.9 262.5,70.9 262,71.9 C261.8,72.4 261.6,72.8 261.3,73 C260.8,73.3 260.1,73.3 258.7,72.9 L257,72.9 C256,72.7 255.1,72.7 254.5,72.9 L254,72.9 L253.9,73 C253.5,73.2 253.2,73.5 253,73.9 C252.3,75.2 252.8,79.3 253.9,78.8 C255,78.3 256.1,78.3 257.4,77.8 C258.7,77.3 264,78.3 265.3,78.1 C266.6,77.8 268.8,80.7 269.5,80.2 C270.2,79.7 271.5,81.2 272.8,82.3 C273.3,82.6 273.5,82.5 273.7,82.2 C274,82.2 274.2,81.8 274.5,81.5 L274.3,81.5 C274.7,81.2 275.2,81.2 276.1,82 C278.5,84.1 277.2,84.1 278.5,84.1 C279.8,84.1 282.7,84.4 282.7,84.4 L282.7,84.1 L283.1,84.1 C283.1,84.1 283.2,83 283.9,82.4 C284.2,82.3 284.6,82.2 285.1,82.3 C287.1,82.8 288.9,85.1 289.1,84 C289.4,84.1 289.6,84 289.5,83.3 C289.4,82.6 289.4,82.1 289.4,81.5 L289,81.5 C288.9,80.4 288.7,79.4 287.6,78.4 C287.5,78.3 287.4,78.2 287.2,78.1 L288,78.1 C286.2,76.6 283.4,75.6 283,74.8 C282.6,74.2 282.4,73.6 282.5,73 L282.2,73 C282.3,72.9 282.3,72.8 282.4,72.7 C283.1,72.2 286.2,73 287.9,74.2 C289.7,75.5 291.2,76.8 292.5,75.7 C292.6,75.6 292.7,75.6 292.8,75.5 C292.8,75.5 292.9,75.5 293,75.4 C293.2,75.2 293.5,75.1 293.7,74.9 C294.4,74.5 295,74.2 295.5,73.8 C295.9,73.6 296.2,73.3 296.5,73 L296.7,72.8 L296.5,72.8 C297.2,71.8 298.3,70.2 298.3,70.2 C298.3,70.2 296.3,69.9 294.3,69.4 L295.8,69.4 C293.9,69 291.7,68.3 291.2,67.6 C290.3,66.3 287.2,64.5 286.4,64.5 C285.6,64.5 283.5,66 282.5,64.3 L282,64.3 C282,64.2 281.9,64.1 281.9,64 C281.5,63 281.3,61.8 281.1,60.9 L281.6,60.9 C281.3,59.3 281.1,58 280.5,57.8 C279.8,57.6 273.7,56.6 270.6,55.8 L269.3,55.8 C269,55.7 268.8,55.6 268.6,55.5 C267.5,54.9 263.8,53.5 261.4,52.4 L262.4,52.4 C261.7,52.1 261,51.7 260.5,51.4 C258.5,50.1 255.7,48.3 253.9,48.3 C252.1,48.3 244.9,49.3 243.5,49.1 C242.2,48.8 238.2,49.6 236.7,49.9 C236.5,49.9 236.4,50 236.3,50.2 C234.7,50.5 238.3,53.8 235,54.6 C231.9,55.3 232.1,55.8 232.7,52.5 L233.1,52.5 C233.1,52.2 233.2,52 233.2,51.7 C233.9,47.8 231,46.8 228.1,48.4 C226.3,49.3 224,50.1 222.6,50.9 C221.4,51.5 220.7,52.2 221.3,53 C222.4,54.8 221.1,56.1 223.2,57.9 C225.4,59.7 226.3,60.2 229.2,60 C232,59.7 234.9,60.5 234.9,60.5 C234.9,60.5 234.9,63.6 233.8,64.1 C233.6,64.2 233.3,64.3 233.1,64.4 L232.7,64.4 C232.3,64.5 231.8,64.7 231.5,65 C231.1,65.2 230.7,65.6 230.5,66.2 C230.3,66.7 230,67.2 229.5,67.5 C228.9,67.8 228.3,67.9 228.3,67.5 C228.3,67 228.8,65.6 228.6,64.4 L228.2,64.4 C228.1,63.9 227.9,63.5 227.5,63.1 C225.9,61.8 225.5,61.6 223.8,62.9 C222,64.2 221.8,64.7 220.9,62.6 C220.7,62 220.3,61.5 219.9,61 L220.5,61 C219.4,59.6 217.8,58.5 217.8,58.5 C217.8,58.5 216.9,57.2 215.9,55.9 L215.2,55.9 C214.9,55.5 214.6,55.2 214.3,54.9 C213,53.6 210.6,53.9 210.3,55.2 C210.1,56.5 210.8,57.8 211.6,60.1 C212.3,62 212.7,64.4 212,65.3 C211.9,65.3 211.9,65.4 211.8,65.4 C211.4,65.5 211.2,65.6 210.9,65.8 C210,66.2 209.9,67.1 209.2,67.7 C209.1,67.7 209,67.8 209,67.8 C207.4,68.3 206.8,67 206.8,65 L206.8,64.5 L206,64.5 C205.9,63.1 205.6,61.9 205.7,61.1 L206.1,61.1 C206.1,60.8 206.1,60.5 206.3,60.4 C206.7,59.6 204.5,60.9 202.3,60.4 C201.2,60.1 200.3,60.4 199.8,60.8 C198.9,61.2 198.7,62 200.1,62.5 C202,63.2 202.6,65.6 201.4,66.7 C201.3,66.7 201.3,66.8 201.2,66.8 C199.2,67.6 191.7,66.8 189.3,66.8 C186.9,66.8 183.3,67.6 182.7,66 C182.4,65.4 182.7,64.9 183.2,64.5 C184,64 185.1,63.7 185.9,63.7 C187.5,63.7 192.1,64 193.8,61.1 L194,61.1 C194,61 194.1,61 194.2,60.9 C196,58 192,57.5 190.2,57.5 C189,57.5 187.9,57.1 186.6,56 L185.9,56 C185.5,55.6 185.1,55.2 184.7,54.7 C184,53.9 184,53.2 184.2,52.6 L184.6,52.6 C184.8,51.2 186.4,50.3 186.1,49.5 C185.7,48.5 183.5,49.3 181.5,49.3 C180.4,49.3 179,48.8 178,48.6 C178.9,48.6 179.6,48.5 179.8,48.2 C180,48.1 180.2,48 180.3,47.9 C180.4,47.7 180.5,47.6 180.6,47.5 L180.4,47.5 C181,47 181.7,46.7 181.8,45.9 C181.9,45.5 182,44.8 182.2,44.1 L182.5,44.1 C182.8,42.8 183.1,41.4 183.1,41.4 C183.1,41.4 182.2,39.5 180.8,40.4 C179.3,41.3 178.9,41.8 177.6,41.4 C176.7,41.2 176.4,39.6 175.4,39 L173,39 C172.6,39.1 172.3,39.3 172,39.5 C170.7,40.2 170.3,41.3 169.7,41.8 C169.6,41.9 169.5,42 169.3,42.1 C168.5,42.5 167.5,42.7 167.1,42.4 C166.5,42.1 163.1,39.8 163.1,39.8 C163.1,39.8 158.6,39.6 156.6,39 L155.6,39 C155.4,38.9 155.4,38.8 155.3,38.7 C155,37.7 153.8,35.9 150.6,36.3 C147.4,36.6 141.8,38.9 140.9,38.9 C140.2,38.9 141.2,40.2 141.1,40.7 C140.2,40.7 139.2,40.6 138.6,41.2 C138.2,41.4 137.8,41.7 137.7,42.3 C137.4,43.3 139,43.3 140.9,43.3 C142.8,43.3 145.9,43.3 146.8,42.8 C147.7,42.3 152.1,41.1 151.9,42.6 C151.7,44.1 153.7,46.6 154.7,46.2 C155.7,45.9 157.8,43.6 158.8,44.5 C159.9,45.4 160,47.4 161,47.9 C162,48.4 164.8,48.4 166.1,47.9 C167.4,47.4 171.1,47.4 172.7,47.7 C173.6,47.9 175.5,48.3 177.1,48.5 C176.7,48.5 176.5,48.6 176.3,48.8 C175.9,48.9 175.7,49.1 175.7,49.7 C175.7,51.2 177.1,55 177.1,56.2 C176.9,56.1 176.9,56 176.8,55.9 L176.1,55.9 C175.3,54.9 175.2,53.7 174.6,52.5 L175.1,52.5 C174.9,52.2 174.8,51.8 174.6,51.5 C173.5,50 171.7,50.2 169.5,50.5 C167.3,50.8 163.5,51.5 162.4,51.3 C161.3,51 162.2,51 159.8,49.7 C157.4,48.4 156.3,48.7 154.5,47.4 L153.8,47.4 C152.6,46.3 153.7,45.8 150.8,45.6 C147.7,45.3 147.9,47.4 144.8,46.9 C141.7,46.4 140.8,47.1 137.8,46.9 C134.7,46.6 133.2,46.4 132.7,48.2 C132.2,50 131.4,53.1 130.1,53.1 C128.8,53.1 127.2,54.9 131.4,55.2 C135.6,55.4 133.2,57.8 136.9,57.5 C140,57.3 142.8,57.2 144.2,56.1 C144.2,56.1 144.3,56 144.4,56 L144.3,56 C144.5,55.8 144.8,55.5 144.9,55.2 C145.8,53.1 146.4,53.1 146.9,53.9 C147.3,54.7 150.6,59.3 150.6,59.3 C150.6,59.3 152.8,61.3 153.7,61.9 C154.6,62.4 152.8,64.8 151.1,63.4 C149.3,62.1 146,62.4 144.7,61.1 L145.5,61.1 C145.4,61 145.3,61 145.2,60.9 C143.9,59.6 140.3,59.1 138.8,59.3 C137.3,59.5 132.2,59.1 131.3,59.1 C131,59.1 130.6,59.4 130.1,59.7 C128.9,60.4 127.1,61.9 127.1,61.9 C127.1,61.9 126.9,61.6 126.7,61.1 L127.2,61.1 C126.8,60.4 126.2,59.2 125.8,58.6 C125.5,58.1 125.1,58.3 124.7,58.7 C124.2,58.9 123.7,59.5 123.3,59.9 L123.2,59.9 C122.3,60.1 119.7,57.8 117,58.9 C116.2,59.2 115.8,59.5 115.4,59.7 C115,59.9 114.7,60.1 114.5,60.3 C113.9,60.6 113.2,60.8 111.4,60.7 C107.7,60.5 106.8,59.7 105.4,59.9 L104.1,60.1 L104.1,60.3 L103.7,60.4 C103.7,60.4 103.9,61.4 102.4,62.5 C100.9,63.5 99.8,64.8 98.7,63.3 C97.6,61.8 96.9,61.8 96.3,61.5 C96.1,61.4 96,61.3 95.8,61.2 L96.7,61.2 C96,60.9 94.7,59.7 91.9,60.5 C89.1,61.3 86,56.7 85.1,56.7 C84.2,56.7 74.9,58.9 73.2,58.4 C71.9,58 68.7,56.6 66.4,56.1 L63,56.1 C61.2,56.4 59.1,56.7 59.1,56.7 C59.1,56.7 57.7,56.4 56.5,56.1 L53.7,56.1 C52.8,56.4 51.7,56.6 50.9,56.1 L50.2,56.1 C49.1,54.8 47.1,54 47.1,54 C47.1,54 46.5,55.9 45.4,56.9 C45.3,57 45.2,57 45.1,57.1 C43.6,57.6 40.3,58.6 39.6,58.1 C38.9,57.6 33.2,60.2 33.2,60.2 C33.2,60.2 30,61 29.1,60.8 C28.8,60.7 28.1,60.9 27.4,61.2 L27.6,61.2 C26.2,61.7 24.1,63 24.4,63.8 C24.8,64.8 24.4,66.9 27.9,66.9 C31.4,66.9 31.6,68.5 33,68.7 C34.3,69 34.8,68.7 36.3,70.3 C37.6,71.6 37.8,73 36.6,73.1 L35.9,73.1 C33.9,72.8 31.7,72.3 30.4,71 L29.1,69.7 L26.7,71 C23.6,71.3 19.6,73.1 19.6,73.1 C19.6,73.1 20.7,75.4 22.7,77 C24.7,78.5 29.6,78.5 29.6,78.5 C29.6,78.5 32.5,78.7 34,77.7 C34.2,77.6 34.5,77.4 34.7,77.3 C34.8,77.2 35,77.1 35.1,77 C36.2,76.4 37.4,76.6 38.1,76.8 C39,77.1 37.5,80.4 35.1,80.2 C32.6,80 29.8,80.5 27.8,82.3 C25.9,84.1 24.1,84.4 25,86.4 C25.9,88.4 29.2,91 29.4,92.3 C29.6,93.1 31.2,92.5 32.4,91.7 C33.1,91.3 33.7,90.7 34,90.2 L33.7,90.2 C34.2,88.9 36.3,88.9 35.7,91.7 C35.1,94.5 37.9,95.1 37.9,95.1 C37.9,95.1 37.9,95 38.1,94.8 C38.2,94.8 38.3,94.9 38.3,94.9 C38.3,94.9 39,93.6 39.6,93 C39.7,93 39.8,93 39.9,93.1 C40.6,93.6 42.8,96 42.8,96 C42.8,96 43.1,95.7 43.6,95.4 L43.7,95.3 C44.6,94.7 45.9,94.2 46.5,95.2 C47.4,96.7 45.2,98 43.8,98.8 L43.7,98.8 C41.9,99.7 37.9,101.4 36.9,102.2 C36.8,102.3 36.7,102.3 36.6,102.4 L36.5,102.4 C36.5,102.5 36.3,102.5 36.3,102.6 C35.7,103 34.8,103.5 33.9,104 L34,104 C32.4,104.8 30.8,105.6 30.1,105.6 C29,105.6 28.5,108.7 30.5,108.4 C32.5,108.1 38,105.8 39.5,105 C41.1,104.2 41.6,107.6 45.6,105.2 C46.3,104.8 46.9,104.4 47.4,103.9 L47.5,103.9 C49.5,102.2 50.7,100.4 51.5,99.6 C51.6,99.5 51.7,99.5 51.8,99.5 C52.9,99.8 53.1,101.6 54.9,102.1 C55.7,102.3 56.5,102 57.2,101.5 C58.2,101 59.1,100 59.8,99.5 C60,99.3 60.3,99.1 60.5,98.7 L60,98.7 C60.6,97.5 60.9,95.9 60.1,96.1 C59,96.4 56.1,96.1 56.1,96.1 C56.1,96.1 56.6,95.8 57.2,95.3 L57.3,95.3 C58.2,94.6 59.6,93.4 59.6,92.5 C59.6,91.8 59.7,91 60.1,90.2 L59.9,90.2 C60.3,89.6 60.7,89 61.5,88.6 C63.3,87.8 63.3,88.3 62.2,91.5 C61.2,94.2 63.7,93.5 65.2,92.4 C65.5,92.2 65.7,92 66,91.8 C67.2,91.1 68.8,94 71,92.4 C71.1,92.4 71.1,92.3 71.1,92.3 C71.2,92.2 71.3,92.2 71.4,92.1 C72.1,91.6 72.6,90.9 72.8,90.2 L72.5,90.2 C73.1,88.6 73.1,87.1 73.9,87.1 C75.3,87.1 77.7,89.9 79,88.9 C80.4,87.9 83.7,91 85.9,91 C88.1,91 95.5,93.5 96.9,93.5 C98.2,93.5 102.2,95.3 102.4,98.7 C102.6,102.1 104,101.8 105.3,101.8 C106.6,101.8 109.7,103.1 109.7,104.4 C109.7,105.7 108.8,110.9 111,112.2 C113.2,113.5 115.2,115.6 116.1,115 C116.5,114.7 116.5,113.5 116.3,112.4 L116.8,112.4 C116.6,111.2 116.1,109.9 115.5,109.6 C114.7,109.2 114.8,108.2 114.8,107.3 L114.3,107.3 C114.3,107 114.3,106.8 114.1,106.5 C113.7,105.5 115.4,105.5 116.1,107.3 C116.7,109.1 118.5,112.5 119.6,112.5 C120.7,112.5 123.1,115.6 122.5,117.4 C121.8,119.2 122.7,122.9 124.7,122.9 C126.7,122.9 129.6,125.4 130.4,125.7 C131.3,125.9 131.8,128.2 131.8,129 C131.8,129.8 133.5,133.2 133.5,135 C133.5,136.8 132.8,144 132.6,146.9 C132.4,149.7 134.4,154.6 136.6,157.2 C138.8,159.8 138.4,165.6 139.7,166.6 C141,167.6 144.3,169.6 146.3,169.3 C148.3,169 149.6,170.8 151.4,174.4 C153.2,178 154.9,184 156.3,184.5 C157.6,185 159.8,186.8 158.7,188.1 C157.6,189.4 155.8,192.2 157.8,192.2 C159.8,192.2 160.5,190.9 162,193.2 C163.5,195.5 165.5,196.8 165.3,198.4 C165.1,199.9 167.1,200.5 167.9,200.7 C168.8,200.9 170.6,205.3 172.5,203.7 C172.7,203.6 172.9,203.5 173.1,203.3 C173.8,202.6 173.7,201.8 173.3,201 L172.7,201 C171.9,199.7 170.2,198.4 169.2,197.6 L169.9,197.6 C169.6,197.3 169.3,197.1 169.1,196.9 C168.2,196 168.6,194.4 167.8,192.5 L167.3,192.5 C166.9,191.8 166.4,191 165.6,190.2 C165.2,189.8 164.9,189.4 164.5,189.1 L165.1,189.1 C163.3,187.1 163.1,185.5 162,184 L161.4,184 C161.2,183.7 161,183.5 160.7,183.2 C159.7,182.3 158.8,181.4 158.4,180.5 L158.9,180.5 C158.2,179.4 158,178.3 159.3,177.3 C161.1,176.2 161.4,179.5 162.2,181.6 C163.1,183.9 167.7,188.6 169.7,190.6 C171.7,192.7 175.2,199.9 176.3,199.9 C177.4,199.9 180.5,204 180.5,204 C180.5,204 182.3,207.4 181.6,208.4 C180.9,209.4 182.5,213.3 184,214.3 C185.6,215.3 192.3,215.4 192.6,219.2 C192.7,220.2 193.8,225.1 196.2,225.1 C198.6,225.1 201.8,223.8 202.5,224.6 C203.1,225.3 204.9,228.1 206.2,226.9 C206.4,226.8 206.7,226.7 206.9,226.4 L206.7,226.4 C207.8,224.8 208.1,224.1 210,224.1 C212,224.1 212.9,225.9 214,227.2 C215.1,228.5 218.2,231.9 219.7,231.6 C221.2,231.3 223.2,233.7 224.3,232.9 C225.4,232.1 227.2,233.4 228,233.9 C228.9,234.4 230.7,236.3 230.5,239.4 C230.3,242.5 233.5,243.2 234.8,243.9 C236.1,244.7 237.9,246.5 239,247.8 C240.1,249.1 242.5,249.3 243.2,250.1 C243.9,250.9 244.3,252.4 246.3,251.1 C247.5,250.3 247.8,249.2 247.9,248.4 L248.3,248.4 C248.4,248 248.3,247.6 248.3,247.4 C249,247.3 250.4,247.2 251.1,248 C252.2,249 252.9,252.4 253.5,252.9 C254.2,253.4 255.5,257.3 254.6,260.1 C253.7,262.9 253.9,265.8 253,265.8 C252.1,265.8 249.7,268.5 248.4,269.3 C247.1,270.1 244.9,274.3 245.1,275.6 C245.3,276.9 246,281 245.6,282.8 C245.1,284.6 243.5,286.4 244.2,289.3 C244.9,292.1 249.5,292.9 249.7,295.5 C249.9,298.1 253.2,303.8 253.7,306.3 C254.2,308.9 256.5,311.9 256.5,315.5 C256.5,319.1 263.2,321.3 264.3,321.6 C265.4,321.8 267.4,324.2 268.9,324.9 C270.5,325.7 271.8,327.2 272.9,329.3 C274,331.4 273.8,334.4 273.8,335.2 C273.8,336 273.1,344 272.5,348.6 C271.8,353.2 274.1,357.6 272.8,358.9 C271.5,360.2 269,360.7 270.3,362.3 C271.6,363.9 268.7,364.9 268.7,365.7 C268.7,366.5 270.5,370.6 269.6,372.4 C268.7,374.2 268,376.8 267.4,378.3 C266.7,379.8 265.2,381.4 265.6,383.7 C266,386 263.8,385.2 263.8,387.6 C263.8,390 265.8,388.9 265.4,391.7 C265,394.5 263.8,395.3 263.8,397.4 C263.8,399.5 264.9,402.3 264.9,403.1 C264.9,403.9 263.8,406.5 262.3,408.5 C260.8,410.6 259.7,411.9 259.8,413.2 C260,414.5 261.6,416 261.4,416.8 C261.2,417.6 259.2,420.2 259.4,422 C259.6,423.8 261.6,423 262,424.3 C262.5,425.6 259.4,426.6 260.7,427.9 C262,429.2 263.7,428.9 263.3,432 C262.9,435.1 265.7,435.9 266.4,436.7 C267.1,437.5 268.4,439.3 269.5,439.3 C270.6,439.3 271.5,438.5 271.9,435.8 L272.3,435.8 L272.3,435.4 C272.4,434.9 272.5,434.6 272.7,434.4 C273.6,434.1 274.8,435.7 273.2,437.2 C271,439.2 269.9,440.3 270.6,440.3 C271.3,440.3 274.6,442.4 276.3,442.4 C278.1,442.4 281.6,441.4 282.3,441.1 C282.9,440.9 287.6,440.1 288.2,439.3 C288.3,439.3 288.4,439.2 288.4,439.2 L288.2,439.2 C288.2,438.5 284.4,438.7 282.5,438 C281.6,437.7 280.6,436.8 279.5,435.8 L280.2,435.8 C278.7,434.4 277.2,432.5 277,431.6 C276.9,431.4 276.8,431.1 276.8,430.7 L276.4,430.7 C276.2,429.6 276.3,428.3 276.8,427.3 L277.1,427.3 C277.3,426.7 277.6,426.2 278.1,425.9 C279.1,425.2 280.9,423.5 282.4,422.2 L282.3,422.2 C283,421.6 283.6,421 283.9,420.8 C284.3,420.5 284.7,419.7 285,418.9 L285.3,418.9 C285.8,417.6 286.2,416 285.8,415.7 C285.1,415.2 281.8,415.7 281.4,414.9 C281.2,414.6 281.1,414.2 281.2,413.8 L280.8,413.8 C281,413.2 281.5,412.5 282.7,411.6 C283.1,411.2 283.6,410.8 283.9,410.4 L284.1,410.4 C285.7,408.7 286.6,406.8 287.4,406.1 C287.6,405.9 287.9,405.6 288.3,405.3 L288.1,405.3 C288.9,404.5 289.8,403.5 290.2,402.3 C290.2,402.1 290.3,402 290.3,401.9 L290.7,401.9 C291.2,400.3 290,401.3 288.7,401.3 C287.4,401.3 286.7,398.5 286.7,397.2 C286.7,397.1 286.8,397.1 286.8,397 C287.8,396.9 290.2,398.1 292.1,398.5 C293,398.7 293.3,398.6 293.5,398.3 C294.2,398.2 294.1,397.6 293.9,396.9 L293.4,396.9 L293.1,395.7 C293,395 293.1,394.2 293.3,393.5 L293.6,393.5 C293.8,393 294,392.6 294.2,392.3 C294.4,392.2 294.6,392.2 294.8,392.4 C296.1,393.2 303,392.1 303.8,391.9 C303.9,391.9 304,391.8 304.2,391.7 C304.7,391.5 305.6,390.1 306.6,388.5 L306.4,388.5 C307,387.4 307.6,386.3 308,385.7 C308.2,385.5 308.2,385.3 308.4,385 L308.7,385 C309.4,383.8 309.5,382.7 308.5,382 C308,381.6 307,380.8 306.1,379.9 L305.4,379.9 C304.5,379 303.6,378.1 303.5,377.7 C303.4,377.5 303.4,377 303.5,376.5 L303.9,376.5 C304.1,375.1 304.8,372.9 305.2,371.6 C305.4,373.3 305.6,378.9 308.1,379.8 C311.2,380.8 312.9,381.3 315.8,378.3 C316.3,377.7 316.9,377.1 317.4,376.6 L317.6,376.6 C319.5,374.6 320.9,373 321.4,371.5 L321,371.5 C321,371.3 321.1,371.2 321.1,371.1 C321.2,370.1 321.5,369 321.8,368.1 L322.2,368.1 C322.5,367.2 322.9,366.4 323.5,366 C324,365.7 324.4,365.7 324.8,365.3 C325.3,365 325.9,364.5 326.6,363.1 L326.3,363.1 C326.3,363 326.4,362.8 326.5,362.7 C327.7,359.7 328.7,361.4 329.9,359.7 L330.1,359.7 C330.3,359.5 330.5,359.2 330.6,358.8 C331.2,357.5 330.8,356 330.4,354.6 L329.9,354.6 C329.5,353.3 329.4,352.1 330,351.2 L330.2,351.2 C330.4,350.9 330.6,350.6 330.9,350.3 C331.6,349.7 332.5,349.1 333.4,348.6 C335.6,347.2 337.8,346 337.8,346 C337.8,346 339.1,345.2 341.8,344.4 C344.4,343.7 347.1,344.1 348.1,342.7 L348.3,342.7 C348.4,342.6 348.5,342.4 348.6,342.3 C349.2,341.2 349.8,339.3 350.6,337.6 L350.3,337.6 C350.6,336.9 350.9,336.3 351.3,335.8 C351.7,335.3 352,334.7 352.4,334.1 L352.7,334.1 C353.7,332.5 354.5,330.5 353.9,329.6 C353.9,329.5 353.8,329.3 353.8,329 L353.4,329 C353.4,328.1 353.8,326.9 354.1,325.6 L354.4,325.6 C354.9,323.8 355.5,321.9 355.4,321.1 C355.4,320.9 355.3,320.7 355.2,320.5 L354.7,320.5 C354.5,319.6 354.1,318.4 354.2,317.1 L354.6,317.1 C354.6,315.7 355,314.2 356.5,312.8 C356.8,312.5 357,312.2 357.4,312 L357.2,312 C358.3,310.9 359.3,309.7 360.2,308.6 L360.4,308.6 C362.1,306.5 363.4,304.6 363.6,303.8 C363.6,303.7 363.6,303.6 363.7,303.5 L363.3,303.5 C363.6,302.7 364,301.5 364.5,300.1 L364.8,300.1 C365.5,298.3 366.1,296.4 366.1,295 L365.7,295 L365.7,294.4 L366.3,294.4 L366.3,294.4 Z M251.8,138 L252,138 C252.4,137.6 252.7,137.3 253,137.1 C253.1,137 253.2,137 253.3,137.1 C253.9,137.6 258.6,136.3 259.5,137.6 C260.4,138.9 258.6,139.1 256.4,140.2 C254.2,141.2 253.5,141 252.7,142.3 C252.5,142.6 252.2,142.8 251.9,143 C251,143.5 249.9,144 249,144.6 C248.5,144.9 248,145.2 247.6,145.7 C247.3,146 247,146.3 246.6,146.6 L246.6,146.7 C245.3,147.6 243.8,147.9 243.5,147 C243.5,146.9 243.4,146.8 243.4,146.7 L243.9,146.7 C243.7,146.2 243.6,145.9 243.7,145.8 C243.8,145.8 243.8,145.7 243.9,145.7 C244.1,145.6 244.3,145.6 244.4,145.2 C244.4,145 244.8,144.8 245.1,144.5 C246.3,143.7 248.1,142.9 248.1,142.9 L248.2,142.8 C248.4,142.7 248.5,142.6 248.5,142.6 C248.5,142.6 248.8,142.2 249.3,141.6 L249.1,141.6 C249.7,140.3 250.9,138.9 251.8,138 L251.8,138 Z M241.3,131.1 C242,130.8 245,130.8 246.6,131.1 C248,131.3 249.9,135 249.5,136 C248.4,136.1 246.8,134.9 246.8,133.2 L246.8,132.9 L246.6,132.9 C246.5,133 246.4,133.2 246.4,133.4 C246.4,131.6 244.8,136.7 245.7,138.3 C246.4,139.5 245,140.8 243.9,141.4 L242.6,141.4 C242.1,140.9 241.7,139.5 241.7,138 L242.1,138 L242.1,136.8 C242.3,135.1 241.5,133.5 240.1,132.9 L237.4,132.9 L236.8,133.2 C235.2,133.9 234.3,135.6 233.6,136.2 C232.7,137 232.7,141.4 232.9,142.4 C233.1,143.2 233.1,145.4 232.2,146.4 C232.2,146.4 232.1,146.5 232,146.5 C231.7,146.7 231.3,146.9 230.9,146.8 C230.6,146.8 230.4,146.6 230.2,146.5 L231.2,146.5 C229.7,146.1 229.7,143.2 229.9,141.4 L229.5,141.4 C229.5,141.1 229.5,140.8 229.6,140.6 C229.7,140 229.6,139 229.5,138 L229.9,138 C229.8,136.3 229.6,134.2 230.2,132.9 L230,132.9 C231,131 233.4,130.3 235.1,130.1 C236.9,129.8 240.6,131.3 241.3,131.1 L241.3,131.1 Z M221.2,125.2 C221.8,124.9 222.7,124.7 224,124.1 C226.9,122.8 230,119.2 231.3,120.7 C232.7,122.2 235.1,124.1 236.6,124.3 C237.9,124.5 236.6,126.9 235.8,127.7 C235.1,127.9 232.7,127.2 230.8,127.2 C228.8,127.2 229.3,125.7 228.4,125.9 C227.5,126.2 225.6,126.7 224.2,127.5 C222.9,128.3 220.7,128.1 220.7,126.7 C220.8,125.9 220.9,125.5 221.2,125.2 L221.2,125.2 Z M137.6,128.2 C136.6,128.4 135.9,125.7 135.7,124.3 L135.2,124.3 C135,123 132.8,123 131.7,122.2 C131.3,122 130.9,121.4 130.5,120.8 L131.1,120.8 C130.4,119.9 129.8,118.8 129.8,118.3 L130,118.3 C130.7,118.6 132,120.1 132.6,120.1 C133.2,120.1 136.6,123.2 137.4,124.2 C138.2,125.2 138.3,127.4 137.6,128.2 L137.6,128.2 Z M305.4,371.2 C305.4,371.1 305.4,371.1 305.5,371 C305.6,370.8 305.6,370.9 305.7,371.2 L305.4,371.2 Z M162.6,38.1 C163.8,38.1 166.7,36.9 167.6,37.8 C168.5,38.7 170.7,38 170.6,37.1 C170.5,36.8 170.6,36.4 170.6,35.8 L171,35.8 C171.1,34.5 171.4,32.4 170.1,32.3 C168.3,32.1 165.8,34.2 163.2,35.2 C163,35.3 162.8,35.4 162.7,35.5 C161.1,36.3 161.4,38.1 162.6,38.1 Z M185.5,35.5 C187.3,35.5 191.1,34.5 191.4,35.3 C191.7,36.2 191.2,36.9 193.3,37.2 C195.4,37.6 196.3,37.9 197.4,37.9 C198.2,37.9 198.3,36.9 197.9,35.8 L198.4,35.8 C198.2,35.2 197.9,34.5 197.5,33.9 C196.4,32.4 196.8,32.5 194.1,31.7 C191.5,30.9 188.8,30.9 187.1,31 C185.9,31.1 184.6,30.9 183.7,31.6 C183.1,31.9 182.7,32.4 182.5,33.3 C182.3,34.5 183.8,35.5 185.5,35.5 Z M210.8,52.9 C212.7,52.6 215.5,52.2 216.8,52.1 C217,52.1 217.3,51.9 217.4,51.8 C218.5,51.4 218.7,49.1 217.3,48.9 C216.4,48.8 215.6,48.1 214.8,47.8 L213.1,47.8 C212.3,48.1 210.8,48.9 209.6,49.6 C208.3,50.4 207.2,51.3 207.5,51.9 C207.7,52.3 208.9,53.2 210.8,52.9 L210.8,52.9 Z M204.1,37.4 C205.7,38.2 208.3,39.8 210.3,40.7 C212.2,41.6 215.9,41.7 217.1,43.5 C218.3,45.2 222.2,46.6 222.2,46.6 L226.9,47.1 C226.9,47.1 230.1,46.2 233.5,46.6 C236.9,46.9 241.9,47.5 244.7,47.3 C247.5,47.1 247.9,46.1 248.2,45.4 C248.3,45.1 247.5,44.7 246.5,44.4 L247.6,44.4 C246,43.8 243,43.1 242.1,43.2 C240.8,43.4 233.3,43.4 231.1,43.2 C228.9,43 226.1,43 224.3,43.2 C222.5,43.4 221.2,41.8 219.9,41 C219.4,40.7 218.6,40 217.7,39.3 L217,39.3 C215.8,38.4 214.5,37.5 213.5,37.3 C211.7,37 212.1,37 208.4,35.9 L208.3,35.9 L209.6,35.9 C209.4,35.8 209.1,35.8 208.8,35.7 C206.9,35.2 203.8,34.5 203.8,34 C203.8,33.8 203.7,34.1 203.6,34.5 C203.4,34.4 203.4,34.3 203.4,34.2 C203.3,33.6 202.4,36.5 204.1,37.4 L204.1,37.4 Z M414.3,77.7 L414.5,77.7 C414.5,77.7 417.7,74.8 416.6,73.6 C416.5,73.5 416.3,73.4 416.2,73.3 L415.4,73.3 C414,72.4 412,71.8 410.8,71.6 C409.5,71.4 408.2,72.8 405.2,72.8 C403.9,72.8 402.9,73.1 402,73.2 L399.8,73.2 C399.6,73.1 399.4,73 399.2,72.8 C398.1,71.4 393.2,70.7 392.7,71.6 C392.1,72.8 391,72.8 392.1,75.2 C393.3,77.6 394.2,79 395.2,78.8 C396.2,78.6 399.8,78.5 400.2,79.8 C400.6,81.2 401.8,82.4 404.3,81.5 C406.8,80.6 408.9,80.1 409.5,79.1 C410.1,78.1 414.1,77.9 414.1,77.9 L414.3,77.7 L414.3,77.7 Z M260.8,212 C261.1,211.9 261.3,211.7 261.3,211.5 C261.4,211 260.9,210.2 260.2,209.4 L259.5,209.4 C258.7,208.6 257.7,208 256.9,208.1 C255.8,208.3 253.7,207.3 252,206 L252.8,206 C252,205.5 251.3,204.9 250.7,204.3 C248.9,202.5 245.6,202.5 244.3,202.5 C243,202.5 237.7,204.3 237.7,204.3 L237.7,204.4 C237.5,204.5 237.3,204.5 237.3,204.5 C237.1,207.1 239.3,206.3 241.9,206.3 C244.5,206.3 249.2,205.8 250,207.1 C250.9,208.4 254.9,210.5 256,211.5 C257.1,212.5 260.1,212.8 260.8,212 L260.8,212 Z M285.2,219.6 C285.9,219.2 286.2,218.6 286.2,217.9 L285.8,217.9 C285.7,216.7 284.8,215.6 283.6,215.8 C281.6,216.2 282.1,220.8 284.5,220 C284.8,220 285,219.8 285.2,219.6 Z M668.1,249.5 C667.9,249.3 667.8,249 667.7,248.6 L668.2,248.6 C667.5,246.8 666.9,243.1 665.2,244 C665.1,244 665,244.1 665,244.2 L664.8,244.2 C663.4,244.9 661.9,257.3 664.6,258.4 C665.4,258.7 666.2,258.1 666.8,257 L667,257 C667.8,255.7 668.4,253.6 668.7,251.9 L668.3,251.9 C668.4,250.8 668.4,249.9 668.1,249.5 Z M480.2,153.6 C480.7,153.4 481.2,152.9 481.6,152.2 C482,151.5 482,150.6 481.7,149.9 L481.2,149.9 C480.7,148.9 479.9,148.1 479.3,148.1 C477.2,148.1 476.2,152 477.5,153.3 C478.4,154.2 479.3,154.3 480.2,153.6 L480.2,153.6 Z M464.4,152.7 C464.7,152.6 464.9,152.4 465,152.2 C465.4,151.4 464.7,149.9 463.6,150.8 C463.2,150.9 462.8,151.3 462.4,152.2 C461.9,153.1 463.7,153.4 464.4,152.7 L464.4,152.7 Z M494,161.8 C494.5,162 495.7,161.9 496.4,161.3 C497.2,161 497.7,160.3 497.3,158.9 C497.2,158.7 497.1,158.5 497.1,158.4 L496.6,158.4 C495.6,156.6 494,156.6 493.4,156.6 C492.8,156.6 489.9,155.8 488.8,156.6 C488,157.2 490.1,158.9 491.2,159.4 C492.3,159.9 493.1,161.5 494,161.8 L494,161.8 Z M432,117.6 C433.8,117.9 435.7,116.3 437.3,115.6 C438.5,115 440.1,113.9 440.7,112.4 L441,112.4 C441.3,111.9 441.5,111.3 441.5,110.6 C441.5,109.4 441.3,108.2 441.1,107.2 L440.6,107.2 C440.4,106.5 440.1,105.8 439.7,105.4 C438.8,104.4 437.3,104.1 436,104.4 C434,104.8 433.8,107.2 432.5,107.2 L431.4,107.2 C431.2,107.3 431,107.4 430.9,107.5 C430.2,107.8 429.8,108.4 430,109.5 C430.5,111.3 431.3,112.6 430,113.4 C428.7,114.3 430.2,117.4 432,117.6 L432,117.6 Z M442.8,106.5 C445,107.5 449.7,108.6 447.9,109.6 C446.1,110.6 441,115.7 440.6,117.3 C440.2,118.8 446.4,118.1 446.4,118.1 C446.4,118.1 445.1,119.9 446.2,120.4 C446.6,120.6 446.9,120.4 447.2,120.1 C447.7,119.9 448.1,119.3 448.8,118.8 C449,118.6 449.4,118.5 449.7,118.5 C451.5,118.5 455,119.8 456.8,119.8 C457.3,119.8 458,119.5 458.6,119.1 C459.9,118.4 461.2,117 461.5,115.7 L461.1,115.7 L461.1,115.2 C461,114.4 460.5,113.3 459.7,112.3 L460.3,112.3 C459.4,111 458.2,109.9 457.1,109.2 C456.4,108.9 455.7,108.1 455,107.1 L454.4,107.1 C453.5,105.9 452.8,104.6 452.1,103.7 L452.7,103.7 C452.3,103.1 451.9,102.7 451.6,102.5 C450.7,101.8 453,100.2 454.3,98.6 L454.1,98.6 C454.7,97.8 455,97.1 454.5,96.5 C453.5,95.4 451.3,95.4 449.4,95.2 L452.6,95.2 C450.6,94.9 448.2,95.1 446.9,94.2 C445.9,93.5 445,93.7 444.1,94.3 C443.3,94.7 442.6,95.5 442.1,96.3 C441,97.8 439.6,96 438.3,96.5 C436.5,97.2 437.2,99.9 438.1,101.2 C439,102.7 440.6,105.5 442.8,106.5 L442.8,106.5 Z M897.4,90 C902.7,89.7 904.6,86.7 909.7,85.1 C914.8,83.6 918.7,82.5 920.3,83.3 C921.3,83.8 922.6,83.8 923.1,83.2 C923.6,83 923.8,82.5 923.4,81.8 L922.8,81.8 C921.9,80.7 920.3,79.4 919.5,78.4 L920.1,78.4 C919.6,77.8 919.2,77.2 919.5,76.9 C920.6,76.6 921.7,76.4 922.5,75.7 C923.2,75.3 923.7,74.8 924.1,73.8 L924.1,73.3 L923.7,73.3 C923.6,72.3 923.1,71.1 922.8,69.9 L923.3,69.9 C922.8,68.5 922.5,67.1 923.4,66.1 C923.8,65.7 923.9,65.3 923.9,64.8 L923.5,64.8 C923.3,63.3 921.7,62 920.1,61.4 L921.1,61.4 C920.7,61.2 920.2,61 919.9,60.9 C917.7,60.4 909.1,61.4 907.4,60.4 C905.6,59.4 902.8,58.1 901.9,58.9 L901.8,59 C901.7,59 901.6,59.1 901.5,59.1 C900.6,59.9 898.6,64 898.6,64 C898.6,64 897,64.5 895.7,62.2 C895.5,61.9 895.2,61.6 894.8,61.4 L895.5,61.4 C893.4,59.7 887.3,59.9 885.3,59.9 C883.1,59.9 880.7,60.4 878.2,60.7 C875.8,60.9 874.5,61.7 872.7,59.9 C870.9,58.1 868.5,57.3 867.6,56.5 C867.5,56.4 867.3,56.3 867.1,56.2 L865.2,56.2 C863.8,56.1 862,56.1 860.1,56.2 L858,56.2 C854.3,56.7 850.6,56.7 850.6,56.7 L849.6,56.2 L848.7,56.2 C847.71313,55.6331788 846.7459,55.0328291 845.8,54.4 C844.9,53.8 844,53.3 843.2,52.8 L844.1,52.8 C842.3,51.7 840.7,51 840,51 C839.1,51 832.3,52.3 830.7,51 C829.1,49.7 827.6,48.9 826.5,48.9 C825.9,48.9 825.3,48.2 825.2,47.6 L824.8,47.6 C824.8,47.3 825,47.1 825.5,47.1 C826.8,47.1 833,45 833,45 C833,45 832.8,44.6 832.4,44.2 L833,44.2 C832.4,43.4 831,41.9 829.4,41.9 C827.2,41.9 823.2,40.6 822.1,40.6 C821.7,40.6 821.6,40.7 821.5,40.9 C821.1,41 821,41.2 820.9,41.5 C820.7,41.6 820.3,41.6 819.7,41.4 C817.5,40.9 814.5,42.5 814,40.9 C813.6,39.9 813,40 812.4,40.5 C811.2,41 810,44.1 812.4,44.8 C815.7,45.8 818.8,44.8 819.7,46.4 C820.6,47.9 819.7,48.7 819.7,49.7 C819.7,50.7 817.9,53.6 816.8,54.1 C815.7,54.6 814.4,53.3 812.2,54.6 C810,55.9 804.4,54.8 803.8,55.6 C803.1,56.4 801.8,53.5 800.7,54.1 C800,54.4 798.5,56 797.2,56.9 C796.7,57.3 796.1,57.5 795.6,57.4 C794.9,57.3 794,56.8 793.4,56.1 L792.7,56.1 C792.1,55.4 791.7,54.5 791.7,53.5 L791.7,52.7 L792.1,52.7 C792,50.8 791.4,48.6 790.8,48.1 C790.5,47.9 789.4,47.7 788.2,47.6 L783.4,47.6 C781.6,47.8 776.7,48.3 775.5,49.3 C775.2,49.4 775,49.5 774.9,49.7 C774.7,49.9 774.5,50.1 774.2,50.2 C773.1,50.8 771.6,51.2 770.5,51.2 C769,51.2 767.7,49.4 764.3,48.9 C761,48.4 753.7,48.1 752.8,48.4 C752.2,48.6 750.5,48.2 750.1,47.6 L749.6,47.6 C749.6,47.4 749.6,47.3 749.8,47.1 C750.3,46.6 751.5,45.4 752.2,44.2 L752.4,44.2 C753.2,43 753.6,41.7 752.6,40.9 C750.7,39.4 746.4,39.4 744.4,39.1 L742.1,39.1 C740.6,38.9 739,38.7 736.8,39.1 L736.1,39.1 C734,39.8 733.3,40.9 732.2,39.6 C732.1,39.5 732,39.4 732,39.3 C732.6,39.4 733.4,39.8 730.5,38.3 C725.9,36 723.2,38.3 722.3,37 C722.1,36.8 722.1,36.6 722,36.4 C721.6,37.1 720.8,38 719,39 C716,40.7 713.9,41.1 713.1,41.3 C712.2,41.6 706.1,40.3 706.1,39.5 L706.1,39 L705.7,39 C705.3,34.3 703,39.2 700.9,40.7 L700.8,40.7 C698.6,41.7 697.1,43.3 694.8,42.8 C692.6,42.3 689.1,42.3 686.8,43.3 C686.1,43.6 685.6,43.8 684.9,44 L685.3,44 C683.6,44.6 682.3,44.9 680.5,46.4 C680,46.8 679.4,47.1 678.9,47.4 L678.8,47.4 C676.8,48.4 674.6,48.9 674.6,48.9 C674.6,48.9 670.9,48.6 668.8,48.6 C667.5,48.6 666,48.6 665.5,49.1 C664.8,49.4 664.6,49.8 665.5,50.7 C667.3,52.5 672.6,54.3 673.2,55.3 C673.9,56.3 674.7,59.3 673.7,60.1 C672.6,60.6 671.2,60.2 671,58.1 C670.9,56.9 670.8,56.3 670.3,55.8 L669.6,55.8 C669.2,55.5 668.5,55.2 667.5,54.8 C665,53.8 665,54.5 663.1,52.4 L663.8,52.4 L663.3,51.9 C661.5,50 659.5,49.8 658.2,50.7 C657.8,50.9 657.4,51.2 657.1,51.6 C656.1,52.9 656.5,55.4 655.8,56.2 C654.6,56.5 653.2,57.3 652.8,55.7 L652.3,55.7 C652.3,55.6 652.3,55.5 652.2,55.4 C652.1,54.5 652.1,53.3 652,52.3 L652.4,52.3 C652.2,50.8 652,49.7 651.3,50.5 C651.1,50.5 650.8,50.7 650.5,51.3 C648.9,53.9 648.3,53.9 648.3,55.2 C648.3,56.5 649.6,57.8 649.2,60.1 C648.7,62.4 648.7,64 649.4,64 C650,64 651.6,61.7 653.5,61.1 C655.5,60.6 659,59.3 659.3,61.6 C659.5,63.6 661.2,64.5 660.2,65.3 C660.1,65.3 660,65.4 660,65.4 C657.8,66.4 655.4,65.9 654.9,64.4 C654.9,64.3 654.8,64.2 654.8,64.2 L654.3,64.2 C653.7,63.2 652.4,63.3 651,64.5 C649.5,65.8 646.2,70.4 646.2,70.4 C646.2,70.4 642.4,72.4 640.9,72.7 L640.4,72.7 C639.9,72.3 641.1,70.7 642.5,69.3 L642.7,69.3 C643.3,68.7 643.9,68.2 644.4,67.8 C645.6,66.9 646.6,65.4 646.9,64.2 L646.5,64.2 C646.6,63.7 646.6,63.4 646.4,63.1 C646.2,62.8 645.9,61.9 645.6,60.7 L646.1,60.7 C645.7,58.9 645.4,56.7 645.8,55.8 C645.8,55.7 645.8,55.6 645.9,55.5 L645.6,55.5 C646.1,54.4 647.2,53.1 646.2,52.1 L646.8,52.1 C646.6,51.8 646.4,51.6 646,51.3 C643.8,50 642.3,48.5 640.5,47.7 C640,47.5 639.4,47.7 638.8,48.1 C637.4,48.8 636,51.3 634.7,52.1 C633.2,53.1 633.4,54.4 631.4,54.7 C629.4,54.9 628,58.1 631.4,59.9 C634.7,61.7 635.8,63 634.9,64 C634.5,64.1 634,64.1 633.4,64 L631.8,64 C630.9,63.8 630.2,63.5 630.2,63.5 C630.2,63.5 627.4,62 625.6,62 C624.1,62 622.3,61.1 620.7,60.7 L622,60.7 C621.4,60.5 620.8,60.3 620.2,60.2 C618.6,60 615.7,60 614.4,60.7 L614.6,60.7 C614.2,60.8 613.8,61 613.6,61.3 C613,61.9 612,63.4 610.8,64.2 L610.6,64.2 C610.1,64.4 609.6,64.5 609.1,64.2 L608.2,64.2 C606.8,63.3 606.6,62.5 604.4,63.4 C602,64.4 599.6,62.6 598.2,64.2 C597.9,64.6 597.7,64.9 597.6,65.1 C597.2,65.1 596.6,64.9 595,64.3 L593.9,64.3 C590.9,63.2 590.5,64.2 589.1,65.1 C588.6,65.4 587.9,65.7 587,65.8 C583.3,66.5 581,65.3 579.8,66.3 C579.5,66.4 579.3,66.5 579.1,66.8 C578,68.3 576.5,71.2 575.8,69.4 L576.3,69.4 C576.3,69.3 576.2,69.3 576.2,69.2 C575.7,67.8 577.2,65.7 577.5,64.3 L577.1,64.3 C577.1,64 577.1,63.7 576.9,63.5 C575.8,62.5 571.1,63 570.5,63.8 C569.8,64.6 570.3,67.4 570.7,68.4 C571.1,69.3 571.6,72.3 571,72.8 L570.6,72.8 C569.3,72 569.5,69.4 568.2,69.7 C566.9,70 565.3,70.7 564.7,71.2 C564.1,71.7 561.4,71.7 560.7,72.7 C560.2,73.6 560.7,75.8 560.2,76.6 C559.2,76.9 558.2,77.8 555.8,76.1 C554,74.8 553.6,75 553.2,75.4 C552.8,75.5 552.7,75.9 552.3,76.1 C552.2,76.2 552.1,76.3 551.9,76.4 C550.8,77.1 548.9,77.9 548.7,76.1 C548.5,74.5 548.8,73.6 548.3,72.8 L547.7,72.8 C547.5,72.5 547.2,72.1 546.7,71.8 C544.7,70.2 546.2,70.2 548.9,71.3 C551.5,72.3 554.9,72.8 559.7,71.1 C562.3,70.1 564.1,69.5 564.8,68.9 C565.9,68.3 566,67.8 564.9,67.2 C563.8,66.6 562.9,65.4 561.7,64.4 L561,64.4 C560.1,63.6 559.1,62.9 557.8,62.6 C554.7,62.1 550.1,64.3 545.3,62.3 C544.1,61.8 543.1,61.3 542.3,61 L543.3,61 C540.5,59.7 539.4,59.1 537.8,58.7 C536.9,58.5 534.2,57.2 530.9,55.9 L529.8,55.9 C525.6,54.3 520.8,52.7 517.8,53.3 C516.1,53.6 513.5,54.7 510.7,55.9 L510.5,55.9 C507,57.5 503.3,59.5 500.5,61 L500.6,61 C498.2,62.3 496.4,63.4 496.2,63.6 C495.3,64.4 494,67.5 491.1,70.1 C490,71.1 488.6,72 487,72.9 C484.6,74.2 481.9,75.3 479.4,75.9 C478.7,76.1 478.1,76.4 477.4,76.8 C473.6,78.9 469.6,84.8 469.6,85.7 C469.6,86.7 471.4,90.6 470.9,91.4 C470.5,92.2 471.8,96.1 474.2,97.1 C476.6,98.1 480.8,97.9 481,96.3 C481,95.9 481.3,95.5 481.7,95 L481.9,95 C482.3,94.3 483,93.6 483.6,93.1 C484.1,92.8 484.7,92.9 484.8,93.7 C485,96 487.2,99.6 486.7,101.2 C486.3,102.8 486.7,104.3 488.3,104 C489.9,103.8 498,101.7 498,101.7 C498,101.7 498.3,101.6 498.6,101.3 C499.1,101 500.8,99.9 500.7,98.3 L500.3,98.3 C500.1,97.2 500.8,96 501.7,94.9 L501.9,94.9 C502.8,93.8 503.9,92.8 504.2,92.4 C504.6,92 505.4,90.9 505.7,89.8 L505.3,89.8 C505.5,89 505.2,88.2 504,87.7 C502.6,87.2 501.4,86.9 500.9,86.3 L501.6,86.3 C500.6,85.7 500.5,84.9 502.4,83 C502.7,82.7 503,82.5 503.3,82.3 C505.7,80.9 507.7,82.6 511.1,78.7 C511.3,78.4 511.5,78.1 511.7,77.9 L511.9,77.9 C514.1,75 512.7,73.5 513,72.8 L512.8,72.8 C513.1,72.7 513.5,72.6 514.3,72.5 C518.5,72.3 522.9,72 522,73.5 C521.5,74.5 519.3,76.1 517.1,77.6 C517,77.7 516.9,77.7 516.8,77.8 C515.5,78.6 514.2,79.4 513.2,80 C510.3,81.5 510.7,84.4 511.8,85.9 C512.9,87.4 513.4,91 515.3,90.5 C517.3,90 519.7,88.2 521.9,88.4 C524.1,88.7 528.5,88.1 529.1,88.1 C529.7,88.1 532.3,91.1 531.4,92 C529.6,92.5 527.5,92.2 523.8,92.5 C520.2,92.7 516.3,92.8 515.9,93.4 C515.6,93.5 515.4,93.6 515.4,93.8 C515.4,94.6 520.5,96.4 518.7,97.7 C516.9,99 515.2,97.4 513,97.2 C510.8,96.9 509.5,100.6 508.8,102.6 C508.3,104 509,106.1 508.4,106.9 C508.1,107 507.6,107 507,106.7 L505.8,106.7 C502.9,105.7 500.8,105.7 500,106.2 C499.1,106.7 497.5,105.7 495.3,106.5 C495.1,106.6 494.9,106.6 494.8,106.7 L494.3,106.7 C493.2,107 492.6,107 490.5,107 L487.6,107 L485.8,107.3 L485.3,106.8 L485,106.8 C484.5,106.2 483.9,105.4 483.8,104.2 L483.8,103.4 L484.2,103.4 C484.2,101.5 485,99.5 484,99.1 C483.1,98.7 480.4,99.1 479,100.1 C478.5,100.4 478,100.8 477.8,101.2 C477.2,102.8 476.5,105.6 477.4,106.9 C478,107.8 479.4,109.2 479.5,109.8 C479.3,109.8 479.2,109.8 479,109.7 C476.7,109 473.9,108.7 472.1,109.9 C471.8,110.1 471.6,110.2 471.3,110.4 C469.6,111.9 466.5,115.3 466.5,115.3 L465,115.3 C463.8,115.5 462.4,115.9 461.8,116.4 L461.7,116.4 C461.2,116.7 461,117 461,117.3 C461,118.8 461,120.9 459,121.2 C457,121.5 454.4,122.2 451.7,122.7 C450.5,122.9 449.9,123.3 449.2,123.7 C448.6,124 447.9,124.4 446.6,124.5 C445.4,124.6 444.7,124.9 444.3,125.2 C443.2,125.8 443.5,126.7 445.5,127.1 C448.4,127.6 452.8,129.7 453,132 C453.2,134.3 452.8,136.9 451.7,139.2 C450.9,140.8 446.4,139.7 443.8,139.7 C441.2,139.7 435.9,138.7 433.7,139.7 C431.5,140.7 431.9,145.9 432.6,148.2 C433.3,150.5 432.4,151.8 431.5,152.6 C430.6,153.4 430.4,155.7 431.5,156.7 C432.6,157.7 433.5,160.1 434.4,160.3 C435.3,160.5 438.1,159.5 439.2,160.8 C440.3,162.1 441.4,165.2 442.1,164.4 C442.3,164.1 442.6,163.5 443,162.8 L443.3,162.8 C443.6,162.1 444,161.4 444.4,161 C444.6,161 444.7,161 444.9,161.1 C446,161.9 448.6,160.9 450.6,160.6 C451.1,160.5 451.6,160.3 452,160 C452.9,159.5 453.6,158.6 454.4,157.7 L454.2,157.7 C454.6,157.2 455.1,156.8 455.6,156.4 C457.2,155.4 456.8,155.2 456.2,154.3 L456.8,154.3 C456.6,154.1 456.4,153.8 456.2,153.3 C455.7,152 457.3,150.6 458.8,149.2 L458.6,149.2 C458.9,149 459.1,148.7 459.3,148.4 C460.8,146.6 463.7,148.2 464.3,146.1 C464.3,146 464.4,145.9 464.4,145.8 L464.7,145.8 C465.2,144.1 465.5,141.6 466.5,140.8 C466.7,140.7 466.8,140.7 467,140.7 C468.8,140.9 471.2,142.2 472.7,142.2 C473.4,142.2 474.6,141.5 475.7,140.8 C475.8,140.7 475.9,140.7 476,140.6 C477.1,139.8 478.1,139.1 478.5,138.8 C479.4,138.3 482.7,138.6 483.1,140.9 C483.6,143.2 487.3,146.1 488.2,146.6 C489.1,147.1 494.8,149.2 495.7,150 C496.6,150.8 497.9,153.1 498.4,155.2 C498.8,157.1 501,159.3 501.6,158.2 C501.8,158.2 502.1,158.1 502.1,157.7 L501.7,157.7 C501.7,156.9 501.4,155.6 501.1,154.3 L501.6,154.3 C501.2,152.7 500.8,151.2 501.1,150.5 C502.6,150.8 504.4,150 504.4,150 C504.4,150 504.3,150 504.3,149.9 C504.6,149.8 504.8,149.7 504.8,149.7 C504.8,149.7 504.6,149.5 504.1,149.2 L503.4,149.2 C502.1,148.2 499.7,146.4 498.6,145.9 C498.6,145.9 498.5,145.9 498.5,145.8 L499.4,145.8 C499.3,145.7 499.2,145.6 499,145.6 C497.5,144.8 494.6,143.3 493.3,140.7 L492.7,140.7 C491.8,139.2 490.2,138.4 489.2,137.3 L489.9,137.3 C489.3,136.7 488.8,136 488.9,135 C488.9,134.5 489.1,134.2 489.3,134 C490.4,133.7 492.3,134.8 493.5,136.3 C495.3,138.3 499.7,141.2 501.2,143 C502.8,144.8 505.2,145.6 505.8,147.9 C506.5,150.2 508.4,152.8 509.1,153.8 C509.8,154.8 510.1,163 510.8,164.3 C511.2,165.1 512.8,164 514.2,162.7 L514.3,162.7 C515.4,161.8 516.5,160.7 517,160.2 C517.9,159.4 519.3,158.8 520,157.6 L519.7,157.6 C519.8,157.4 519.9,157.1 519.9,156.8 C520,155.8 519.4,154.9 518.6,154.2 L519.3,154.2 C518.4,153.3 517.3,152.6 516.8,152.2 C516.5,151.9 516.6,151.7 517,151.4 C517.7,151 518.6,150.6 519.3,150.1 C519.6,149.9 519.9,149.8 520.1,149.6 C520.3,149.4 520.5,149.3 520.7,149.1 L520.6,149.1 C521.7,148.2 523,147.4 523.7,148.6 C524.6,150.2 524.1,156.3 524.6,157.4 C525.1,158.4 529.5,160 530.4,161.3 C531.3,162.6 535,163.1 535.7,162.3 C536.3,161.5 539.9,162.8 540.8,163.1 C541.7,163.4 544.3,162.6 546.1,162.1 C547.8,161.6 549.6,160 549.4,163.4 C549.2,166.8 548.5,171.9 546.3,174.5 C544.8,176.2 544.7,177.4 544.2,178 C544,178.1 543.7,178.2 543.2,178.2 C542.2,178.2 541.3,178.2 540.5,178.6 C539.8,177.3 538.8,176.2 537.5,176.6 C535.6,177.2 533.4,177.4 531.4,178.5 C530.5,179 529.6,179.7 528.9,180.7 C527.9,182.1 527.2,182.9 526.7,183.2 L525.5,183.2 C525.5,183.1 525.4,183.1 525.3,183 C525.1,182.5 526.6,181.2 528.1,179.8 L528.2,179.8 C529.9,178.3 531.7,176.7 531.2,176 C530.3,174.7 525,175.2 522.2,175.2 C521.3,175.2 520.4,175 519.6,174.7 L518.5,174.7 C517,174.1 515.6,173.2 514.3,172.9 C512.1,172.4 511.1,177.7 508.8,180.2 C507.3,181.9 505.4,180.7 503.6,179.7 L504.5,179.7 C503.4,179.1 502.4,178.5 501.7,178.5 C499.7,178.5 496,175.1 496,175.1 C496,175.1 495.5,174.9 494.8,174.6 L493.8,174.6 C492.6,174.1 491.2,173.6 490.3,173.6 C489.3,173.6 487.6,172.2 486.4,171.2 L487.1,171.2 C486.2,170.5 485.5,170 485.1,170 C484.3,170 482.1,167.9 483.4,166.8 C485.2,166.1 488.5,167.8 486.9,162.7 L487.4,162.7 C487.4,162.5 487.3,162.4 487.3,162.2 C485.5,156.5 479.5,157.6 478,158.4 C476.5,159.2 465.5,158.9 464.6,158.9 C463.7,158.9 457.4,161.5 455.4,162.5 C455.3,162.6 455.1,162.6 455,162.7 L455.2,162.7 C455.2,162.7 455.1,162.8 455,162.8 C453,163.8 449.5,165.1 448.6,165.6 C447.7,166.1 443.1,164.6 441.1,165.9 C439,167.2 437.1,169.2 436,169.9 C435.9,170 435.8,170 435.7,170 C435.5,170 435.3,170.1 435,170.3 C434.2,170.7 432.5,172.5 431.3,175.9 C430.1,179.6 431.4,182.9 429.3,184.3 C427.5,185.2 424.4,186.6 422.1,188 C421.1,188.6 420.2,189.2 419.7,189.9 C417.9,192 416.5,200 414.4,203.3 C412.2,206.7 414.4,209.8 414.8,211.8 C415.2,213.9 416.8,217.7 414.4,221.4 C412.4,224.4 412.2,226.1 411.6,226.8 L411.5,226.9 C411.3,226.9 411.3,227 411.2,227.1 L411.1,227.2 C410,227.5 412.2,228.5 412.7,231.1 C413.1,233.7 410.7,236.3 414.9,238.6 C419.1,240.9 422.9,241 424,244.1 C425.1,247.2 428.8,254.3 428.8,254.3 C428.8,254.3 432.7,258.4 434.8,260.2 C436,261.3 436.7,261.3 437.1,260.8 C437.5,260.7 437.7,260.4 437.9,259.9 L437.6,259.9 C437.7,259.7 437.8,259.4 437.8,259.2 C438.3,257.4 440.9,257.1 444,257.1 C447.1,257.1 449.3,257.9 452.4,257.4 C453.3,257.3 454,256.8 454.7,256.3 C456.6,255 458,252.7 458.9,251.9 C460.1,251.4 464.5,250.8 467.4,252.8 C470.2,254.9 469.8,257.7 471.4,259.5 C472.9,261.3 475.6,260.3 477.6,258.5 C479.6,256.7 478.7,257.5 481.1,259 C483.5,260.5 484.6,262.1 482.4,264.4 C480.2,266.7 481.5,270.3 480.2,274 C478.8,277.6 481.4,277.6 483.9,279.2 C486.3,280.7 488.3,290.8 489.7,292.6 C491,294.4 489.3,299.6 490.8,302.7 C492.3,305.8 493,307.7 491.3,309.2 C489.5,310.7 487.3,313.8 487.1,318.9 C486.9,324.1 488,327.7 488.9,329.5 C489.8,331.3 492,336.2 493.1,338 C494.2,339.8 498,343.1 498.2,346 C498.4,348.8 495.3,353.3 496.4,354.8 C497.5,356.3 498.2,358.7 500.1,360.7 C502.1,362.8 502.7,367.1 502.7,367.1 C502.7,367.1 503.4,368.9 503.6,371.7 C503.8,374.6 504,376.4 506.2,377.6 C508.4,378.9 509.9,379.1 511.1,377.9 C512.2,376.6 516.9,374.1 519.7,374.3 C522.3,374.5 526,374.9 528.8,373.2 C529.2,373 529.6,372.7 530,372.4 C530.6,371.9 531.2,371.3 531.9,370.5 L531.7,370.5 C532.6,369.5 533.6,368.3 534.5,367.1 L534.7,367.1 C536.3,365 537.8,363 538.6,362 L538.7,361.9 L538.5,361.9 C539.3,361 540.5,359.7 541.4,358.5 L541.6,358.5 C542.6,357.2 543.4,355.8 543.2,354.8 C543.1,354.4 542.9,353.9 542.7,353.5 L542.2,353.5 C541.7,352.3 541.1,351.1 541,350.1 L541.5,350.1 C541.4,349.5 541.5,349 541.9,348.6 C543.5,347.8 547.3,347.1 548.8,346.1 C549.4,345.8 549.9,345.4 549.9,345.1 L549.9,345 L549.5,345 C549.5,344.3 549.3,343 549,341.6 L549.5,341.6 C549.1,339.7 548.5,337.7 548.2,336.5 L547.7,336.5 C547.7,336.3 547.6,336.1 547.5,336 C547.3,335.3 547.6,334.3 548.3,333 L548.5,333 C549.1,332 549.9,330.7 550.8,329.5 C551.2,329 551.6,328.4 552.1,327.9 L551.9,327.9 C553.2,326.6 554.7,325.4 555.8,324.5 L555.9,324.5 C556.7,323.9 557.3,323.4 557.6,323 C558.1,322.4 559.5,321.1 560.8,319.4 L560.6,319.4 C561.3,318.3 562,317.2 562.2,316 L562.6,316 C562.6,315.8 562.7,315.6 562.8,315.3 C563,313.9 562.8,312.3 562.7,310.9 L562.3,310.9 C562.1,309.6 562,308.4 562.1,307.5 L562.5,307.5 C562.5,306.9 562.6,306.4 562.8,306.1 C563.4,304.8 563.2,303.7 562.4,302.4 L561.8,302.4 C561.5,301.9 561.1,301.4 560.6,300.9 C560.1,300.4 559.7,299.7 559.5,299 L560,299 C559.3,297.3 558.9,295.2 558.6,293.9 L558.1,293.9 C558,293.6 557.9,293.3 557.8,293.1 C557.6,292.8 557.6,291.7 557.6,290.5 L558,290.5 C558.1,288.8 558.5,286.6 559.1,285.4 L558.8,285.4 C559,285 559.2,284.8 559.4,284.7 C559.9,284.5 560.8,283.4 561.8,282 L562,282 C563.2,280.4 564.5,278.3 565.5,276.9 L565.3,276.9 C565.3,276.8 565.4,276.8 565.5,276.7 C566,276 566.9,274.8 567.9,273.5 L568.1,273.5 C569.4,271.8 570.9,269.8 572.3,268.4 L572.2,268.4 C573.1,267.5 574,266.8 574.7,266.6 C575.6,266.4 576.5,265.8 577.5,264.9 L577.6,264.9 C579.4,263.5 581,261.4 581.4,259.8 L581,259.8 L581,259.6 C581.1,258.9 581.6,257.8 582.4,256.4 L582.7,256.4 C583.6,254.9 584.7,253 585.7,251.3 L585,251.3 C585.8,250 586.5,248.8 586.9,247.9 L587.2,247.9 C587.5,247.3 587.7,246.7 587.8,246.4 C587.9,245.7 588.3,244.3 588.7,242.7 L588.4,242.7 C588.7,241.6 589,240.4 589.2,239.3 L589.6,239.3 C589.8,238 589.9,236.8 589.6,236.3 C588.5,234.8 579.9,238.6 578.8,239.2 C578.7,239.2 578.6,239.3 578.4,239.4 L578.5,239.4 C578.4,239.4 578.3,239.5 578.3,239.5 C577.2,240 574.1,242.1 570.5,241.8 C568.6,241.7 568.2,240.6 568.2,239.4 L568.6,239.4 C568.6,238.3 568.9,237.1 568.8,236.4 C568.7,236 568.4,235.2 567.9,234.3 L567.4,234.3 C566.8,233.2 566,231.9 565.3,230.9 L565.9,230.9 C565,229.7 564.3,228.8 564,228.7 C563.5,228.5 562.4,227.4 561.3,225.8 L560.7,225.8 C560,224.8 559.4,223.6 559,222.5 L559,222.4 L559.5,222.4 C559.5,222.3 559.5,222.3 559.4,222.2 C558.7,220.3 556.6,218.7 554.8,217.3 L554,217.3 C553,216.5 552.1,215.8 551.5,215 C551.3,214.7 551.1,214.3 551,213.9 L551.5,213.9 C551.1,212.6 551.1,210.8 551.2,208.8 L550.8,208.8 L550.8,205.4 L551.2,205.4 C551.1,204 550.9,202.6 550.5,201.6 C550.3,201.2 550.1,200.7 549.9,200.3 L549.4,200.3 C548.9,199.2 548.4,198 548,196.9 L548.5,196.9 C547.8,195.1 547.1,193.4 546.4,191.8 L545.9,191.8 C545.7,191.3 545.5,190.8 545.2,190.3 C544.9,189.6 544.6,189 544.3,188.4 L544.8,188.4 L544.5,187.8 C546.5,187.2 549.1,186.4 549.4,187.7 C549.8,189.5 552.3,193.4 552.7,196.2 C553.1,199 555.5,198 555.8,200.6 C556,203.2 558.2,209.4 559.1,210.2 C560,211 564,215.1 564.6,216.7 C565.3,218.2 566.2,220.3 566.8,224.2 C567.5,228.1 568.1,233.2 569.9,234 C571.7,234.8 577.6,232.7 578.7,231.9 C579.8,231.1 587.1,227 589.8,226.7 C592.4,226.5 592.8,224.4 596.2,223.6 C597.6,223.3 598.8,222.6 599.9,221.8 C601.7,220.6 603.1,219 604.5,217.7 L604.8,217.4 L604.6,217.4 C605.4,216.5 606.3,215.3 607.1,214 L607.4,214 C608.6,212.1 609.7,210 610.2,208.9 L609.9,208.9 C610.5,207.7 611.7,206.7 612,205.5 L612.4,205.5 C612.6,204.9 612.7,204.3 612.3,203.5 C611.8,202.6 610.5,201.4 609.1,200.4 L608.4,200.4 C606.9,199.3 605.3,198.5 604.4,198.4 C603.7,198.3 603.3,197.7 603,197 L603.5,197 C603,195.9 602.8,194.5 602.1,194.5 C601.8,194.5 601.6,194.6 601.5,194.8 C600.6,195.1 600.6,196.7 598.6,197.9 C597.4,198.6 596.1,199.8 594.9,200.5 C594.2,200.9 593.6,201.2 593,201 C592.6,200.9 592.5,200.7 592.4,200.5 L591.9,200.5 C591.9,199.8 592.2,198.7 590.6,197.2 C590.6,197.2 590.6,197.1 590.5,197.1 L591.2,197.1 L591,196.9 C588.6,194.6 587.7,194.1 587.7,192.3 C587.7,192.2 587.6,192.1 587.6,192 L587,192 C586.6,191.1 585.5,189.9 584.4,188.6 L585.1,188.6 C583.9,187.2 582.6,185.8 582.4,184.5 C582.3,184.2 582.4,183.8 582.4,183.4 L582,183.4 C582.7,181.1 585.4,178.9 586.3,180.9 C587.4,183.2 588.3,186.8 591.1,188.4 C594,190 596.6,192.5 598,193 C599.3,193.5 602.6,190.2 603.7,190.7 C604.8,191.2 607,195.8 609,196.6 C611,197.4 617.6,197.6 618.7,197.6 C619.7,197.6 623.6,197.8 624.9,196.7 C625.3,196.5 625.5,196.3 625.7,196.1 C626,195.6 626.3,195.2 626.6,195 C627,194.8 627.4,194.8 628,194.8 C629.1,194.8 631.1,199.4 632.6,200 C634.2,200.5 637,200.3 636.8,203.6 C636.6,207 638.1,209.8 639.7,210.1 C640.2,210.2 640.8,209.9 641.4,209.4 C641.6,209.3 641.8,209.2 641.9,209 C643.3,207.8 644.7,206.2 644.7,206.2 C644.7,206.2 644.7,212.6 644.5,215 C644.3,217.3 646.9,225.8 646.9,225.8 C646.9,225.8 650.2,233.8 651.1,235.6 C652,237.4 655.7,242.8 655.7,245.1 C655.7,247.4 656.1,251 657.5,251 C658.3,251 659,249.7 659.8,248.1 L660.1,248.1 C660.8,246.8 661.4,245.3 662.1,244.1 C662.3,243.7 662.6,243.4 662.8,243 L662.5,243 C663.2,241.9 663.9,240.7 664.5,239.6 L664.8,239.6 C665.3,238.6 665.8,237.6 666,236.6 C666.2,236 666.2,235.3 666.2,234.5 L665.8,234.5 C665.8,233.4 665.6,232.2 665.5,231.1 L665.9,231.1 C665.7,229.1 665.4,227.2 665.4,226.3 L665.4,226 L665,226 C665.2,224.8 666.1,223.7 667.7,222.6 C667.9,222.5 668.1,222.3 668.3,222.2 C668.7,222 669,221.8 669.4,221.6 C669.8,221.4 670.2,221.2 670.6,220.9 C671.8,220.1 672.9,218.8 674,217.5 L673.8,217.5 C674.8,216.3 675.7,215.1 676.7,214.1 L676.9,214.1 C677.2,213.8 677.5,213.4 677.8,213.2 C679.2,212 679.8,210.3 680.8,209.1 L680.6,209.1 C681.5,208.1 682.7,207.3 685,207.3 C690.3,207.3 689.8,207.3 691.2,205.8 L691.3,205.7 L691.5,205.7 C691.5,205.6 691.6,205.6 691.7,205.5 C692.1,205 692.5,204.7 692.8,204.4 C693.5,204 694.2,204.3 694.6,206 C695.3,208.8 699,213 699.7,214 C700.3,215 701.6,217.9 701.4,221 C701.2,224.1 700.1,232.6 701.2,232.6 C701.5,232.6 701.9,232.1 702.4,231.3 L702.7,231.3 C703.4,230 704.5,227.9 705.2,226.2 L704.9,226.2 C705.6,224.6 706.1,223.4 706.1,223.4 C706.1,223.4 706.4,223.1 707,222.8 C707.1,222.7 707.2,222.7 707.3,222.6 C708.7,221.8 710.9,220.9 710.7,223.7 C710.5,227.8 711.2,232.2 711.2,234.8 C711.2,237.4 715.2,243.6 715.2,242 C715.2,241.5 715.4,240.7 715.6,239.8 L716,239.8 C716.4,238.3 717,236.3 717.2,234.7 L716.8,234.7 C716.8,234.4 716.9,234 716.9,233.7 C716.9,231.4 718,232.4 720.9,234.7 C723.7,237 725.8,241.7 725.8,241.7 C725.8,241.7 728.5,250.4 729,251.7 C729.3,252.4 730.4,250.5 731.4,248.3 L731.7,248.3 C732.6,246.5 733.5,244.5 733.8,243.7 L734.1,243.1 L733.8,243.1 C734.3,242.1 734.9,241.5 736.3,241.1 C737.5,240.7 738.9,240.6 739.8,239.7 L739.9,239.7 C740.5,239.3 741,238.6 741.3,237.5 C741.5,236.6 741.8,235.6 742.1,234.6 L741.8,234.6 C742.1,233.5 742.3,232.4 742.2,231.2 L742.6,231.2 C742.5,230 742.2,228.7 741.3,227.4 C740.9,226.9 740.7,226.5 740.4,226.1 L739.9,226.1 C739,224.8 738.3,223.7 737.6,222.7 L738.2,222.7 C737.2,221.3 736.4,220.1 735.4,219.2 C734.9,218.8 734.5,218.2 734.2,217.6 L733.6,217.6 C732.9,216.4 732.3,215.1 731.9,214.2 L732.4,214.2 C732,213.4 731.9,212.7 731.9,212.7 C731.9,212.7 733.7,210.8 735.3,209.1 L735.1,209.1 C735.8,208.3 736.5,207.5 736.9,207.1 C738.2,205.6 740.2,206.6 740.4,208.4 C740.6,210.2 738.5,211.8 738,215.6 C737.6,219.5 740.6,220.8 741.5,219.5 C741.7,219.4 741.8,219.4 741.9,219.2 C742.1,218.8 742.6,218.2 743,217.6 L742.8,217.6 C743.7,216.3 744.6,214.8 744.6,214.3 L744.6,214.2 L745,214.2 L745,214 C745,213.2 743.4,213.5 743.2,210.6 C743.1,210 743.2,209.5 743.4,209 L743,209 C743.8,207.2 745.8,206.1 746.6,206.7 C747.7,207.5 754.7,205.7 758.1,203.6 C758.2,203.6 758.2,203.5 758.3,203.5 C758.4,203.5 758.5,203.4 758.5,203.4 C759.7,202.7 760.7,201.6 761.6,200.5 L761.4,200.5 C762.3,199.3 763.1,198.1 763.9,197.1 L764.1,197.1 C764.6,196.3 765.2,195.6 765.7,195.1 C766.4,194.5 767.7,193.3 769.1,192 L769,192 C770.1,190.9 771.2,189.7 772.1,188.6 L772.3,188.6 C773.5,187.1 774.4,185.6 774.2,184.5 C774.1,184.2 774.1,183.8 774.1,183.4 L773.7,183.4 C773.6,182.3 773.6,181.2 773.5,180 L773.9,180 C773.8,178.4 773.6,176.6 772.9,174.9 L772.4,174.9 C772.4,174.7 772.3,174.6 772.2,174.4 C771.7,173.3 771.1,172.4 770.5,171.5 L771.1,171.5 C769.7,169.4 768.4,167.8 767.7,166.7 C767.6,166.6 767.7,166.5 767.6,166.4 L767.2,166.4 C767.6,165.3 771.1,164.8 773,163 L773.1,163 C773.3,162.9 773.5,162.7 773.6,162.6 C775.8,160.3 773.6,158.2 772.5,158.5 C771.4,158.8 768.5,159.5 767.4,159.3 C766.8,159.1 766.3,158.7 765.6,158 L764.9,158 C764.5,157.6 764,157 763.4,156.5 C762.7,155.9 762.6,155.2 762.8,154.6 L763.2,154.6 C763.3,154 763.7,153.4 764.2,153 C764.4,152.9 764.7,152.8 764.9,152.9 C765.3,153 765.9,152.7 766.5,152.3 C767.5,151.7 768.8,150.5 769.8,149.6 L769.7,149.6 L770.2,149.1 C771.5,147.8 773.5,146.8 772.9,148.1 C772.3,149.4 770.7,154 772.4,154.3 C773.1,154.4 774.2,153.8 775.3,153.1 C776.4,152.4 777.4,151.6 778.3,151.1 C778.7,150.9 779,150.7 779.1,150.8 C779.8,151 780.9,154.4 780.2,156 C779.6,157.5 779.6,160.1 780.4,159.9 C780.6,159.8 780.8,159.7 781,159.5 C781.4,159.3 782,158.7 782.5,158.3 L782.4,158.3 C782.9,158 783.3,157.8 783.5,158.1 C783.9,158.9 786.1,160.4 785,163.3 C783.9,166.1 781.7,167.2 784.3,169 C786.1,170.2 787.1,169.9 788.2,169.1 C788.8,168.7 789.4,168.2 790.2,167.7 C790.5,167.5 790.7,167.2 791,166.9 C791.6,166 792.1,164.8 792.4,163.5 L792.7,163.5 C793.2,161.7 793.2,159.8 792.7,158.9 C792.6,158.7 792.5,158.6 792.3,158.4 L791.7,158.4 C791.1,157.4 790.2,156.1 789.6,155 L790.1,155 C789.4,153.9 788.9,152.8 788.9,152.2 C788.9,152 789,151.8 789.3,151.7 C790.2,151.3 791.5,150.9 792.3,150.3 C792.5,150.2 792.7,150.1 792.8,149.9 L792.6,149.9 C792.8,149.7 792.9,149.4 792.9,149.1 C792.9,148.1 793.3,147.2 793.8,146.5 L794,146.5 C794.6,145.6 795.4,144.9 796.3,144.5 C796.3,144.5 796.4,144.4 796.5,144.4 C797.5,143.8 798.7,142.3 799.5,141.6 C799.7,141.5 799.9,141.5 800,141.7 C800.6,142.7 804.1,143.8 805.5,142.7 C805.8,142.6 806,142.4 806.2,142.2 C806.4,142 806.6,141.7 806.8,141.4 L806.6,141.4 C807.4,140.5 808.5,139.3 809.9,138 L810.1,138 C811.8,136.3 813.7,134.4 815.4,132.9 L815.3,132.9 L816.1,132.1 C817.1,131.3 817.9,130.4 818.6,129.5 L818.8,129.5 C820,127.9 820.9,126.2 821.5,124.4 L821.2,124.4 C821.5,123.6 821.7,122.7 821.9,121.8 C822,121.5 822.1,121.2 822.1,121 L822.5,121 C823,119 823.6,117.4 823.9,115.9 L823.5,115.9 C823.7,115 823.8,114 823.6,113.1 C824.9,116.7 825.1,119.3 824.9,122.1 C824.7,124.9 824.9,130.9 825.3,131.6 C825.7,132.4 827.5,134.2 828.6,133.7 C828.7,133.7 828.7,133.5 828.8,133.5 C828.9,133.5 829,133.5 829,133.4 C829.2,133.3 829.3,133.1 829.3,132.9 L828.9,132.9 C829,132.1 828.8,130.7 828.5,129.5 L829,129.5 C828.8,128.3 828.5,127.2 828.5,126.7 C828.5,126 829.3,125 830.1,124.4 C830.3,124.3 830.4,124.2 830.5,124.2 C831,124 831,122.6 830.6,121 L831.1,121 C830.8,119.7 830.4,118.3 829.9,117.5 C829.5,116.9 829.1,116.4 828.8,116 L828.2,116 C827.6,115.3 827.3,114.9 827.8,114.7 C828.5,114.5 829.2,113.4 829.3,112.6 L829.6,112.6 C829.8,112.2 829.8,111.8 829.5,111.6 C828.8,111.1 829.3,109.3 827.7,109.8 C826.9,110.1 824.9,109.8 824.1,110.6 C823.8,110.7 823.6,110.9 823.5,111.1 C822.8,109.2 821.6,108 820,108.2 C818,108.5 816.9,109.7 814.9,109.7 C813.7,109.7 813.8,108.4 813.9,107.4 L813.5,107.4 C813.5,106.8 813.5,106.4 813.2,106.4 C812.7,106.4 811.9,107.4 811.1,108 C810.6,108.3 810.1,108.4 809.6,107.7 C809.6,107.6 809.6,107.5 809.5,107.4 L809,107.4 C808.8,105.7 812.5,103.7 815.5,102.5 C815.9,102.3 816.4,102.1 816.8,101.8 C817.8,101.2 819,100.1 820.2,98.9 L820.1,98.9 C821.3,97.7 822.5,96.5 823.6,95.5 L823.7,95.5 C824.4,94.8 825.1,94.2 825.8,93.8 C826.1,93.7 826.3,93.5 826.5,93.5 C828.7,93.2 834.2,94 839,93.8 C843.9,93.5 845.4,91.2 847,92.5 C848.5,93.8 851.9,95.3 853.8,95.1 C854.9,94.9 855.1,94.9 855.6,94.6 C856.1,94.4 856.5,93.9 858.4,92.3 C859.2,91.6 860,91 860.7,90.5 C862.5,89.3 864,88.3 865,87.1 L865.2,87.1 L865.9,86.4 C866.3,85.9 866.8,85.5 867.3,85.1 C869.1,84 871.3,83.6 871.4,85.1 C871.6,87.2 871,89.2 872.7,89.2 C874.5,89.2 877.1,87.1 879.3,86.1 C880.6,85.5 881.8,84.8 882.5,84.3 C882.8,84.1 883,84 883.2,83.9 C882,84.8 874.6,90.8 872.3,92.4 C870.7,93.4 867.9,94.2 865.6,95.6 C864.3,96.3 863.1,97.1 862.3,98.2 C860.1,101.3 858.8,102.3 859,105.7 C859.2,109.1 863,113.4 861.2,116.5 C859.4,119.6 858.8,124 858.8,124 C858.8,124 859.6,122.7 860.9,121.1 L861.1,121.1 C862.2,119.7 863.8,117.9 865.6,116.5 C865.8,116.3 866,116.2 866.2,116 L866.1,116 C867.4,114.9 868.4,113.7 869.3,112.6 L869.5,112.6 C870.9,110.8 872,109.1 872.8,108.3 C873,108.1 873.1,108 873.3,107.9 C875,106.9 877.7,106.5 877.7,105 C877.7,104.7 877.7,104.4 877.8,104.2 L878.2,104.2 C878.4,102.6 879.1,100.8 879.7,99.1 L879.4,99.1 C879.4,99 879.5,98.9 879.5,98.8 C880.1,97.1 878.8,97.1 879.2,95.7 L879.5,95.7 C879.6,95.4 879.7,95 880,94.4 C880.7,92.9 881,91.6 882.4,90.8 C883.4,90.3 884.9,90.1 887.3,90.1 C894.3,89.8 892.1,90.3 897.4,90 L897.4,90 Z M544.7,272.4 C545.6,274.1 543.5,278.7 541.5,280.2 C541.2,280.4 541,280.4 540.6,280.4 C539.8,280.2 539.4,279 539.4,277.5 L539,277.5 C539,276.3 539.1,275 539.3,274.1 L539.7,274.1 C539.8,273.5 540,272.9 540.1,272.6 C540.1,272.5 540.3,272.4 540.4,272.2 C541.7,271.6 544.2,271.6 544.7,272.4 L544.7,272.4 Z M536,87.2 C536,87.1 536.1,87 536.2,86.9 L536.5,86.9 C536.7,86.5 536.9,86.2 537.2,86 C539.3,85.2 543.2,88.4 542.3,89.8 C542.1,90 541.9,90.2 541.6,90.3 L539.2,90.3 C537.4,89.8 535.6,88.6 536,87.2 Z M563.6,147.8 C561.8,148.3 556.5,148.8 554.6,148.6 C553.3,148.4 551.7,147.3 550,146.5 L550.9,146.5 C549.9,146 548.8,145.5 547.7,145.3 C545.4,144.9 542.6,145 541.1,146 C540.5,146.3 540.1,146.6 539.8,147.1 C538.7,148.9 534.7,148.1 532.9,148.1 C531.1,148.1 528.9,150.7 528.5,149.7 C528.5,149.7 529,148 529,146.5 L529.4,146.5 C529.5,145.4 529.4,144.5 528.9,144.2 C528.1,143.9 528.5,142.5 529.2,141.3 L529,141.3 C529.4,140.7 529.9,140.1 530.3,139.8 C530.8,139.4 531.4,138.7 532,137.9 L532.2,137.9 C533.1,136.6 534.1,135 534.9,133.3 C535,133.1 535.1,133 535.3,132.8 L535,132.8 C536.2,131 537.7,130.8 538.7,131 C539.8,131.2 542.2,135.9 542.9,137.4 C543.3,138.5 544.5,137.8 545.5,137.2 C546.1,136.8 546.7,136.4 547.1,136.1 C548,135.6 549.3,134 549.6,132.7 L549.2,132.7 C549.7,131.6 551.5,130.9 553.5,130.9 C555.1,130.9 554.5,132 553.5,132.8 C553.2,133 552.9,133.1 552.6,133.2 C552.3,133.3 552.1,133.4 552,133.5 C550.8,134 551.7,135 554.2,136 C556.8,137 559.3,139.9 562.1,141.7 C565,143.7 565.4,147.3 563.6,147.8 L563.6,147.8 Z M598,135.2 C596.7,135.9 593.4,136.3 592.2,134.9 C591.5,134.1 590.3,134.2 589.3,135 C588.2,135.6 587.3,136.8 587.2,138.3 C587,141.2 588.1,139.1 589.4,140.1 C590.7,141.1 591.2,142.7 592,144.2 C592.9,145.7 594.4,145.2 595.5,146.5 C596.6,147.8 592.4,149.3 594.2,150.9 C596,152.4 596.8,158.6 597.1,160.2 C597.1,160.5 596.9,160.8 596.6,161.1 C595.1,161.9 592.2,162.2 591.1,162 C589.6,161.7 584.9,159.9 583.4,159.4 C583.1,159.3 582.8,158.9 582.5,158.4 L582,158.4 C581.6,157.4 581.4,156.1 581.4,155 L581.8,155 C581.8,154.1 582,153.4 582.3,153 L582.5,153 C583.5,153.1 584.2,153 584.8,152.5 C585.5,152.1 586.2,151.3 587.5,149.9 L587.3,149.9 C588.7,148 584.8,147 582.9,146.5 L584.3,146.5 C583.7,146.3 583.1,146.2 582.7,146 C581.7,145.7 580.2,143.5 579,141.3 L578.4,141.3 C577.7,140 577,138.9 576.6,138.2 C576.5,138.1 576.5,138 576.4,137.9 L576.9,137.9 C576.1,136.5 576.4,134.6 577.8,132.8 L577.6,132.8 C578,132.4 578.4,131.9 578.9,131.5 C580.2,130.5 583.7,132.8 585.5,131.5 C586.4,130.8 587.4,130 588.2,129.4 L588.3,129.4 C588.9,128.9 589.4,128.5 589.8,128.1 C590.7,127.8 594.8,129 595.4,130.5 C596.2,132.1 598.8,134.4 598,135.2 L598,135.2 Z M722.6,35.8 C722.8,34.9 722.2,34.7 722.1,35.3 C721.9,34.9 721.3,35.2 722,36.5 C722.2,36.2 722.2,36 722.2,35.7 L722.6,35.7 L722.6,35.8 L722.6,35.8 Z M590.3,56 C591.6,56.5 594.5,56.8 596.9,58.3 C599.1,59.7 602.1,60.3 603.9,59 C604.2,58.8 604.5,58.6 604.8,58.3 C605.3,57.7 605.5,57 605.4,56.3 L604.9,56.3 C604.7,55.3 604.1,54.4 603.5,54.2 C603,54.1 602.6,53.6 602.6,52.9 L603.1,52.9 C602.9,52.1 603.4,50.9 605.1,49.8 C606,49.2 606.9,48.6 607.9,48 C609.8,46.8 611.8,45.8 613.9,45.4 C617.2,44.9 624.7,44.6 627.4,45.4 C628.5,45.7 629.8,45.2 631.1,44.3 C633,43.1 634.8,41.1 635.5,40 C635.7,39.7 635.7,39.5 635.6,39.2 L635,39.2 C634.3,38 631.2,37.5 630.2,39.2 C630.1,39.3 630,39.4 629.8,39.5 C627.7,40.8 622.7,40.4 621.5,40 C620.2,39.5 609.6,42.1 607.4,42.1 C606.8,42.1 606.3,42.4 605.8,42.7 C604.4,43.5 603.3,45.7 600.8,47 C600.3,47.2 599.8,47.5 599.2,47.8 L599.1,47.8 C596.5,49.2 593.6,50.8 592.3,51.4 C592.2,51.4 592.2,51.5 592.1,51.6 C592.1,51.6 592,51.7 591.9,51.7 C590.5,52.4 588.9,55.5 590.3,56 Z M815.4,160.7 C814.7,160.7 812,161.9 810.1,163.1 C809.3,163.6 808.5,164.1 808.1,164.6 C806.8,166.2 800.4,163.3 799.5,164.6 C798.6,165.9 796.9,167.4 795.7,168.5 C794.9,168.9 793.7,169 793,169.5 C792.3,169.8 791.9,170.4 792.1,171.8 C792.8,174.9 794.3,177.7 795.6,177.7 C796.2,177.7 796.8,177.5 797.4,177.1 C798,176.8 798.5,176.3 798.8,175.4 L798.4,175.4 C798.6,175 798.6,174.5 798.6,173.9 C798.6,171.1 801.7,173.9 803.2,173.6 C804.1,173.4 804.7,172.8 805.2,172 L805.4,172 C805.8,171.4 806.1,170.6 806.4,169.8 C806.6,170.4 806.9,171 808,171.3 C809.2,171.6 810,171.4 810.6,171 C811.6,170.5 811.9,169.5 811.9,169 C811.9,168.9 812,168.8 812.2,168.7 C813.5,168 816.6,167.1 817.3,166.5 C818.1,165.8 821.3,164.6 821.8,163.6 L822.1,163.6 C822.2,163.4 822.3,163.3 822.4,163.2 C822.5,162.6 822.5,160.4 822.7,158.5 L822.3,158.5 C822.5,157.2 822.7,156.1 823.1,156 C823.6,155.8 824.3,155.6 824.6,155.2 L824.8,155.2 C825.4,154.8 825.6,153.9 824.5,151.7 C824.2,151.2 824,150.6 823.8,150.1 L823.3,150.1 C822.8,148.7 822.4,147.4 821.9,146.7 L822.4,146.7 C821.9,145.9 821.4,145.6 820.5,146.2 L820.4,146.3 L820,146.5 C818.4,147.6 819.3,152.2 818,155.3 C817.2,157.6 816.3,159.9 815.4,160.7 L815.4,160.7 Z M753.9,299.3 C754.2,299.2 754.4,299.1 754.5,298.8 C754.7,297.3 752.1,294.9 751,294.9 C750.7,294.9 750,294.8 749.2,294.6 L747.6,294.6 C745.8,294.2 743.9,293.6 743.9,293.6 C743.1,294 742.1,294.3 741.5,294.8 C741.4,294.7 741.4,294.6 741.3,294.6 L740.6,294.6 C740.5,294.5 740.5,294.5 740.3,294.4 C737.9,292.9 735,294.4 734.1,292.3 C733.9,291.8 733.6,291.4 733.4,291.2 L734,291.2 C733.3,290.3 732.6,290.3 731.9,290.8 C731.5,290.9 731.2,291.2 731,291.6 C729.4,294 731.4,295.7 732.1,296.3 C732.8,296.8 735.2,297.3 737.4,297.1 C738.7,297 740.2,296.6 740.8,296.1 C740.9,296.1 740.9,296 741,296 C741.1,296.2 741.2,296.5 741.5,296.9 C743.3,298.7 744.4,299.5 747,299.2 C749.7,298.8 753.2,300.3 753.9,299.3 L753.9,299.3 Z M765.6,302.1 C765.2,304 767.5,305 768.6,303.9 C768.9,303.7 769.2,303.5 769.3,303.1 L769,303.1 L769,302.9 C769.3,300.3 766,300.1 765.6,302.1 L765.6,302.1 Z M765.3,285.1 C766.5,286 768.3,283.7 769.7,282.7 L769.8,282.7 C770,282.6 770.2,282.4 770.3,282.3 C770.7,282.1 771.1,282.1 771.3,282.5 C772.2,284.3 771.1,285.1 772.6,287.4 C774.2,289.7 777,289.5 777,289.5 L777,289.2 L777.4,289.2 C777.4,289.2 777.4,287.7 777,286.1 L776.5,286.1 C776.3,284.9 775.9,283.6 775.3,282.7 L775.8,282.7 C775.5,282.2 775.2,281.8 774.7,281.5 C773.1,280.5 771.9,279.4 772.1,278.9 C772.4,278.9 772.7,278.9 773.2,279 C774.8,279.3 776,279 776.6,278.4 C776.9,278.2 777.2,278 777.3,277.6 L777,277.6 C777,277.3 777,277 776.9,276.6 C776.2,275.1 772.1,275.8 770.7,276.1 C769.4,276.3 767.4,275.1 767.4,275.1 C766.1,275.6 766.3,276.9 765.9,279.5 C765.6,282 763.6,283.8 765.3,285.1 L765.3,285.1 Z M791.4,266.3 C789.4,265.3 785.6,274.8 788.3,275.6 C789,275.8 789.7,275.2 790.3,274.2 L790.6,274.2 C791.4,272.9 792,270.8 792.2,269.1 L791.8,269.1 C792,267.6 791.8,266.5 791.4,266.3 Z M755.6,258.3 C751.5,258.3 751.2,262.2 750.3,263 C750.2,263.1 750,263.2 749.9,263.3 C749.2,263.7 748.5,263.9 747.2,264.3 C746.8,264.4 746.5,264.6 746.1,264.9 C744.9,265.7 744.5,267.3 744.1,268.4 C743.7,269.7 740.6,266.1 739.7,267.1 C738.8,268.1 739.5,273 741,277.2 C742.5,281.3 746.5,283.9 747.6,283.9 C748.7,283.9 750.9,283.9 752.5,284.4 C754,284.9 759.1,285.4 758.9,283.1 L758.9,282.7 L759.3,282.7 C759.1,281.3 758.9,279.4 759.3,277.6 L759,277.6 C759.2,276.6 759.7,275.6 760.4,274.8 L761,274.2 L761.2,274.2 C762.9,272.5 764.5,271.2 764.4,269.1 L764,269.1 C764,268.7 763.9,268.3 763.7,267.8 C763.5,267 763.1,266.3 762.8,265.6 L763.3,265.6 C762.2,263.3 761.1,261.8 762.3,260.5 L762.2,260.5 C763.6,259.2 765.2,258.6 765.2,257.4 C765.2,256.5 763.4,258.6 762.1,257.1 L762.8,257.1 C762.1,256.6 761.6,255.2 761.4,252.3 C761.4,252.2 761.4,252.1 761.3,252 L760.7,252 C760.5,251.9 760.2,251.9 759.9,252 L759.8,252 C759.7,252 759.6,252.1 759.5,252.2 C758.5,252.7 757.4,253.9 757.2,254.9 C757.2,256.7 759.8,258.3 755.6,258.3 L755.6,258.3 Z M766.7,226.5 C768,229.6 772.6,231.9 771.5,233.2 C770.4,234.5 767.1,237.1 766.7,239.4 C766.5,240.2 767.1,240 767.9,239.4 C769,238.7 771.1,236.7 772.5,235 L772.3,235 C772.8,234.4 773.2,233.9 773.4,233.5 C774.8,231.4 777.5,232.3 778.5,231.4 C778.8,231.3 779,231.2 779.2,230.9 L779.8,229.6 C779.8,229.6 777.4,229.1 775.4,228.3 C773.5,227.5 771.1,230.2 772,226.5 L771.7,226.5 C772.2,224.6 773.2,223.8 774,223.1 L774.1,223.1 C775.2,222.1 776.2,221.7 775.9,219.8 C775.7,219.1 775.5,218.5 775.2,218 L774.6,218 C773.7,216.6 772.4,216.2 772,216.2 C770.4,216.2 772.2,219 770,220.8 C767.8,222.6 765.3,223.4 766.7,226.5 L766.7,226.5 Z M24.1,107.6 C23.5,107.4 23.2,107.5 22.9,107.8 C21.9,108.1 22.1,110.3 21.1,111.3 C21,111.4 20.9,111.5 20.7,111.5 C19.8,111.7 18.7,112.1 18,112.5 L18.1,112.5 C16.8,113.1 16,113.8 17.2,114.1 C19,114.6 23,113.9 23.4,113.1 C23.4,113 23.5,112.8 23.6,112.5 L24,112.5 C24.4,111.2 24.7,107.8 24.1,107.6 L24.1,107.6 Z M29,69.9 L29.6,69.9 L29.4,69.7 L29,69.9 Z M23,90.3 C22.8,90.4 22.4,90.6 21.7,90.8 C21.6,90.9 21.5,90.9 21.5,91 C21.4,91 21.3,91 21.3,91.1 C20.4,91.4 22.9,93.2 23.7,93.2 C23.9,93.2 24.1,93.1 24.3,92.9 C25,92.7 26,91 25.4,90.4 L23,90.4 L23,90.3 Z M796.1,308.2 C795.6,307.7 795.5,307.8 795.5,308.2 L796.1,308.2 Z M890.3,340.3 C890.5,339.4 890.1,338.1 888.4,337.2 L887.5,337.2 C886.9,336.9 886.3,336.7 885.5,336.5 C881.5,335.5 884.2,337.3 885.5,339.6 C886.6,341.5 888.5,342.6 889.4,341.6 C889.9,341.4 890.2,341.1 890.3,340.3 Z M918.5,388.2 C918.3,387.9 918,387.8 917.7,387.8 C917.3,387.8 917,388.1 916.6,388.2 L915.3,388.2 C915.1,388.1 914.8,388 914.4,387.8 C912.5,386.6 912.8,386.9 911.7,384.8 L912.2,384.8 C912.1,384.6 912,384.4 911.9,384.1 C911,382.5 910.7,380.5 909.9,379.6 L909.2,379.6 C908.8,379.4 908.4,379.3 907.8,379.7 C906.9,380.2 907.8,383.1 908.7,384.1 C909.6,385.1 910,388.8 909.8,389.8 C909.6,390.8 905.9,392.1 907.6,393.4 C909.4,394.7 912.7,393.4 912.2,394.9 C911.8,396.5 910,398.5 912,399 C912.7,399.2 913.3,399 913.8,398.5 C914.4,398.1 914.9,397.4 915.2,396.6 L914.9,396.6 C915.1,396.2 915.3,395.8 915.4,395.4 C915.8,394.6 916.1,393.9 916.5,393.2 L916.8,393.2 C917.3,392.2 917.9,391.4 918.9,390.8 C919.9,390.1 919.6,388.9 919,388.2 L918.5,388.2 L918.5,388.2 Z M924.3,322 C923.8,321.8 923.2,322 922.6,322.5 C920.6,323.6 917.9,327.7 917.9,327.7 C919.5,328.4 921.8,326.9 923.1,325.3 L923.3,325.3 C924.6,323.9 925.2,322.3 924.3,322 Z M733,39.2 L732.8,39.2 C733,39.3 733.1,39.3 733,39.2 Z M208.2,43.6 C207.7,43.8 207.3,44.1 207.1,44.7 C206.5,46.5 213,47.5 212.3,45.4 C212.1,45 211.9,44.7 211.6,44.4 L212.3,44.4 C211.3,43.1 209.3,42.8 208.2,43.6 L208.2,43.6 Z M203.1,49.5 C201.9,48.6 198.1,49.2 197.1,49.7 C196,50.2 193,48.8 191.3,50 L191.3,50.1 C191.2,50.2 191,50.2 191,50.3 C190,51.1 190.5,53.6 192.2,53.7 C193.8,53.9 196.6,52.5 196.9,53.5 C197.2,54.5 198.3,59.2 200.9,57.6 C201.1,57.5 201.2,57.4 201.3,57.4 C202,57 202.5,56.6 202.9,56.2 L202.7,56.2 C203.5,55.3 203.6,54.7 204.1,54.6 C204.4,54.5 204.4,53.8 204.2,52.8 L204.7,52.8 C204.4,51.6 203.8,50 203.1,49.5 L203.1,49.5 Z M907.7,396.7 L907,396.7 C906.5,396.3 906.1,396 906,396.3 C905.9,396.8 905.5,397.1 905.1,397.4 C904.6,397.7 904.2,397.9 903.7,398.3 C903.3,398.5 902.9,398.8 902.5,399.2 C901.2,400.5 902.5,401 898.8,403.6 C895.1,406.2 890.4,409 889.5,411.3 C888.6,413.6 890.4,414.9 893.9,415.2 C896.2,415.4 896.6,415.7 897.3,415.1 C897.7,414.9 898,414.6 898.6,413.8 L898.4,413.8 C898.6,413.6 898.7,413.4 898.9,413.1 C899.7,412.1 900.5,411.2 901.3,410.4 L901.4,410.4 C903.1,408.6 904.8,407.2 906.8,405.4 L906.9,405.3 L906.7,405.3 C907.8,404.2 908.4,403 908.7,401.9 L909.1,401.9 C909.7,400.3 909.7,398.9 909.7,398.9 C909.7,398.9 908.6,397.6 907.7,396.7 L907.7,396.7 Z M185.9,40.9 C185.7,41 185.5,41.1 185.5,41.2 C184.4,42.3 185.5,45.8 185.1,46.2 C184.7,46.5 185.2,48.1 186.4,47.7 C187.4,47.4 188,45 188.7,44.3 L188.9,44.3 L189.1,44.1 C190,44.1 194.5,42.9 195.3,44.8 C196,46.7 196,45.8 198.1,46 C199.3,46.1 200.4,45.2 201.1,44.3 L201.3,44.3 C201.9,43.6 202.3,42.8 202.4,42.4 C202.6,41.5 201.3,39.8 198.6,40.2 C195.6,40.6 187.1,39.7 185.9,40.9 L185.9,40.9 Z M774.3,238.4 C774.2,238.4 774.1,238.5 774,238.6 L773.8,238.6 C773.1,238.9 771.2,243.5 773.6,243.5 C776,243.5 780.2,244.3 779.3,243 C778.9,242.4 778.1,241.1 777.2,240.1 L777.8,240.1 C777,238.9 775.7,237.8 774.3,238.4 Z M781.9,269.1 L781.5,269.1 C781.5,269 781.4,268.9 781.3,268.9 C781.1,268.9 780.5,269 779.7,269.1 L778.7,269.1 C776.7,269.5 774.3,270 773.9,270.2 C773.2,270.4 769.3,269.7 769.3,269.7 C769.2,269.8 769.2,269.9 769.1,270 L768.9,270 C767.4,271.8 768.5,273.6 770.9,273.3 C773.4,273.1 778.4,272.3 779.5,272.3 C779.7,272.3 779.9,272.1 780.1,272 C780.9,271.6 781.8,269.9 781.9,269.1 L781.9,269.1 Z M782.3,244.1 C782.2,244.3 782.1,244.4 782,244.5 C781.9,244.4 781.8,244.4 781.8,244.4 C780.7,246.1 780,247 779.5,247.5 C778.9,247.8 778.3,247.3 777.2,246.7 C776.2,246.3 775.1,246.6 774,247.3 C772.5,248.1 771.3,249.8 771.7,250.6 C772.4,251.9 777.2,250.3 778.3,252.7 C779.4,255 779.4,255.3 781.6,254.7 C782,254.6 782.4,254.4 782.8,254.2 C783.6,253.8 784.4,253 784.9,252.1 L784.7,252.1 C785.4,250.9 785.7,249.7 785.4,248.8 L785.4,248.7 L785.9,248.7 L785.9,248.5 C785.1,246.7 782.3,244.1 782.3,244.1 L782.3,244.1 Z M730.9,291.2 C731,290.9 731.1,290.5 731.1,290 C731.1,288.7 731.2,287.4 731.4,286.1 L731,286.1 C731.2,284.7 731.6,283.5 732.1,282.7 L732.4,282.7 C732.5,282.5 732.6,282.4 732.7,282.3 C733.8,280.8 733.3,278.4 731.6,278.7 C730.9,278.8 730.3,278.4 729.6,277.6 L729,277.6 C728.1,276.7 727.2,275.4 726,274.2 L726.7,274.2 C726.3,273.8 725.8,273.4 725.4,273 C723.7,271.6 722.2,270.5 720.7,269.1 L720,269.1 C719.1,268.2 718.2,267.3 717.2,266 C717.1,265.9 717,265.8 716.9,265.6 L717.6,265.6 C715.9,263.5 713.9,261.9 712.3,260.5 L711.6,260.5 C710.9,259.9 710.2,259.3 709.6,258.7 C708.9,258 708,257.5 707.2,257.1 L708.1,257.1 C706.7,256.3 705.2,256 704.5,256.2 C704.2,256.3 704,256.4 704,256.5 C701.6,257.3 708.1,262.7 708.8,263.4 C709.4,264.2 715.4,270.1 715.4,273 C715.4,275.8 717.3,284.7 718.4,285.7 C719.5,286.7 727,288.5 727.9,290.6 C728.7,292.4 730.3,293 730.7,291.3 L730.9,291.3 L730.9,291.2 Z M772.1,196.8 C771.8,196.9 771.5,197 771.2,197.3 C768.2,198.6 766.6,205.9 769.1,205.6 C769.4,205.6 769.7,205.4 770,205.2 C771.1,204.6 772.2,202.8 772.8,201 L772.5,201 C772.9,199.6 773,198.3 772.7,197.6 L773.2,197.6 C773.1,197 772.7,196.7 772.1,196.8 Z M718.1,248.4 C717.3,247 715.3,244.8 714,243.5 L713.3,243.5 L712.6,242.8 C710.8,243.1 710.8,246.9 711.7,248.2 C712.6,249.5 714.4,248.7 715.5,253.4 C716.6,258 718.8,262.7 719.7,264.5 C720.6,266.3 724.4,268.9 725.7,270.2 C726.3,270.9 727.2,270.7 727.7,270.2 C728.1,270 728.5,269.6 728.6,269.1 L728.2,269.1 C728.3,268.8 728.2,268.4 728,268.1 C727.6,267.4 727,266.6 726.5,265.7 L727,265.7 C726.3,264.5 725.6,263.3 725.4,262.2 C725.4,261.7 725.2,261.2 725.1,260.6 L724.6,260.6 C724.3,259.6 723.9,258.4 723.3,257.2 L723.8,257.2 C723.4,256.3 722.9,255.4 722.4,254.5 C721.8,253.5 721.3,252.8 720.8,252.1 L720.2,252.1 C719.2,250.9 718.3,250.1 717.6,248.8 L717.5,248.7 L718,248.7 C718.2,248.6 718.2,248.5 718.1,248.4 L718.1,248.4 Z M781.6,297.4 C781.3,297.5 781.1,297.7 780.8,298 C779.5,300.1 777.1,302.1 777.3,303.9 C777.5,305.4 778.9,304.8 780.1,304 C780.5,303.7 781,303.4 781.4,303.1 L781.3,303.1 C781.8,302.7 782.1,302.4 782.1,302.4 C782.1,302.4 785.6,301.9 785.6,300.1 C785.6,300 785.6,299.9 785.5,299.7 L786,299.7 C785.9,298 783,296.1 781.6,297.4 L781.6,297.4 Z M783,235 L782,235 C781.8,234.9 781.5,234.8 781.2,234.8 C780.3,234.7 777.4,240.2 781.4,239.9 C782.1,239.9 782.6,239.6 783,239.3 C785,238.5 784.6,236.1 783,235 L783,235 Z M841.9,396.7 C841.3,396.6 840.2,397.3 839.1,398 C839.1,398 839,398.1 838.9,398.1 C837.8,398.8 836.7,399.5 836.3,399.4 C835.2,399.1 832.8,398.1 832.8,398.1 C832.7,398.2 832.6,398.3 832.6,398.4 C832.5,398.4 832.4,398.3 832.4,398.3 C830,401.1 834.9,401.1 834.2,404 C833.5,406.8 837.5,405.8 838.6,405.3 C839.1,405 840,403.5 840.7,401.8 L841,401.8 C841.9,400 842.5,397.9 842.2,397 C842.2,396.9 842.1,396.8 841.9,396.7 L841.9,396.7 Z M857.3,362.7 C857,361.6 856.6,360.5 856.2,359.3 L856.7,359.3 C856.1,357.6 855.4,355.9 854.6,354.2 L854.1,354.2 C853.6,353 853,351.9 852.5,350.8 L853,350.8 C852.3,349.5 851.7,348.2 851.2,347.3 C850.9,346.8 850.7,346.2 850.4,345.7 L849.9,345.7 C849.4,344.5 849,343.4 848.6,342.3 L849.1,342.3 C848.5,340.4 848.2,338.6 848.1,337.2 L847.7,337.2 L847.7,336.4 C847.9,334.9 844.9,334.5 842.2,333.8 L843.8,333.8 C841.8,333.4 839.7,332.9 838.8,332.1 C838,331.4 837.5,330.2 837.1,328.7 L836.6,328.7 C836.3,327.6 836.1,326.4 835.9,325.3 L836.3,325.3 C836.1,324 835.8,322.8 835.4,321.8 C835.2,321.2 834.9,320.7 834.7,320.2 L834.2,320.2 C833.5,319 832.7,317.9 831.8,316.8 L832.4,316.8 C831.6,315.9 830.8,314.9 829.9,313.8 C829.5,313.2 829.1,312.5 828.7,311.7 L828.2,311.7 C827.7,310.6 827.3,309.4 827,308.3 L827.5,308.3 C826.9,306.4 826.4,304.8 826.1,305.1 C826,305.1 825.9,305.3 825.9,305.4 C825.8,305.3 825.7,305.3 825.7,305.4 C825,305.9 823.1,313.4 824.6,315.7 C826.1,318 823.9,322.6 822.8,325.8 C822,328 820.5,326.8 818.8,325.4 L819.5,325.4 C818.7,324.7 817.9,324 817.2,323.4 C815.5,322.2 813.4,321.4 811.8,320.3 L811,320.3 C810.6,320 810.2,319.7 809.9,319.3 C809.4,318.7 809.5,317.8 809.8,316.9 L810.1,316.9 C810.5,315.3 811.7,313.3 811.9,311.8 L811.5,311.8 C811.5,311.4 811.5,311.1 811.3,310.8 C810.2,309 804.2,310.6 803.6,310.6 C803.1,310.6 802.2,309.1 801.3,308.4 L802,308.4 C801.6,308 801.1,307.7 800.7,307.7 C800.5,307.7 800.4,307.8 800.3,308 C799.3,308 799.2,310.9 799.2,312.3 C799.1,312.1 799,312 798.8,311.8 L798.2,311.8 C797.6,311.1 796.8,310.1 795.9,309 C793.9,306.7 796.1,310.6 794.1,312.9 C792.1,315.2 792.8,314.4 791.9,317 C791.1,319.3 789.5,318.8 787.8,316.9 L788.5,316.9 C788.1,316.6 787.8,316.2 787.4,315.7 C786,313.9 785,314.3 784.1,314.9 C783.6,315.2 783.1,315.7 782.6,316 C781.3,316.8 780.2,320.9 779.6,322.1 C778.2,322.4 772.9,320.2 771.8,321.4 L771.8,321.5 C771.6,321.6 771.5,321.6 771.4,321.7 C770.3,323 771.6,331.3 771.6,332.3 C771.6,332.4 771.5,332.4 771.5,332.5 C770.3,332.9 767.1,332.8 765.9,333.9 C765.8,334 765.7,334 765.7,334.1 C765.6,334.1 765.5,334.2 765.5,334.2 C763.9,335.5 761.5,334.7 760,334.7 C758.4,334.7 753.2,339.6 751.4,340.9 C749.6,342.2 746.6,346.8 747.5,348.1 C748.4,349.4 753.1,352.5 752,353 C750.9,353.5 750.2,357.1 752.9,360.2 C755.5,363.3 754.7,364.1 754.9,365.6 C755.1,367.2 756.2,367.7 758,370.3 C759.8,372.9 754.9,374.9 754.3,376.5 C753.6,378.1 755.9,380.4 757.1,381.7 C758.4,383 761.8,382.2 763.7,381.4 C765.7,380.6 767.9,378.6 769.2,378.3 C770.5,378 778,380.5 778,380.5 C778,380.5 778,380.3 778.1,380.1 C778.3,380.2 778.4,380.2 778.4,380.2 L778.4,380 L778.1,380 C778.2,379.3 778.4,378 778.7,376.6 L779.1,376.6 C779.5,374.7 780.1,372.6 780.9,371.6 L781,371.5 L780.9,371.5 C782.7,370.1 786.9,371.6 786.9,371.6 C786.9,371.6 788.9,370.1 794.2,368.8 C799.5,367.5 797.3,370.1 799.3,370.9 C801.3,371.7 803.9,372.2 805.5,373.5 C807,374.8 805.5,377.9 805.3,379.2 C805.1,380.5 809,380 809.3,378.7 C809.4,378.1 809.7,377.4 810.3,376.8 L810.5,376.8 C811,376.1 811.8,375.3 813,374.5 C814.8,373.4 813.3,377 814.1,379.2 C815,381.5 816.3,376.1 816.3,378.7 C816.3,379.5 817,380.2 817.2,381 C817.4,381.8 820.3,382 820.3,384.6 C820.3,387.2 820.3,388.7 821,389.3 C821.7,389.8 825.2,389.3 826.7,392.4 C827.5,394 828.2,394 828.8,393.4 C829.5,393.1 830.2,391.8 830.7,391.1 C830.7,391 830.8,391 830.9,391 C832.1,390.6 834.4,392 835.2,392.9 C835.6,393.3 836.3,393 837.2,392.4 C837.7,392.1 838.3,391.7 838.9,391.3 C839.8,390.7 840.8,390.2 841.9,389.8 C845.2,388.8 844.8,389 845.6,387.5 C845.9,387 846.1,386.2 846.5,385.3 L846.8,385.3 C847.3,383.9 847.8,382 848.7,380.2 L848.4,380.2 C848.6,379.7 848.9,379.2 849.2,378.7 C849.6,378.1 850.2,377.5 850.8,376.8 L851,376.8 C852.5,375.3 854.4,373.5 856.1,371.7 L855.9,371.7 C856.9,370.6 857.7,369.4 858.1,368.3 L858.4,368.3 C858.6,367.7 858.8,367.1 858.8,366.6 C858.8,365.7 858.6,364.5 858.2,363.2 L857.3,363.2 L857.3,362.7 L857.3,362.7 Z M765.1,257.1 L765.7,257.1 C765.7,256.9 765.5,257 765.1,257.1 Z M387.3,56.2 L386.8,56.2 C386.4,55.4 386.1,54.2 385.8,53.4 C385.7,53.2 385.6,53.1 385.6,52.8 L386.1,52.8 C385.6,51.6 385,49.3 386.1,48.2 C386.3,48.1 386.5,48 386.8,48 C389.3,47.7 393.7,50.8 394.6,49.5 C395,49.4 395.2,49.1 395.2,48.6 L395.2,47.7 L394.8,47.7 C394.8,46.5 394.8,45.3 395,44.3 L395.4,44.3 C395.5,43.2 395.7,42.1 396.1,41.4 C396.6,40.5 397.4,39.7 397.8,39.2 L397.5,39.2 C397.6,39 397.6,38.7 397.3,38.6 C396.4,38.1 395.2,39.3 394.2,36.7 C394.1,36.4 394,36.1 394,35.8 L394.5,35.8 C394,33.5 395.6,31.9 396.5,30.9 L396.7,30.7 L396.5,30.7 C397.2,30 398.4,28.7 399.7,27.3 L399.9,27.3 C401.5,25.7 403.2,24 404.7,23 C405.1,22.7 405.5,22.5 405.9,22.4 C407.7,21.8 409.2,20.2 409.6,18.8 L409.9,18.8 C410.4,17.7 410.3,16.7 409.3,16.3 C407.4,15.5 403.7,14.2 400.9,16 C400.5,16.2 400,16.5 399.7,16.9 C396.9,19.7 395.3,22.2 392,21.4 C390.7,21.1 389.8,20 389.1,18.8 L389.6,18.8 C388.6,17.2 388,15.1 387,13.7 L386.4,13.7 C385.7,12.8 385.3,11.6 385,10.3 L385.5,10.3 C385.1,8.4 385,6.5 384.6,5.2 L384,5.2 C383.8,4.4 383.3,3.9 382.5,4.1 L379.7,4.6 C379.7,4.6 376.4,3.9 374.4,4.4 C373.6,4.6 373,4.9 372.3,5.2 L372.1,5.2 C370.8,5.9 369.8,6.6 368.7,6.3 C365.7,5.5 363,7.4 362.2,7.6 C357.3,8.9 353.2,7.9 350.9,7.3 C352.7,7.4 355.4,7.5 357.7,7.1 C360.9,6.5 366.3,5.3 368.9,4.7 C371.5,4.2 369.4,3 368.5,2.8 C367.1,2.6 365.3,2.2 363.4,1.8 L365,1.8 C362.1,1.2 358.9,0.4 356.2,0.2 C353,2.77555756e-17 350.9,1.1 347.7,1.2 C345.1,1.3 342.2,1.2 339.6,1.7 L340.8,1.7 C338.7,1.9 336.7,2.4 335.1,3.6 C334.2,4.3 333.1,4.8 332.1,5.1 L331.7,5.1 C330.2,5.5 329,5.7 328.8,5.9 C328.8,5.9 328.8,6 328.7,6 C328.5,6.1 328.4,6.1 328.4,6.2 C326.8,8.3 325.3,13.4 323.8,12 C323.3,11.5 322.9,10.8 322.6,10.2 L323.1,10.2 C322.4,8.8 321.9,7.4 320.5,8.3 C320.5,8.3 320.5,8.4 320.4,8.4 C320.3,8.4 320.2,8.5 320.1,8.6 C318.2,10 319.9,13.4 318.3,15.8 C318.1,16.1 317.9,16.3 317.6,16.5 C315.5,17.8 312.3,17.4 311.2,16.7 C309.8,15.9 308.5,15.2 303.1,15.5 C299.6,15.7 296,16.7 294.1,17.9 C292.8,18.6 292.1,19.5 292.6,20.3 C293,21.1 292.8,21.7 292.3,22.2 C291.4,22.7 290.2,22.9 289.7,22.3 C289.6,22.2 289.5,22.2 289.4,22.1 L288.3,22.1 C287.7,22.3 287,22.6 286.5,23 C285.3,23.7 284.2,24.8 284.4,25.8 C284.7,27.9 283.7,30.3 281.4,29.8 C279.1,29.3 277.5,31 277.4,32.7 C277.4,33.1 277,33.5 276.6,33.8 C275,34.7 272.4,35.3 272.2,35.3 C271.9,35.3 269.2,35.2 267.9,35.7 L268.8,35.7 C267.3,35.9 266,36.4 267.3,37.5 C268.9,38.9 269.9,38 271.9,38.5 C273.9,39 275.5,42.8 276.6,43.3 C277.5,43.7 278.6,43.5 279.3,42.8 C279.7,42.6 280,42.3 280.3,42 C280.6,41.5 281.1,40.2 281.4,39.1 L281.1,39.1 C281.3,38.3 281.5,37.6 281.5,37.6 C281.5,37.6 281.5,41.1 283.1,41.7 C284.7,42.4 288.7,41.2 289.8,41.4 C290.9,41.6 297.2,42.6 299,43.6 C300.8,44.6 305,45.3 306.2,47.6 C307.4,49.8 307.6,57.6 308.2,58.4 C308.4,58.6 308.7,58.5 309.1,58.2 C309.6,58 310.5,57 311.1,56.1 L310.9,56.1 C311.3,55.6 311.6,55.1 311.8,54.8 C312.3,53.9 315.2,54.5 316.1,55.7 C317,56.9 319.2,59.8 319.1,61 C318.9,62.2 318.6,64.1 317.7,63.4 C316.9,62.7 315.6,62.9 316.1,61.5 C316.1,61.4 316.2,61.3 316.2,61.2 L316.5,61.2 C317,59.8 317.3,56.9 316.2,56.9 L314.2,56.9 C314.2,56.9 313,56.5 311.9,57.4 C311.4,57.7 310.9,58.2 310.4,59 C309.1,61.6 310.1,64.2 311.1,64.2 C312,64.2 314.2,64.2 314.2,64.9 C314.2,65.6 311.9,67.7 312,68.9 C312.2,70.1 313.9,74.2 314.5,75.1 C315,75.9 317.9,76.8 318.6,77 L318.7,77 C318.5,77.1 318.2,77.2 318,77.4 C317.5,77.6 317.1,78 317.4,78.5 C318.1,79.7 319.2,82.6 320.6,83.3 C322.1,84 326.2,87.1 326.8,88.4 C327.3,89.8 330.6,87.4 331.2,87.2 C331.9,87 331.7,90.8 333.6,91 C334.9,91.1 335.6,90.9 336.5,90.2 C336.6,90.1 336.7,90.1 336.7,90 C337,89.7 337.4,89.4 337.8,89.1 C338.5,88.4 338.9,87.5 339,86.6 L339.4,86.6 C339.6,85.6 339.5,84.5 339.6,83.6 C339.7,82.7 339.7,81.9 340,81.5 C340.2,81.4 340.5,81.5 340.9,81.6 C342.7,82.1 343.6,81.3 343.4,79.6 C343.4,79.1 343.2,78.6 343.1,78.1 L343.6,78.1 C343.3,77.1 343.1,76.2 343.8,75.6 C344,75.5 344.3,75.4 344.7,75.4 C346.1,75.1 347.2,74.4 348.1,73.8 C348.4,73.6 348.6,73.5 348.9,73.3 C349.5,72.9 350.1,72.6 350.7,72.6 C352.5,72.6 357.3,73.5 357.8,72.6 C358,72.2 358.7,70.9 359.4,69.6 L359.7,69.6 C360.4,68.4 361.1,67.2 361.8,66.6 C361.9,66.5 362,66.4 362.1,66.4 C363.6,66.2 367.5,67.1 371,66.4 C374.5,65.7 378.2,63.1 379.5,63.3 C380.7,63.5 383.7,63.5 382.7,62.4 C382.4,62.1 382,61.6 381.6,61.1 L382.2,61.1 C381.3,60 380.3,58.7 378.8,58.7 C377.8,58.7 377.2,57.3 376.9,56 L376.4,56 C376.2,54.8 376.2,53.7 376.5,53.7 C377,53.7 382,55.7 381.8,57.5 C381.7,59.2 382.6,61.4 385.3,60.8 C385.8,60.7 386.1,60.5 386.4,60.3 C388.3,59.4 387.9,57.2 387.4,56.6 C387.5,56.6 387.4,56.4 387.3,56.2 L387.3,56.2 Z M274.1,212.3 C272.4,211.8 270.4,212.3 269,212.6 C268.8,212.7 268.4,212.8 268.1,213.1 C266.5,214 263.6,217 263.6,217 C263.6,217 266,217.5 267.5,217.5 C269.1,217.5 270,218.5 271.3,219.3 C272.6,220.1 275,218.3 275.9,218.3 C276.6,218.3 277.5,220.3 277.9,219.3 C278.2,219.4 278.4,219.1 278.5,218 L278.1,218 C278.2,216.5 277.7,215.4 276.9,214.6 L277.6,214.6 C276.6,213.3 275.2,212.6 274.1,212.3 L274.1,212.3 Z M281.8,240.1 L284.1,240.1 C283.4,239.9 282.6,239.9 281.8,240.1 Z M293.9,129.4 C293.7,129.2 293.5,129.2 293.2,129.4 L293.9,129.4 Z M834.5,287.9 C834.1,287.5 833.6,286.8 833.2,286 L832.6,286 C831.7,284.6 830.6,283.2 828.8,282.6 L829.9,282.6 C829.5,282.4 829.2,282.3 828.7,282.2 C825.4,281.4 824.5,280.1 821,278.1 L819.8,277.5 L818.6,277.5 C814.7,276.3 809.1,276.5 808.9,277.6 L808.9,277.7 C808.9,277.7 808.8,277.6 808.7,277.6 L808,277.6 C807.6,277.3 807.1,277 806.2,276.6 C803.6,275.6 801.6,276.6 800.9,274.8 L800.6,274.2 L801.1,274.2 C800.5,273 799.5,272.6 798.3,273.5 C797.8,273.7 797.3,274.2 796.7,274.8 C795,276.7 794.3,276.9 798,277.7 C801.7,278.5 802.9,278.5 801.3,280.5 C799.7,282.6 798.7,285.1 800,285.4 C801.3,285.6 805.3,284.4 805.7,285.4 C806.1,286.4 804.8,286.7 809.2,287.5 C813.6,288.3 814.5,290.1 815.4,291.1 C816.1,291.9 818,294.4 817.7,295.2 L817.6,295.2 C817.1,295.2 816.5,295.4 816,295.8 C814.7,296.5 813.7,298.1 814.8,298.3 C816.1,298.6 820.1,297.5 820.3,298.3 C820.5,299.1 822.7,304 824.9,303.7 C825.3,303.7 825.6,303.5 825.9,303.2 C826,303.2 826.1,303.2 826.1,303.1 L826,303.1 C826.9,302.3 827.6,301 828.3,299.7 L828.6,299.7 C829.1,298.7 829.5,297.7 830,297.2 C830.1,297.1 830.2,297 830.4,296.9 C832.1,296 835.2,295.8 835.6,297.7 C836,300 837.4,302.4 840,303.9 C842.5,305.3 845.3,306.8 845.8,305.9 C846.1,305.9 846.3,305.7 846.3,305.5 C846.4,305.1 846.2,304.2 845.9,303.1 L845.4,303.1 C845,301.9 844.4,300.6 843.8,299.7 L844.4,299.7 C844,299.1 843.6,298.7 843.2,298.5 C842.2,298 840.6,296.3 839.6,294.6 L839,294.6 C838.4,293.5 837.9,292.5 837.9,291.8 C837.9,291.6 837.8,291.4 837.7,291.2 L838.2,291.2 C838.1,289.7 835.8,289.1 834.5,287.9 L834.5,287.9 Z M586.4,311.6 L585.8,311.6 C585.5,311.1 585.1,310.8 584.7,310.6 C581.9,309.7 581.6,314 579.4,316.8 C577.9,318.7 576.3,320.4 575.2,321.2 C574.8,321.4 574.6,321.5 574.3,321.4 C573.9,321.3 572.9,321.6 571.8,322.3 C570.3,323.2 568.7,324.9 569.7,327.4 C571.3,331.3 571,335.2 569.5,337 C568,338.8 570.8,344 570.4,346.8 C570,349.6 571.1,351.4 574.2,351.4 C575.7,351.4 576.8,351.1 577.6,350.3 C578.7,349.6 579.4,348.4 580.1,346.5 C580.2,346.2 580.3,345.9 580.3,345.7 L580,345.7 C580.4,344.5 580.7,343.4 581,342.3 L581.4,342.3 C581.8,340.5 582.2,338.8 582.9,337.2 L582.6,337.2 C583,336.3 583.4,335.1 583.8,333.8 L584.2,333.8 C584.7,332 585.2,330.2 585.5,328.7 L585.2,328.7 C585.4,327.9 585.6,327.3 585.7,327 C585.9,326.6 586.1,326 586.2,325.3 L586.5,325.3 C586.9,323.9 587.4,322 587.6,320.2 L587.2,320.2 C587.3,319.3 587.4,318.4 587.3,317.7 C587.3,317.4 587.3,317.1 587.2,316.8 L587.7,316.8 C587.6,314.9 587.1,312.9 586.4,311.6 Z M239.7,82.3 C239.4,82.4 239.1,82.6 238.9,82.9 C238.3,83.7 241.3,84.7 242.1,83.8 C242.3,83.7 242.5,83.6 242.6,83.5 C243,82.6 241.1,81.1 239.7,82.3 L239.7,82.3 Z M247.8,84.3 C247.4,84.4 247.2,84.5 247.1,84.7 C245.4,85.5 247.4,87.2 248.7,86.6 C248.9,86.5 249,86.4 249.1,86.3 C250.6,85.6 249.9,83.6 247.8,84.3 L247.8,84.3 Z M825.7,136 C825.4,136.1 825.2,136.2 825,136.4 C823.6,137.1 823.1,139.4 823.1,140.1 C823.1,140.4 822.2,140.8 821.1,141.4 L821,141.4 C820.7,141.6 820.4,141.8 820.1,141.9 C818.9,142.6 818,143.5 818.9,144.5 C820.9,146.6 822.9,145 825.9,144.8 C829,144.5 831.9,143.5 831.9,143.5 C831.9,143.5 834.5,143.6 835.5,142.6 C836,142.3 836.2,142 836.3,141.4 L835.9,141.4 L835.9,141.2 C835.2,138.6 830.4,138.3 829.5,138.6 C829.2,138.7 828.8,138.4 828.4,138 L829.1,138 C828.3,137.2 827.1,135.6 825.7,136 L825.7,136 Z M254.9,218.5 C254.6,218.6 254.4,218.7 254.2,218.9 C252.6,219.7 253.1,223.7 255.4,222.9 C255.7,222.8 255.9,222.6 256.2,222.4 C258,221.4 256.8,218.1 254.9,218.5 Z M253.8,197.1 C253.4,197.1 253.1,197.3 252.9,197.5 C251.5,198.1 252,200.4 254.2,199.9 C256.1,199.5 255.7,198 254.5,197.5 L255.4,197.5 C255,197.2 254.5,197 253.8,197.1 L253.8,197.1 Z" id="Shape"></path>
        </g>
    </g>
</svg>