<svg width="171" height="77" viewBox="0 0 171 77" fill="none" xmlns="http://www.w3.org/2000/svg">
<circle cx="86.5658" cy="43.9003" r="33.0263" fill="#77D501"/>
<path d="M101.758 48.5241H71.3738C74.0159 53.8083 77.3185 61.0741 86.5659 61.0741C95.8132 61.0741 99.7764 52.9276 101.758 48.5241Z" fill="white"/>
<path d="M70.7135 39.9373C70.7135 38.6163 71.5061 35.9742 74.6767 35.9742C77.8472 35.9742 78.6398 38.6163 78.6398 39.9373" stroke="#000500" stroke-width="2.6421" stroke-linecap="round"/>
<path d="M93.1713 39.9373C93.1713 38.6163 93.9639 35.9742 97.1344 35.9742C100.305 35.9742 101.098 38.6163 101.098 39.9373" stroke="#000500" stroke-width="2.6421" stroke-linecap="round"/>
<path d="M3.43707 29.3057L1.27364 28.7538L2.76858 24.7226L5.92317 23.9845L3.43707 29.3057Z" fill="#9DE8FF"/>
<path d="M127.346 0.090332C128.251 1.54276 129.899 1.3648 131.104 0.707937C130.919 0.807383 131.138 2.1342 130.938 2.24149C129.732 2.89836 128.085 3.07631 127.179 1.62388C127 1.33863 127.516 0.365116 127.346 0.090332Z" fill="#78D500"/>
<path d="M133.083 39.7929C131.374 39.6973 130.57 41.1467 130.414 42.5101C130.439 42.3013 129.228 41.7165 129.256 41.4911C129.412 40.1276 130.216 38.6782 131.925 38.7738C132.261 38.7917 132.76 39.7742 133.083 39.7929Z" fill="#77D501"/>
<path d="M45.8559 60.828C46.9933 61.5943 48.1401 60.9256 48.8069 60.0512C48.7038 60.1846 49.2977 61.0835 49.1864 61.2274C48.5197 62.1018 47.3728 62.7705 46.2354 62.0042C46.0112 61.8541 46.0705 60.9732 45.8559 60.828Z" fill="#76FFA2"/>
<path d="M29.4909 2.00425L28.0653 5.37453L26.8488 3.76672L27.8777 0.090332L29.4909 2.00425Z" fill="#FFC887"/>
<path d="M71.3705 4.08609L72.0804 1.68428L73.869 0.345451L74.2727 6.11676L71.3705 4.08609Z" fill="url(#paint0_linear_2_882)"/>
<path d="M87.4414 26.3795L87.1276 28.3197L84.1297 27.1508L83.4653 24.3801L87.4414 26.3795Z" fill="#E94C93"/>
<path d="M169.175 1.3237L170.513 2.76289L167.749 4.4109L165.155 3.23361L169.175 1.3237Z" fill="#E94C93"/>
<path d="M32.86 39.0054L31.5857 38.9204L31.7591 35.8406L33.3714 34.8691L32.86 39.0054Z" fill="#E94C93"/>
<path d="M113.713 12.3042L112.713 11.5103L114.605 9.07421L116.484 9.19054L113.713 12.3042Z" fill="#E94C4C"/>
<path d="M165.773 40.5307L167.5 41.1844L166.123 45.2027L163.537 45.8149L165.773 40.5307Z" fill="#3B4DF0"/>
<path d="M36.4262 75.1937L35.9293 77L32.3428 75.5788L31.6922 72.8829L36.4262 75.1937Z" fill="url(#paint1_linear_2_882)"/>
<path d="M146.995 71.2653L148.385 71.5018L147.682 74.4758L145.743 75.2284L146.995 71.2653Z" fill="#D886FF"/>
<path d="M49.6672 19.4817L48.8837 18.4327L51.0626 17.1708L52.778 18.0055L49.6672 19.4817Z" fill="#FFE68D"/>
<defs>
<linearGradient id="paint0_linear_2_882" x1="140.08" y1="-150.3" x2="-16.8617" y2="203.176" gradientUnits="userSpaceOnUse">
<stop offset="0.1124" stop-color="#F0C83B"/>
<stop offset="0.2416" stop-color="#F1563C"/>
<stop offset="0.2688" stop-color="#E65352"/>
<stop offset="0.3232" stop-color="#D34F7A"/>
<stop offset="0.3666" stop-color="#C74C92"/>
<stop offset="0.3933" stop-color="#C34B9B"/>
<stop offset="0.7865" stop-color="#00B3C1"/>
<stop offset="0.8146" stop-color="#00B36C"/>
<stop offset="1" stop-color="#00B3C1"/>
</linearGradient>
<linearGradient id="paint1_linear_2_882" x1="-7.63982" y1="174.969" x2="244.551" y2="-448.84" gradientUnits="userSpaceOnUse">
<stop offset="0.1124" stop-color="#F0C83B"/>
<stop offset="0.2416" stop-color="#F1563C"/>
<stop offset="0.2688" stop-color="#E65352"/>
<stop offset="0.3232" stop-color="#D34F7A"/>
<stop offset="0.3666" stop-color="#C74C92"/>
<stop offset="0.3933" stop-color="#C34B9B"/>
<stop offset="0.7865" stop-color="#00B3C1"/>
<stop offset="0.8146" stop-color="#00B36C"/>
<stop offset="1" stop-color="#00B3C1"/>
</linearGradient>
</defs>
</svg>
